<svg xmlns="http://www.w3.org/2000/svg" id="Layer_2" data-name="Layer 2" viewBox="0 0 64.98 160.8"><defs><style>.cls-1{fill:#bba085}</style></defs><g id="OBJECTS"><path d="M41.65 155.78v-.03.04zm-7.09-78.87s0-.03.01-.05c0 .02 0 .03-.01.05zm7.7-19.65v.04c0-.01 0-.03.01-.04zm8.03 36.28v-.01zm-23.71-48.3s0 .01.01.02c0 0 0 .01.01.02 0-.01-.01-.02-.02-.04zm-1.97 63.93zm-14.43-.15-.01-.01.02.02zm12.29-94.43zm7.9-5.26v-.01zm3.03 15.6s.02-.01.03-.02c0 0-.01 0-.02.01zM11.22 68.88h-.04.04zm25.64 3.29s.01-.02.02-.03c0 .01-.02.02-.02.03zm4.67-8.28v-.01s0-.01.01-.02c0 0-.01.02-.02.03zm13.23-1.26zm-9.59 6.62h-.03c.01 0 .03 0 .04-.01zm-5.24-2.29v.02zm16.62 37.36-.02.03.02-.03z" class="cls-1"/><path d="M64.96 103.71c-.05-.48-.13-.97-.21-1.45l-.24-1.46v.03c-.02-.14-.05-.28-.08-.42l-.15-.71c-.05-.22-.09-.44-.13-.67-.09-.48-.19-.96-.29-1.44l-.15-.68c-.02-.11-.04-.23-.08-.34a.341.341 0 0 0-.11-.18.27.27 0 0 0-.15-.05c-.07 0-.14.03-.2.06-.2.1-.39.22-.58.33-.21.12-.42.24-.63.37a14.269 14.269 0 0 0-2.33 1.76c-.18.17-.36.36-.53.55-.16.18-.3.37-.44.56-.14.19-.27.38-.41.57-.15.21-.3.41-.44.62-.28.39-.56.78-.82 1.19-.26.41-.48.84-.72 1.27-.23.43-.45.86-.65 1.3-.19.44-.39.87-.56 1.32s0 .01 0 .02v.02c-.01.03-.02.07-.04.1 0-.01 0-.02.01-.04-.13.36-.23.74-.3 1.12-.07.36-.1.73-.13 1.1-.04.49-.09.98-.06 1.48.01.24.04.47.07.71l.09.73.18 1.39c.06.48.13.96.2 1.43l.21 1.41c.03.24.07.48.09.71.01.13.03.26.04.39 0 .11.02.23.02.34v.4c0 .07 0 .14-.02.2 0 .05-.02.09-.02.14-.09.12-.17.24-.27.36-.13.16-.27.32-.4.47-.31.35-.63.69-.94 1.03-.4.45-.8.91-1.16 1.39-.19.25-.38.51-.57.76-.18.24-.36.46-.54.69l-.21.24s-.01.02-.02.02c-.11.12-.23.24-.35.35-.12.12-.24.23-.35.34-.25.24-.51.47-.78.7-.12.1-.25.2-.37.29-.05.03-.1.06-.15.11-.05.05-.1.1-.14.16-.06.09-.11.19-.17.28l-.23.35c-.12.18-.24.36-.36.53-.16.23-.32.47-.47.71-.06.1-.12.19-.18.29.24-.89.47-1.79.71-2.68.15-.56.29-1.12.41-1.69.1-.52.17-1.04.22-1.56.06-.55.11-1.1.16-1.65.05-.53.11-1.06.14-1.59.02-.28.03-.57.04-.85 0-.28 0-.56-.01-.84-.02-.54-.04-1.09-.05-1.63v-.35c0-.44-.02-.88-.02-1.32 0-.54 0-1.08.01-1.62.01-.55.03-1.09.02-1.64 0-.54-.08-1.09-.1-1.63-.03-.53-.05-1.05-.12-1.58-.03-.26-.09-.53-.13-.79.01-.16.03-.31.04-.47.03-.32.05-.63.07-.95.02-.31.03-.63.06-.94l.09-.92c.03-.32.07-.63.12-.94.05-.33.11-.65.17-.97.05-.3.1-.61.15-.92.05-.32.11-.64.17-.96.06-.32.12-.65.17-.97a32 32 0 0 0 .14-1.03c.03-.32.06-.64.07-.97.03-.67.04-1.34.03-2.01v-.92c-.01-.53 0-1.07 0-1.6 0-.65.02-1.31 0-1.96-.01-.86-.19-1.74-.63-2.49-.21-.37-.47-.7-.78-.99-.11-.11-.23-.22-.35-.32-.49-.44-1-.85-1.49-1.28-.24-.21-.49-.43-.74-.63-.31-.25-.63-.5-.92-.78-.16-.16-.31-.33-.46-.51-.23-.29-.42-.59-.62-.89-.12-.22-.25-.43-.36-.65-.13-.26-.26-.52-.38-.79-.1-.22-.2-.43-.31-.64-.12-.24-.25-.48-.36-.72-.03-.06-.05-.12-.08-.18-.03-.08-.07-.17-.15-.21a.223.223 0 0 0-.21.02c-.06.04-.09.12-.12.19-.1.24-.22.46-.34.69-.27.49-.53.99-.79 1.49-.14.27-.28.54-.4.82-.16.35-.32.71-.41 1.08-.1.4-.12.81-.14 1.23-.02.3-.02.6-.03.9-.02.66-.01 1.32-.05 1.98l-.06 1.06c-.02.31-.05.62-.07.93-.03.22-.05.44-.07.66-.03.22-.06.44-.1.66-.03.22-.07.43-.11.64-.04.21-.08.42-.11.63-.11.62-.22 1.24-.31 1.87-.05.31-.08.62-.11.93-.02.31-.05.62-.04.93.01.31.04.62.08.93.05.35.1.7.21 1.04.05.17.1.35.16.52.06.16.12.31.18.47l.36.9c.12.3.26.6.41.89.15.29.31.57.5.84s.39.54.61.79c.22.24.44.48.65.74.41.49.79.99 1.26 1.42.5.45 1.03.86 1.57 1.26.26.2.53.38.81.55.27.17.55.32.83.47.14.08.27.15.4.24.18.11.34.23.51.35.06.04.12.09.17.14.03.06.05.12.08.18.08.18.15.36.21.55.02.05.03.09.06.14 0 .01.02.02.03.03.01.16.03.32.03.49.01.34.03.67.05 1.01.02.32.05.64.06.97 0 .48-.01.96-.03 1.43-.02.53-.03 1.05-.04 1.58-.01.52-.01 1.05-.01 1.57v1.62c0 .31.02.61.03.92 0 .68-.05 1.35-.1 2.02-.03.38-.07.75-.1 1.12a6.47 6.47 0 0 0-.13-.41c0 .01 0 .03.01.04-.03-.08-.05-.16-.08-.24-.15-.47-.31-.95-.51-1.4-.19-.45-.41-.9-.56-1.36-.02-.05-.03-.1-.05-.15v.02c-.11-.35-.2-.74-.47-1l-.07-.07c0-.07 0-.14-.01-.21-.02-.32-.05-.63-.08-.95-.03-.33-.06-.65-.11-.98-.04-.31-.1-.62-.18-.93a7.71 7.71 0 0 0-.32-.92c-.09-.2-.21-.4-.35-.57-.13-.15-.27-.28-.45-.38-.16-.09-.36-.14-.54-.15-.26 0-.53.05-.77.14-.17.06-.34.15-.46.28-.13.14-.23.3-.3.48a2.387 2.387 0 0 0-.14 1.08c.02.16.04.33.09.49.06.19.12.38.21.57.1.22.23.42.38.61.21.27.45.49.71.72.25.22.5.43.76.64.25.2.52.37.78.55-.02 0-.03-.02-.05-.03.1.07.19.14.28.21l.04.04c0 .03.01.05.02.08.05.2.12.4.2.6.08.2.18.38.28.56.11.2.22.39.33.59 0-.02-.01-.05-.02-.07.03.06.06.13.09.19.2.42.38.84.55 1.27.17.43.34.86.49 1.29.04.12.08.23.1.36.03.19.05.38.06.57v.22c-.02.04-.01.08 0 .11-.07.43-.14.87-.25 1.29 0-.02.01-.05.02-.07-.02.1-.05.19-.07.29-.14.52-.28 1.03-.42 1.54-.15.53-.29 1.07-.44 1.6-.15.52-.31 1.04-.49 1.56-.18.54-.37 1.07-.57 1.59-.2.52-.4 1.04-.58 1.57a23.787 23.787 0 0 0-.9 3.31c-.18.93-.36 1.87-.46 2.82-.01-.14-.03-.28-.04-.42-.08-1.02-.12-2.05-.19-3.08-.07-1.04-.2-2.08-.32-3.12-.06-.53-.12-1.07-.16-1.6-.04-.47-.05-.94-.07-1.42v-1.72c0-.53 0-1.07-.02-1.6-.03-.52-.05-1.05-.1-1.57-.05-.54-.11-1.07-.16-1.61-.11-1.06-.18-2.13-.26-3.2-.04-.51-.09-1.02-.14-1.53-.06-.54-.15-1.07-.24-1.6-.09-.52-.19-1.04-.29-1.56-.1-.52-.19-1.05-.28-1.57-.17-1-.33-2.01-.51-3.02-.18-1.05-.4-2.09-.59-3.13-.19-1.03-.35-2.05-.55-3.08-.19-.99-.43-1.97-.69-2.95-.26-.99-.54-1.97-.78-2.96-.25-1.01-.48-2.03-.72-3.05-.12-.53-.25-1.06-.36-1.59-.11-.5-.2-1-.28-1.5-.07-.44-.13-.88-.19-1.32-.09-.55-.18-1.1-.28-1.65-.09-.49-.22-.97-.36-1.45-.13-.45-.28-.9-.46-1.33l-.6-1.47c-.2-.48-.37-.96-.55-1.45-.06-.16-.11-.33-.16-.49.13-.58.27-1.16.39-1.74.14-.65.27-1.29.42-1.94v-.03.01c.03-.13.06-.26.1-.39.13-.53.29-1.05.43-1.58.06-.22.11-.43.17-.65.07-.15.14-.3.22-.44.07-.14.14-.27.21-.4.04-.08.09-.16.13-.24.06-.11.12-.22.19-.32.14-.19.26-.38.4-.57 0 .01-.02.02-.02.03.08-.11.16-.21.24-.32.27-.35.54-.69.8-1.05.25-.34.47-.7.71-1.06 0 .01-.02.02-.02.03l.15-.21c.05-.06.09-.13.15-.19.02-.02.04-.05.06-.07.04.06.09.11.14.14.07.04.15.07.23.08h.21c.1 0 .21-.02.31-.03.44-.04.88-.07 1.32-.12.45-.05.89-.14 1.32-.24.42-.1.84-.2 1.27-.3.41-.1.83-.21 1.23-.34.01 0 .02 0 .03-.01.04 0 .08-.02.12-.04.04-.01.07-.02.11-.04.8-.26 1.55-.63 2.35-.89.18-.06.37-.11.56-.16.2-.05.4-.11.6-.18.39-.13.76-.31 1.1-.54.36-.26.68-.55 1-.87.15-.15.3-.3.46-.45.16-.14.31-.28.48-.42l.48-.39c.24-.2.47-.41.68-.64.15-.16.3-.33.44-.5.13-.15.26-.31.38-.46.28-.34.56-.68.81-1.04.12-.17.23-.34.33-.52s.2-.35.29-.53c0 .01-.01.02-.02.03.04-.07.07-.14.11-.21 0 0 0-.02.01-.02.04-.08.08-.16.13-.24 0 .01-.01.02-.02.03.09-.17.18-.34.28-.5.09-.16.19-.32.28-.47.18-.3.37-.59.56-.88.23-.37.44-.74.68-1.1.03-.04.06-.09.08-.13.04-.06.08-.12.1-.19.04-.11.07-.23 0-.33-.05-.08-.14-.1-.23-.1-.21 0-.42.04-.63.09-.2.04-.4.1-.6.16-.21.06-.42.13-.64.18-.42.11-.84.2-1.27.28-.02 0-.05 0-.07.01l-.19.03h.02c-.24.04-.48.07-.72.1-.28.04-.57.07-.85.11-.2.02-.4.04-.61.07l-.64.09c-.44.07-.88.13-1.32.22-.43.08-.86.17-1.28.28-.41.11-.81.28-1.2.44-.41.16-.83.31-1.24.48-.41.17-.81.35-1.18.59-.19.12-.37.24-.55.38-.19.14-.36.3-.53.46a7 7 0 0 0-.46.48l-.43.46s0 .01-.02.02l.01-.01c-.11.12-.22.24-.34.35-.11.11-.23.22-.34.34-.13.13-.26.26-.38.4-.12.13-.23.27-.33.42-.15.21-.3.43-.42.66-.23.41-.44.82-.65 1.23-.1.19-.19.38-.27.57-.09.2-.18.4-.25.61 0 .01 0 .02-.01.04 0 .02-.01.04-.02.06 0 .02-.01.04-.02.05v.01c0 .01 0 .02-.01.03 0 .02-.01.04-.02.06 0 .02-.02.04-.02.06v.02c-.05.14-.1.29-.15.44-.06.18-.12.36-.17.54-.1.32-.19.64-.3.95-.21.2-.43.41-.61.64-.28.34-.52.7-.77 1.06-.02.03-.04.05-.06.08-.02.03-.04.05-.06.08 0 0-.01.02-.02.03-.13.18-.26.35-.4.52-.14.18-.28.35-.42.54-.1.14-.21.29-.31.44-.03.05-.06.1-.1.15.17-.7.34-1.39.5-2.09.14-.62.29-1.24.42-1.86.07-.33.14-.67.19-1 .05-.3.08-.6.11-.9.01-.11 0-.22.02-.33 0-.03.02-.05.02-.08.03-.13.05-.26.08-.39.03-.1.05-.19.08-.29.04-.12.08-.23.12-.34.17-.38.36-.76.57-1.12l.03-.06c0-.01.01-.02.02-.04.02-.03.03-.05.05-.08v.01s0-.01.01-.02v-.01c.07-.12.13-.23.19-.35.07-.13.13-.25.19-.38.11-.24.21-.48.31-.73.03-.09.07-.17.1-.26 0-.02.01-.03.02-.05 0 .01 0 .02-.01.04 0-.02.02-.05.03-.07 0-.01 0-.02.01-.03 0-.01 0-.02.01-.03v.01c0-.02.02-.04.03-.07v-.01c.03-.09.07-.17.1-.26l.24-.6.18-.42.21-.42c.09-.16.19-.31.3-.46.1-.13.21-.25.31-.37l.33-.39c.23-.27.42-.57.58-.89.19-.37.35-.77.45-1.18.08-.32.16-.63.23-.95.04-.17.07-.35.11-.52.03-.14.05-.29.07-.44.01-.07.03-.15.03-.22 0-.09.02-.18.03-.27.02-.16.02-.32.03-.48.02-.32.01-.64 0-.95 0-.31-.02-.61-.04-.91 0-.16-.02-.33-.04-.49a14.166 14.166 0 0 0-.2-1.42c-.05-.28-.11-.57-.18-.85-.04-.15-.07-.3-.11-.45-.05-.16-.09-.31-.14-.47-.05-.15-.1-.31-.17-.46-.03-.08-.07-.16-.1-.24-.03-.07-.06-.14-.1-.21-.04-.08-.08-.17-.12-.25-.03-.06-.06-.12-.1-.18-.08-.14-.16-.28-.24-.43-.15-.26-.3-.51-.43-.78-.14-.28-.27-.56-.4-.84-.17-.39-.33-.78-.51-1.17-.07-.15-.14-.31-.21-.46-.06-.12-.12-.25-.18-.37-.05-.09-.09-.17-.15-.26-.04-.07-.09-.14-.13-.21-.08-.12-.16-.24-.24-.35-.18-.26-.37-.51-.56-.77-.09-.13-.19-.25-.27-.38-.09-.14-.19-.28-.28-.43-.09-.15-.17-.3-.24-.45-.05-.12-.1-.24-.13-.36l-.06-.2-.09-.37c-.03-.13-.05-.27-.08-.4-.02-.14-.04-.27-.07-.41a.31.31 0 0 0-.25-.24.32.32 0 0 0-.3.11c-.07.08-.09.18-.12.28-.03.09-.06.18-.1.27-.04.1-.09.2-.15.3-.07.11-.14.22-.21.32-.06.08-.13.16-.2.24-.06.07-.12.13-.18.19l-.02.02c-.15.15-.3.31-.45.46l.03-.03-.05.05-.06.06.01-.01-.1.1.02-.02c-.01.01-.02.02-.03.04l-.02.02c-.15.16-.3.32-.44.48-.08.09-.16.2-.22.3l-.12.21-.15.27c-.05.09-.1.19-.15.28-.06.11-.11.23-.15.34-.13.32-.21.66-.25 1-.02.18-.04.36-.05.53l-.03.49c-.02.3-.03.59-.05.89-.02.31-.05.62-.08.93-.03.28-.07.55-.12.82-.03.15-.05.3-.08.46-.02.12-.06.24-.08.36-.07.23-.13.46-.2.69-.06.2-.12.4-.18.61-.06.24-.13.48-.19.73-.06.23-.11.47-.16.71l-.09.48c-.03.15-.04.31-.06.47-.04.29-.06.57-.08.86-.01.17-.03.34-.03.51 0 .18-.02.36-.02.54-.01.28-.02.56-.01.84 0 .17 0 .34.01.5 0 .15.01.31.03.46.02.16.02.32.05.47.02.11.03.21.05.32 0 .06.02.12.03.18.03.15.06.31.11.46.03.1.06.2.09.29.02.07.05.13.07.2.11.3.24.59.4.86.11.19.24.37.38.54 0 0-.02-.02-.02-.03.03.03.06.07.08.11 0 0 0 .01.02.02l.02.02v-.01a.5.5 0 0 0 .07.08s-.02-.02-.02-.03c.08.1.16.2.23.3 0 0-.02-.02-.02-.03.09.12.17.24.25.36.04.06.07.12.11.18.16.26.31.52.46.78.16.27.33.55.51.81.09.13.19.26.28.39l.3.39c.18.23.38.44.57.67.06.09.13.17.19.26.05.07.09.15.14.22.05.1.11.19.16.29l.12.27c.17.42.33.84.47 1.27.04.14.07.27.09.41v.03c-.04.14-.07.28-.1.43-.03.17-.02.35-.01.52 0 .03 0 .06.01.09l-.03.2c-.02.13-.05.27-.07.4-.02.09-.03.19-.05.28 0 .04-.02.07-.01.11 0 .03.02.05.04.08-.13.48-.26.96-.4 1.44-.18.61-.36 1.22-.53 1.84-.17.61-.35 1.22-.51 1.83-.17.62-.33 1.24-.5 1.86-.17.63-.34 1.26-.5 1.9-.04.15-.07.31-.11.46-.15.64-.25 1.29-.38 1.93-.04.2-.09.41-.13.61-.11-.37-.23-.73-.35-1.09-.33-.98-.71-1.96-1.17-2.89-.47-.94-.92-1.89-1.36-2.85-.22-.51-.44-1.03-.67-1.54-.07-.15-.13-.3-.2-.45-.05-.12-.1-.25-.17-.38-.13-.24-.26-.49-.38-.73-.27-.52-.53-1.05-.8-1.57 0-.03-.01-.06-.02-.09-.04-.23-.09-.46-.11-.7-.02-.19-.03-.38-.05-.56 0-.09-.02-.19-.02-.28l-.06-1.21v.02c0-.26-.02-.52-.03-.79v.03c0-.09 0-.17-.01-.26v-.19c.01-.08.03-.16.03-.24 0-.06 0-.11.01-.17 0-.11.02-.22.02-.33l.03-.54c.02-.37.04-.73.08-1.1v-.03c.05-.51.11-1.03.2-1.54.07-.42.15-.84.21-1.26.06-.43.1-.87.15-1.3.04-.4.07-.81.12-1.21.05-.44.11-.87.18-1.31.07-.41.14-.81.2-1.22l.09-.68c.03-.22.05-.43.07-.65.02-.22.05-.44.07-.66.02-.18.05-.37.08-.55.03-.19.05-.38.09-.57.05-.24.09-.47.14-.7.14-.58.28-1.15.43-1.73.15-.59.3-1.18.48-1.77.12-.41.24-.81.37-1.22a205.03 205.03 0 0 0 .86-2.57c.06-.2.13-.41.2-.61.06-.18.12-.35.18-.53.07-.16.14-.32.2-.49.06-.14.13-.28.19-.42.13-.28.26-.55.39-.83.13-.27.25-.54.38-.81.14-.29.29-.58.44-.87 0 .01-.01.02-.02.03.04-.08.08-.15.12-.23 0-.02.02-.04.03-.05v.01l.18-.36c0 .01-.01.02-.02.04l.3-.57c.19-.36.39-.72.58-1.08.09-.18.18-.35.24-.54.04-.12.08-.25.11-.37.26-.35.51-.7.77-1.05.24-.32.49-.64.74-.96.26-.33.53-.65.78-.99.13-.17.25-.35.36-.53.11-.19.23-.37.32-.57.05-.11.1-.22.15-.34.06-.16.13-.32.15-.49.02-.13.03-.25.01-.38 0-.04-.02-.09-.03-.13-.02-.05-.04-.11-.07-.16-.05-.07-.1-.15-.17-.21-.07-.05-.14-.1-.21-.12-.2-.06-.4-.04-.59 0-.17.04-.31.15-.45.25-.17.12-.33.26-.49.4-.31.26-.6.55-.86.86-.28.34-.52.72-.62 1.16-.03.12-.05.24-.07.36-.02.09-.02.18-.03.26-.04.4-.06.81-.09 1.21-.02.16-.03.32-.06.48l-.09.51v-.03c-.04.18-.09.35-.14.52-.06.15-.12.29-.19.44v.02c-.43.82-.84 1.65-1.25 2.49a68.5 68.5 0 0 0-1.06 2.31c-.17.4-.35.8-.48 1.22-.14.41-.26.82-.38 1.24-.12.4-.25.8-.38 1.2-.13.4-.27.8-.4 1.21-.13.42-.27.84-.38 1.26L30.44 48l-.12.43v-.15c0-.55-.01-1.1-.02-1.64 0-.54-.02-1.09-.07-1.63-.05-.53-.11-1.05-.2-1.57v-.08s-.01 0-.01.01c0-.02 0-.05-.01-.07v.02c0-.03-.01-.07-.02-.1v-.03c0-.03-.01-.06-.02-.09v.04c-.06-.35-.13-.7-.21-1.04-.13-.53-.28-1.05-.43-1.57-.08-.29-.16-.59-.23-.89.03-.23.05-.47.08-.7.07-.5.14-1.01.24-1.5.07-.3.14-.59.19-.89.02-.14.04-.28.05-.43 0-.15-.01-.3-.04-.45-.06-.35-.16-.7-.35-1.01 0-.01-.02-.03-.02-.04 0 0-.01-.02-.02-.02v.01c-.1-.15-.22-.3-.36-.41-.17-.12-.36-.24-.56-.28-.27-.05-.57.01-.81.14-.12.07-.24.15-.33.25-.08.09-.15.2-.19.31-.09.23-.11.49-.07.74l.06.34c.04.2.08.4.14.59.02.07.05.14.07.22 0-.02-.01-.03-.02-.05.07.23.17.45.27.67l.27.63c.17.41.32.83.46 1.25.1.34.21.67.3 1.01.09.32.19.65.29.97.04.12.08.25.12.37 0-.01 0-.03-.01-.04.03.08.05.16.08.24v.01c.12.37.22.73.31 1.11.09.38.16.76.24 1.15.03.21.07.42.1.63.03.21.06.43.08.64.11 1.07.13 2.14.2 3.22 0 .15.02.3.02.45v-.03c.01.27.02.55.01.83 0 .14-.01.28-.02.43-.04.16-.07.31-.11.47-.04.19-.08.37-.11.56-.03.15-.05.31-.08.46-.01.07-.03.14-.04.22-.06.45-.11.9-.16 1.36-.09.82-.24 1.63-.37 2.44-.07.42-.11.85-.15 1.27-.04.44-.09.89-.13 1.33-.08.84-.23 1.68-.35 2.51-.06.39-.09.79-.11 1.19-.02.43-.04.86-.05 1.29 0 .23-.01.46-.02.7 0 .17-.03.34-.02.51.01.16.03.32.04.49l.09 1.41.03.51c.02.17.03.35.05.52-.1-.2-.19-.4-.28-.6-.26-.59-.51-1.18-.76-1.77 0-.05 0-.09-.01-.14a7.55 7.55 0 0 0-.17-1.06c-.08-.33-.19-.64-.31-.96-.11-.28-.22-.56-.34-.83 0-.06-.02-.12-.02-.18 0-.24.03-.48.06-.72v.05c.07-.63.15-1.26.22-1.88.09-.76.19-1.52.3-2.27.05-.36.09-.72.14-1.08.05-.37.12-.72.19-1.09 0-.02.01-.04.02-.06.05-.19.09-.38.15-.56.06-.18.11-.36.17-.54.11-.36.23-.72.32-1.08.09-.37.18-.74.24-1.12.06-.39.11-.78.1-1.17v-.15.02c0-.37-.08-.73-.14-1.09-.05-.32-.1-.64-.19-.95-.09-.31-.2-.62-.35-.91-.16-.32-.31-.64-.49-.94-.21-.35-.41-.69-.62-1.04-.04-.07-.08-.13-.13-.2-.08-.13-.16-.25-.25-.38-.11-.17-.22-.34-.32-.5-.13-.2-.26-.4-.38-.6-.05-.08-.1-.15-.16-.23-.07-.1-.13-.19-.21-.29.01.02.02.03.04.05-.09-.11-.18-.22-.26-.33-.06-.07-.12-.14-.19-.21-.05-.06-.11-.12-.17-.18-.12-.11-.24-.23-.37-.34-.15-.12-.3-.23-.46-.34-.14-.1-.28-.19-.43-.28-.36-.22-.73-.42-1.11-.61-.01-.04-.03-.09-.04-.13-.02-.08-.03-.15-.05-.23-.08-.34-.12-.69-.16-1.03 0-.11-.02-.22-.03-.33V39l-.09-.77v-.01l.03-.22c.02-.09.03-.19.05-.28.02-.1.04-.21.07-.31.09-.36.18-.71.28-1.07.03-.11.06-.22.1-.33.03-.1.07-.2.1-.3.05-.16.11-.33.17-.49.12-.3.23-.59.36-.89.11-.25.22-.5.34-.74.12-.26.25-.51.38-.76.24-.46.48-.93.69-1.4.11-.25.22-.49.32-.74.11-.26.21-.53.32-.79.1-.25.2-.51.31-.75.11-.24.21-.48.33-.71.12-.22.24-.45.37-.67.02-.04.05-.08.07-.12h.03c.02 0 .05 0 .07-.01.08-.03.14-.09.2-.14.27-.22.57-.42.86-.61.11-.07.21-.13.33-.19.12-.06.24-.13.36-.18.14-.06.28-.12.42-.17.15-.05.29-.1.44-.15.34-.1.69-.18 1.04-.25.6-.12 1.22-.21 1.8-.4a9 9 0 0 0 .87-.31c.3-.12.57-.28.84-.45.14-.09.28-.19.42-.28.12-.09.24-.17.36-.27s.25-.2.36-.31c.12-.12.23-.24.34-.37.2-.24.39-.5.57-.75.18-.25.34-.52.48-.8.13-.28.22-.58.31-.88.09-.29.17-.59.26-.88.09-.3.18-.6.27-.91.08-.29.15-.59.22-.89 0 .02 0 .04-.01.05.01-.07.03-.13.04-.2v-.05c.03-.12.05-.24.08-.36 0-.04.02-.08.03-.13v-.06c.12-.56.24-1.12.31-1.69.04-.29.06-.58.07-.87.02-.3.03-.61-.02-.91-.02-.12-.05-.24-.09-.36-.03-.1-.07-.21-.1-.31-.03-.09-.05-.19-.07-.29-.02-.13-.03-.25-.04-.38v.03c-.02-.39-.02-.79-.04-1.18v-.03c0-.11 0-.21-.01-.32v-.11c0-.17-.19-.3-.35-.28-.18.02-.29.18-.28.35 0 .11.01.23.02.34-.09-.03-.19-.02-.28-.02-.08 0-.17 0-.25.02-.09.02-.19.07-.28.1-.05.02-.11.05-.16.07-.2.09-.4.17-.61.25-.28.12-.57.24-.85.36-.29.12-.58.24-.85.38l-.42.21c-.14.07-.28.15-.41.23-.27.17-.54.33-.79.52-.13.1-.27.21-.39.31-.06.05-.12.1-.17.15-.07.06-.13.13-.2.19-.21.2-.4.42-.58.65-.38.49-.71 1.02-1.02 1.56-.62 1.1-1.21 2.22-1.69 3.39-.11.27-.22.55-.32.83-.11.3-.2.61-.28.92-.07.29-.13.59-.19.88l-.18.89c-.12.58-.16 1.18-.25 1.76-.08.54-.2 1.07-.32 1.6l-.15.24c-.26.45-.53.9-.77 1.36-.26.5-.48 1.01-.7 1.53-.21.48-.42.96-.65 1.43-.25.5-.51.99-.75 1.49-.12.25-.23.5-.34.75-.11.26-.21.53-.31.79-.05.14-.1.28-.14.41-.04.13-.08.26-.12.38-.04.13-.07.26-.11.39a10.83 10.83 0 0 0-.22 1.2c-.02.13-.03.26-.05.39 0-.05-.01-.1-.02-.16-.02-.16-.05-.32-.07-.49-.02-.14-.03-.28-.05-.43-.01-.12-.02-.25-.04-.37-.02-.16-.02-.32-.03-.48-.04-.65-.06-1.31-.12-1.96-.03-.31-.07-.61-.11-.92l-.12-.97-.06-.78c-.03-.64-.05-1.28-.08-1.92-.02-.33-.03-.65-.05-.98-.01-.31-.02-.62-.02-.93.01-.25.02-.51.05-.76.02-.27.05-.53.08-.8.04-.32.06-.65.1-.97.03-.06.07-.13.09-.19.05-.13.11-.26.17-.39l.12-.21c.04-.06.08-.11.13-.17.05-.05.1-.11.15-.16l.01-.01c.09-.1.19-.2.28-.3.19-.19.37-.39.53-.6.18-.24.35-.48.52-.72.3-.43.6-.86.89-1.29l.27-.36c.09-.12.19-.24.28-.36.18-.23.37-.45.56-.67.35-.42.66-.86.97-1.32.14-.21.29-.43.43-.65.15-.24.31-.48.47-.71 0 0 0 .01-.01.02.01-.02.03-.04.04-.06 0 0 0-.01.01-.02 0 0 .01-.02.02-.03.03-.04.06-.09.09-.13 0 0 0 .01-.01.02.04-.05.08-.11.12-.16 0 .01-.02.02-.02.03 0-.01.02-.02.03-.04 0-.01.02-.03.03-.04.03-.05.07-.09.1-.13.17-.23.35-.45.51-.68.09-.12.18-.25.26-.38.07-.09.13-.19.19-.29.07-.11.14-.21.2-.32.09-.15.17-.31.26-.46.06-.1.11-.2.16-.3.07-.13.14-.25.2-.38.12-.24.24-.48.34-.72.06-.14.13-.28.18-.42.15-.36.28-.73.36-1.11.06-.28.11-.56.16-.85.02-.12.04-.23.05-.35.02-.14.04-.27.05-.41 0-.08.01-.15.02-.23l.03-.4c0-.13.02-.27.01-.4 0-.15 0-.3-.01-.45 0-.11-.01-.21-.02-.32 0-.09-.02-.19-.04-.28-.02-.12-.04-.25-.07-.37-.04-.14-.07-.28-.12-.42-.04-.13-.09-.26-.14-.39-.1-.26-.21-.52-.32-.78 0 0 0 .02.01.02-.07-.16-.14-.31-.21-.47 0 .01 0 .02.01.03-.1-.23-.21-.47-.3-.7-.04-.11-.09-.21-.12-.32-.04-.13-.09-.27-.13-.4l-.12-.44c-.04-.16-.07-.31-.11-.47l-.06-.38c-.02-.1-.03-.2-.04-.31-.01-.11-.03-.22-.03-.33 0-.12-.01-.25-.02-.37 0-.13 0-.25-.01-.38 0-.15-.01-.31-.04-.46a.399.399 0 0 0-.16-.27.337.337 0 0 0-.17-.05c-.07 0-.11.03-.17.06-.08.05-.15.12-.22.18a9.208 9.208 0 0 1-1.15.85c-.34.22-.69.44-1.04.65-.08.05-.16.11-.25.16-.09.06-.19.12-.28.18-.09.06-.19.13-.28.2-.08.05-.15.1-.23.16l-.01.01-.02.02c-.02.02-.04.03-.06.05 0 0-.02.01-.02.02l-.02.01a.7.7 0 0 1-.1.08s-.01 0-.02.01-.03.02-.04.03l.02-.02c-.02.02-.05.04-.07.06-.01.01-.03.02-.04.03l.02-.02c-.01 0-.02.02-.04.03l.02-.02c-.11.09-.21.19-.32.29-.09.08-.17.15-.25.23-.22.21-.44.42-.65.64-.17.17-.33.34-.5.5-.21.2-.41.4-.63.59-.21.19-.43.38-.65.57l-.65.56c-.08.07-.16.15-.24.22-.1.09-.2.18-.29.27-.1.1-.2.2-.3.31-.11.13-.23.25-.34.38-.08.09-.15.17-.22.26-.06.08-.13.15-.19.23-.03.03-.06.06-.08.1 0 0 .01-.01.01-.02-.13.18-.26.35-.39.53-.05.06-.09.13-.13.2-.07.11-.14.22-.22.34-.11.17-.2.34-.3.52-.1.17-.19.35-.28.52-.11.21-.22.42-.31.63-.08.18-.16.37-.22.57-.06.18-.1.35-.14.54-.06.27-.11.54-.17.81l-.09.47c-.03.13-.04.27-.07.4-.04.26-.07.52-.1.78-.02.15-.02.31-.03.46-.01.14-.02.28-.02.41l-.03.82c-.02.55.07 1.11.22 1.64.15.53.38 1.04.64 1.52.26.47.57.89.87 1.33.32.47.62.95.94 1.42.15.22.31.43.47.63.09.11.18.22.27.34.12.15.24.29.34.45 0 0 .01.02.02.02 0-.01-.01-.02-.02-.03.02.03.04.07.06.1l.12.21c.01.03.03.07.04.1l.09.35c.02.09.09.14.17.18-.06.58-.14 1.16-.22 1.74l-.06.46c-.02.17-.04.34-.05.51-.02.15-.02.31-.03.46 0 .17-.01.34 0 .5 0 .64.04 1.28.06 1.92.02.64.02 1.28.07 1.92.05.66.14 1.32.22 1.97l.06.68c-.06-.2-.13-.4-.22-.59-.04-.08-.07-.16-.11-.23-.03-.06-.07-.12-.11-.18a.99.99 0 0 0-.11-.17c-.04-.06-.08-.13-.13-.18l-.27-.33c-.1-.12-.21-.23-.31-.34-.19-.2-.38-.4-.57-.59-.18-.17-.36-.34-.55-.5 0-.01-.01-.03-.02-.04-.05-.11-.09-.22-.14-.33-.06-.14-.12-.29-.18-.43-.16-.36-.31-.72-.48-1.07v-.01c-.05-.12-.11-.23-.16-.35 0 0 0 .02.01.03-.18-.4-.4-.78-.65-1.14l-.39-.54c-.12-.17-.23-.35-.34-.53-.15-.25-.3-.5-.47-.73-.18-.25-.38-.49-.59-.72-.37-.38-.8-.71-1.24-1.01-.22-.15-.44-.3-.67-.43-.13-.07-.25-.15-.38-.22-.12-.07-.25-.13-.38-.19-.11-.05-.23-.1-.35-.15-.07-.03-.15-.05-.22-.08-.06-.02-.12-.05-.19-.07-.26-.09-.53-.17-.8-.25-.53-.15-1.06-.28-1.6-.41-.53-.13-1.06-.24-1.59-.35-.27-.06-.54-.09-.82-.13-.13-.02-.27-.02-.4-.03h-.38c-.15 0-.3.02-.45.03-.13.01-.26.04-.39.06-.27.05-.53.11-.8.17-.52.12-1.03.25-1.55.35-.11.02-.22.03-.33.04-.1 0-.19.02-.29.02-.37 0-.74-.02-1.11-.05-.17-.02-.35-.03-.52-.06-.08-.01-.17-.03-.24-.01-.09.02-.16.09-.19.18-.02.07 0 .15.02.22.09.23.24.42.39.6.1.11.2.22.3.32.14.14.28.27.42.4.11.11.23.21.34.32 0 0 .01 0 .02.02.07.06.14.13.2.19l.09.09-.02-.02c.02.02.04.04.06.05.17.17.34.33.51.5.19.2.38.4.56.6.34.38.68.76 1.02 1.15.08.1.17.2.25.29.06.06.11.13.17.19.1.12.2.24.31.36.36.37.76.7 1.17 1.02l.8.62c.09.07.19.14.28.21.1.08.2.15.31.22.16.11.32.21.48.31.23.14.47.24.71.35.26.11.53.23.8.32.13.05.25.09.38.12.14.03.27.07.41.1.25.06.5.12.74.17.26.06.53.13.79.18.26.05.52.09.79.13.28.04.56.06.85.07h.1c.24 0 .47-.02.71-.04l.78-.06c.27-.03.54-.07.81-.13.25-.05.5-.12.75-.2.13-.04.25-.08.38-.13.1-.04.21-.09.31-.12l.12-.03c.05 0 .11-.01.16-.02h.03c.01 0 .02.02.03.03.16.13.31.27.47.4.28.28.56.56.83.85.14.15.29.31.43.47.13.15.26.29.38.44.06.08.12.15.18.24.05.08.1.15.15.23.07.11.13.23.19.35l.18.36c.07.15.14.31.21.47.03.08.07.15.11.23.02.04.05.07.07.1.02.03.03.05.05.08.04.07.08.15.12.22.01.03.04.05.06.06.02.19.04.38.07.57a29.735 29.735 0 0 0 .37 1.97c.06.3.13.59.19.89.04.18.07.35.11.53.02.12.05.24.08.35.03.1.07.2.11.3.04.11.08.21.11.32 0 .02.02.04.02.07-.12-.06-.24-.12-.36-.19-.18-.1-.35-.2-.53-.29.01 0 .03.02.04.02-.19-.11-.37-.22-.56-.34-.2-.13-.4-.25-.6-.38-.21-.14-.43-.27-.64-.41-.18-.12-.36-.26-.54-.39-.2-.15-.43-.38-.7-.28-.06.02-.12.06-.16.11-.03.04-.05.09-.07.14-.03.08-.02.19-.02.27 0 .22.03.45.04.67v.23c-.02.16-.06.32-.1.48-.16.55-.35 1.09-.52 1.64-.16.53-.28 1.08-.38 1.63-.14.74-.26 1.47-.37 2.22-.11.78-.19 1.57-.26 2.35-.03.35-.07.7-.07 1.05v.63c0 .17 0 .33.02.5.02.25.08.48.15.72.15.51.33 1 .54 1.49.22.49.46.97.75 1.42.29.44.61.87.92 1.3.22.3.44.61.67.9.22.29.45.57.7.83.14.14.28.29.43.42.13.13.28.24.42.36.28.23.59.44.89.65.14.11.27.22.4.33l.36.33c.39.4.8.78 1.21 1.16.32.32.6.66.89 1 .08.09.15.19.23.27s.16.17.24.25c.18.19.35.38.51.58.05.07.1.14.14.21.05.09.1.18.15.28 0 .01 0 .02.01.04 0 .02 0 .03.01.05 0 .04.04.07.07.1.09.21.19.43.28.64 0 .04.01.07.02.11.02.1.03.21.09.3.04.07.09.13.15.18.15.36.3.72.44 1.08.17.43.35.85.52 1.28.15.38.29.78.45 1.16v.04h.01c.01.03.03.06.04.09v-.01c.04.08.07.17.11.25.02.05.04.09.06.14 0 .02.01.03.02.05.01.02.02.05.03.07.32.72.66 1.44.98 2.16.27.62.51 1.24.76 1.86.12.29.23.57.35.86-.04-.05-.08-.11-.13-.16-.07-.09-.14-.19-.22-.28a2.56 2.56 0 0 1-.2-.26s0 .02.01.02a.58.58 0 0 0-.16-.19.603.603 0 0 0-.23-.06c-.01 0-.02 0-.03-.01-.08-.03-.16-.07-.23-.11h-.02l-.12-.06c-.11-.06-.22-.12-.34-.18-.25-.14-.5-.27-.75-.39-.28-.14-.57-.27-.85-.39-.54-.24-1.08-.48-1.62-.73-.25-.12-.5-.25-.75-.36-.26-.12-.52-.25-.79-.36-.29-.12-.58-.23-.88-.34-.28-.1-.56-.2-.85-.3-.47-.18-.94-.35-1.41-.52-.47-.16-.94-.32-1.4-.49-.4-.15-.79-.32-1.19-.46h.01c-.02 0-.03-.01-.05-.02h-.01c-.02 0-.04-.01-.06-.02-.01 0-.02 0-.03-.01h.01c-.02 0-.04-.01-.05-.02-.2-.07-.4-.14-.6-.2-.29-.08-.59-.16-.88-.23-.29-.07-.57-.17-.85-.27-.27-.09-.54-.19-.81-.27-.23-.07-.46-.14-.68-.22-.02-.07-.04-.15-.05-.22 0-.03-.01-.06-.02-.09.02 0 .04-.01.04-.03 0-.03 0-.06.01-.1 0-.09 0-.17.01-.26 0-.07.01-.15.02-.22l.03-.25c.02-.14.05-.28.07-.43l.15-.82c.07-.41.12-.82.16-1.23l.03-.33c0-.09.02-.19.02-.28 0-.15-.01-.29-.03-.44a6.005 6.005 0 0 0-.51-1.68c-.1-.21-.21-.42-.33-.62-.05-.09-.1-.18-.16-.26-.06-.09-.11-.18-.17-.26-.04-.05-.08-.11-.12-.16a.902.902 0 0 0-.09-.1c-.07-.08-.15-.16-.22-.24-.15-.16-.29-.31-.45-.46-.14-.15-.31-.27-.48-.38-.1-.06-.2-.13-.3-.19-.16-.1-.31-.2-.46-.3-.03-.03-.05-.07-.07-.11-.15-.18-.32-.33-.51-.47-.23-.17-.45-.34-.69-.49-.12-.08-.24-.15-.36-.22-.22-.13-.45-.25-.69-.34-.18-.07-.35-.12-.54-.16-.09-.02-.17-.03-.26-.05l-.43-.06a6.09 6.09 0 0 0-1.28-.03c-.17.02-.34.04-.51.07-.35.06-.69.16-1 .33l-.39.21-.39.24c-.21.13-.41.26-.62.39-.14.09-.28.18-.43.27-.12.07-.23.16-.35.23-.1.07-.2.15-.3.22-.06.05-.13.1-.19.15-.08.07-.16.13-.24.2-.14.12-.29.25-.4.4-.1.13-.19.28-.26.43-.13.3-.21.62-.26.95-.04.29-.08.57-.1.86-.02.28 0 .55 0 .83v-.02c.01.36.11.7.26 1.03.06.13.12.25.19.37.04.07.08.15.13.21l.13.19c.03.05.07.09.11.14.01.02.03.03.04.05-.03.03-.05.07-.05.12v.1c0 .03.02.07.03.1l.06.2c.04.14.09.28.14.42.1.28.2.55.32.82l.3.66c.1.21.2.41.3.62.08.16.15.32.22.48v-.01c.04.09.07.18.11.26.04.07.08.14.13.21.05.07.1.13.16.19.08.1.17.2.25.29.1.1.2.21.32.3.13.1.26.19.39.28.24.17.51.32.76.46s.51.27.77.39c.28.13.58.25.88.32.15.04.31.07.47.11.14.03.29.05.44.06.12.01.25.02.37.02.17 0 .35 0 .52-.02.29-.02.58-.02.86-.06.3-.04.6-.09.9-.14l.85-.12c.31-.05.62-.11.92-.22.16-.05.31-.12.46-.19.13-.06.25-.14.37-.21.24-.15.49-.3.71-.49.11-.09.21-.19.31-.3.09-.1.17-.22.22-.34v-.01c.02 0 .03.01.05.02.27.08.53.16.8.25.28.1.57.2.86.28.29.08.58.15.87.22.28.07.55.17.83.26.09.03.17.06.26.1.31.12.62.25.94.36.34.12.69.24 1.03.35.56.18 1.12.37 1.68.56.28.1.57.19.85.28.27.09.54.18.81.28.3.12.6.24.9.38.32.14.63.29.95.44.53.24 1.06.47 1.6.7.28.12.56.24.84.37.14.07.29.13.43.2.11.06.23.12.34.18h.01c.11.06.21.11.32.17.11.06.22.12.34.17.06.03.13.06.19.07.03 0 .06 0 .1.01.07.1.15.19.22.29.08.11.17.22.25.33.15.19.3.39.45.58.14.18.28.37.42.56.07.09.14.19.21.28.14.34.27.67.42 1.01.2.47.41.93.6 1.41.2.52.4 1.03.57 1.56.17.53.34 1.05.5 1.58.2.66.41 1.32.63 1.98-.05.21-.1.42-.14.63-.13.62-.27 1.24-.42 1.86l-.33 1.22c-.17.62-.34 1.24-.5 1.86-.16.61-.32 1.23-.45 1.85-.13.64-.26 1.28-.34 1.93-.08.65-.15 1.31-.22 1.97 0 .08-.01.17-.02.25 0-.02-.01-.05-.02-.07 0-.05-.01-.09-.02-.14-.04-.3-.07-.6-.11-.91-.02-.13-.03-.26-.04-.39 0-.07 0-.14-.02-.2-.02-.07-.05-.14-.08-.21-.02-.06-.05-.12-.07-.18-.1-.27-.19-.53-.29-.8-.09-.24-.2-.48-.31-.72-.05-.1-.1-.21-.15-.31-.06-.13-.13-.27-.19-.4v-.01c0-.01-.01-.03-.02-.04-.24-.51-.47-1.02-.7-1.53-.23-.51-.46-1.02-.73-1.51-.12-.23-.26-.45-.4-.67l-.45-.72c-.29-.46-.57-.93-.86-1.38-.29-.45-.6-.88-.9-1.32-.15-.22-.33-.42-.51-.61-.19-.19-.38-.38-.55-.58 0 0 .02.02.02.03-.05-.05-.09-.11-.14-.17-.06-.07-.12-.15-.18-.22-.03-.09-.06-.18-.1-.27-.16-.44-.33-.88-.48-1.33-.03-.1-.07-.21-.1-.31-.02-.08-.05-.16-.07-.23-.02-.07-.04-.14-.05-.22l-.03-.17-.12-.84c-.04-.29-.09-.57-.18-.85 0-.03-.02-.06-.03-.09-.09-.26-.22-.49-.39-.71-.08-.11-.17-.21-.27-.31-.09-.1-.19-.19-.3-.27-.12-.09-.24-.17-.37-.24-.28-.14-.6-.2-.92-.18-.19.01-.4.05-.58.12-.15.06-.31.14-.43.26s-.2.25-.26.41c-.05.15-.08.31-.07.47 0 .32.07.63.17.93.07.2.17.39.3.56.09.11.18.23.28.33.2.19.41.36.63.52.22.16.45.32.68.48.2.14.39.29.58.45.29.27.55.56.81.86.2.23.39.47.58.71.04.1.08.19.14.28.04.07.09.13.13.19.04.05.08.09.12.14.13.14.28.25.44.34.02.02.04.05.07.07.09.09.18.19.27.28.07.09.15.18.22.27.29.37.56.75.83 1.12.26.35.53.7.77 1.06.02.04.05.07.07.11v-.01c.01.02.02.04.04.06 0 0-.01-.02-.02-.02l.06.09a15.267 15.267 0 0 1 .63 1.12c.2.38.39.76.58 1.15.17.36.32.72.48 1.08.17.41.32.82.48 1.23.08.22.16.43.25.64.09.22.19.43.28.65.17.4.33.81.48 1.22.15.42.3.85.44 1.27.12.37.21.75.29 1.14.07.41.11.83.15 1.24.02.22.04.44.07.66-.02.44-.05.88-.05 1.32 0 .37 0 .74.01 1.11 0 .35.03.69.05 1.04.01.28.04.56.07.84.02.19.03.37.06.56.03.18.05.36.08.54.09.64.21 1.28.37 1.91.04.17.08.35.14.52.06.19.11.38.17.57l.15.45c.04.12.08.24.13.36.07.18.15.35.22.53.07.18.16.34.24.52.06.13.13.26.2.39s.14.27.22.39c.19.31.37.63.57.93.17.27.33.54.5.81.16.27.32.53.47.8.33.59.64 1.18.96 1.78.31.59.63 1.17.99 1.74.08.13.17.27.26.4.12.16.23.32.35.48.09.12.18.23.27.35.1.12.2.25.3.37.43.51.86 1.01 1.29 1.52-.01-.02-.03-.03-.04-.05.12.16.25.32.38.48.1.12.19.26.28.39.18.26.35.53.52.79.12.21.24.42.37.64.1.18.19.37.29.55.16.3.3.61.46.91l.18 1.95c.07.75.12 1.49.15 2.24.03 1.56-.02 3.13.09 4.69.08 1.07.2 2.14.31 3.2.11 1.05.19 2.09.25 3.14.03.48.06.97.1 1.45.04.53.1 1.06.15 1.6.04.46.06.92.09 1.38-.17-.46-.33-.92-.48-1.38-.16-.54-.28-1.08-.45-1.62-.16-.54-.33-1.08-.5-1.63-.15-.5-.28-1.01-.41-1.52-.13-.52-.29-1.03-.44-1.55-.16-.52-.33-1.04-.53-1.55-.2-.5-.42-1-.64-1.5-.12-.27-.23-.54-.36-.8-.11-.24-.23-.48-.36-.72-.26-.49-.53-.98-.8-1.47-.26-.47-.51-.95-.77-1.42-.53-.94-1.05-1.89-1.58-2.83-.27-.48-.53-.96-.82-1.43-.14-.24-.29-.48-.44-.71-.15-.23-.31-.45-.46-.68-.29-.43-.58-.85-.85-1.29-.29-.46-.55-.94-.86-1.39-.59-.89-1.28-1.71-1.94-2.55-.33-.42-.66-.85-.99-1.28-.16-.2-.31-.4-.47-.6-.18-.22-.38-.44-.58-.65l.04.04c-.16-.17-.32-.33-.47-.5-.08-.09-.17-.18-.25-.28-.34-.4-.65-.82-1.02-1.19-.09-.09-.18-.17-.27-.26-.09-.09-.17-.18-.26-.27l-.06-.06c-.04-.08-.08-.15-.12-.23-.05-.1-.1-.21-.15-.31-.04-.08-.07-.16-.11-.23v-.06c.02-.02.03-.05.05-.07.1-.12.21-.24.33-.35.11-.1.21-.21.31-.31.19-.21.39-.41.57-.63a6.872 6.872 0 0 0 .94-1.35c.26-.47.52-.94.69-1.46.07-.23.12-.47.18-.71.02-.07.03-.13.04-.2.01-.07.03-.14.04-.2 0-.07-.01-.13-.03-.19 0 0 .01-.02.02-.03.14-.27.24-.56.29-.86.06-.32.07-.65.08-.98 0-.29 0-.58-.03-.87-.02-.3-.04-.59-.07-.89-.05-.59-.14-1.17-.2-1.75s0-.02 0-.03c0-.05 0-.09-.01-.14-.03-.29-.09-.58-.18-.86-.11-.32-.23-.63-.36-.94-.13-.31-.31-.63-.54-.88-.13-.14-.27-.27-.44-.38-.11-.07-.22-.13-.34-.18-.28-.13-.58-.22-.87-.32-.36-.12-.72-.24-1.1-.25-.37-.01-.75.03-1.07.24a1.6 1.6 0 0 0-.42.4c-.11.15-.19.31-.26.48-.12.29-.24.59-.35.9-.05.14-.09.27-.13.41-.05.15-.09.31-.12.47v.11c-.01-.03-.03-.05-.04-.08-.13-.23-.28-.44-.44-.65-.16-.21-.33-.43-.53-.61-.11-.1-.22-.19-.34-.28-.1-.08-.21-.14-.32-.21-.21-.12-.44-.21-.68-.27-.25-.07-.52-.12-.79-.11-.25 0-.5.05-.75.08-.38.03-.77.02-1.14.13-.38.11-.75.28-1.11.45-.36.17-.72.37-1.01.64-.28.25-.53.53-.73.85a3.9 3.9 0 0 0-.35.71c-.08.26-.16.51-.21.78-.11.52-.2 1.05-.29 1.57-.04.24-.09.48-.12.72-.03.27-.04.54-.03.81.02.26.08.51.16.76.06.19.14.38.22.56-.22-.1-.46-.16-.7-.09-.11.03-.22.07-.34.1-.07.01-.15.03-.22.04-.23.01-.47.02-.7.02-.14 0-.28-.02-.42-.04-.21-.04-.42-.08-.63-.1-.23-.02-.45-.02-.67 0-.23.02-.46.06-.68.15-.21.08-.43.19-.61.33-.19.15-.37.31-.51.5-.1.15-.19.3-.26.47-.15.31-.28.64-.36.98-.08.34-.11.69-.01 1.03.06.22.16.43.29.61.1.14.21.26.32.38.11.13.22.26.32.4.15.22.29.44.45.66.15.21.32.41.5.6.02.02.04.04.05.06l.04.04.01.01c.24.26.47.54.71.8l.06.06.06.06c.17.18.34.34.52.51.33.3.71.52 1.12.68.2.08.4.15.6.21.16.15.32.3.49.44.1.08.21.17.32.24.11.08.23.15.35.22.22.13.45.23.7.31.24.08.47.15.7.24.16.07.32.15.48.21.16.07.33.12.49.19.17.07.34.16.51.21.14.05.28.08.43.1.08 0 .15.01.23.01h.06c.27 0 .55-.05.82-.09.27-.05.54-.1.8-.19.53-.2 1.04-.44 1.53-.72.47-.27.88-.62 1.29-.97.21-.19.43-.37.63-.57.18-.18.36-.36.55-.54.07-.07.15-.13.23-.19.06-.04.13-.08.19-.12.12-.06.23-.11.35-.16.1-.03.2-.07.31-.09.04 0 .07-.02.11-.02h.03c.08.01.17.03.25.05.07.07.14.13.22.18v-.13c.05.02.1.03.15.05.1.11.19.22.29.33.16.16.33.32.49.48l.31.31c.23.35.45.7.7 1.03.31.4.64.79.94 1.21.28.39.55.79.83 1.18.28.39.58.77.89 1.14.31.37.62.74.93 1.1.31.37.63.75.92 1.14.4.56.77 1.13 1.18 1.68.4.54.83 1.06 1.22 1.61.29.41.55.83.81 1.25.27.44.53.88.79 1.33.49.87.99 1.75 1.47 2.63 0-.01-.01-.02-.02-.03.33.63.68 1.25 1.01 1.88.16.3.32.61.47.92.16.33.31.66.45 1 .28.64.56 1.28.81 1.94.15.42.29.85.41 1.28.04.12.07.25.11.37-.08-.08-.15-.16-.23-.24-.28-.26-.56-.52-.85-.77 0 0 .02.02.03.02-.17-.16-.34-.31-.51-.47-.16-.15-.31-.3-.46-.45-.23-.22-.46-.43-.71-.63-.12-.1-.25-.18-.37-.27-.15-.1-.3-.19-.45-.28-.27-.16-.56-.31-.84-.45-.29-.14-.57-.28-.86-.43h-.01c-.2-.31-.42-.61-.63-.92-.01-.02-.02-.03-.03-.05 0 0 0 .01.01.02-.07-.1-.13-.2-.2-.3-.1-.16-.2-.31-.3-.46l-.3-.42c-.16-.21-.31-.42-.48-.63-.18-.22-.36-.43-.55-.64-.34-.38-.69-.75-1.07-1.09-.19-.17-.39-.35-.6-.5-.11-.08-.22-.17-.34-.24a6.019 6.019 0 0 0-1.08-.54c-.25-.1-.5-.19-.76-.27-.06-.02-.12-.03-.19-.05-.06-.01-.12-.03-.18-.04-.07-.01-.13-.03-.2-.04-.07 0-.15-.02-.22-.02a6.45 6.45 0 0 0-.76-.04c-.52 0-1.03-.03-1.55-.05-.53-.02-1.07-.03-1.6-.05-.51-.01-1.01-.04-1.52-.08h-.1c-.2-.02-.4-.04-.59-.05h-.09.01c-.44-.04-.89-.05-1.33-.06-.2 0-.4 0-.59-.02-.21-.02-.42-.03-.63-.05-.11-.02-.22-.03-.33-.05-.12-.02-.24-.05-.36-.07-.19-.04-.37-.09-.56-.14-.06-.02-.12-.04-.18-.05a.349.349 0 0 0-.33.12l-.06.09c-.01.03-.02.07-.03.11 0 .06 0 .13.02.19.03.13.08.25.14.37.11.21.26.4.4.59.08.1.16.21.24.31.15.2.31.4.47.6.34.42.65.86.97 1.29.16.22.31.44.47.66.15.21.3.43.45.64s.31.42.46.64l.48.63c.31.41.62.82.94 1.22.45.56.95 1.07 1.55 1.47.18.12.37.22.55.33l.33.18c.14.07.28.14.43.21.12.06.25.11.37.16.24.11.48.2.74.26.3.07.61.11.92.11h.17c.36-.01.72-.06 1.07-.13.16-.03.31-.07.47-.11.1-.02.2-.05.31-.08.14-.04.27-.07.41-.12h-.01.02c.14-.04.28-.09.42-.13.2-.07.41-.15.61-.23.24-.09.48-.19.71-.28.4-.16.82-.29 1.23-.43.14-.04.29-.09.43-.12.13-.03.25-.05.38-.08l.82-.12c.26-.03.52-.05.78-.07h.49c.14 0 .29.01.43.02h.07c.19.1.38.2.56.31.18.11.36.22.53.34.19.13.38.27.57.41.18.14.35.29.54.42.4.29.79.6 1.17.92.09.08.17.16.26.24.06.06.13.11.19.18.09.09.17.19.26.28l.18.21c.04.04.07.08.12.1.05.02.1.04.15.04 0 .03.02.06.03.09.06.24.12.48.19.72.07.26.14.51.22.77.17.55.34 1.1.51 1.66.15.52.27 1.05.42 1.57.16.54.35 1.06.54 1.59.2.55.4 1.09.58 1.65.01.04.02.08.03.11 0 .67.01 1.34.03 2.01.03.82.11 1.64.15 2.47 0 .72-.04 1.43-.1 2.14-.06.73-.12 1.46-.2 2.18-.05.41-.11.82-.19 1.23-.08.38-.17.76-.23 1.14-.15.87-.26 1.75-.35 2.63l-.06.56c-.04.51-.03 1.03.01 1.54.04.48.07.97.16 1.45.08.44.29.86.63 1.15.24.2.54.34.86.34h.1c.44-.04.8-.32.99-.71.16-.34.2-.73.21-1.1 0-.26-.02-.53-.05-.78-.05-.47-.14-.94-.2-1.41-.05-.44-.1-.87-.16-1.31-.06-.43-.11-.87-.13-1.31-.01-.79-.06-1.57-.09-2.36v-.14c.07-.46.11-.93.15-1.4l.12-1.39c.08-.98.18-1.98.1-2.97-.04-.46-.09-.92-.11-1.38-.03-.45-.05-.91-.06-1.36 0-.35-.02-.69-.03-1.04l.12-.94c.14-1.12.28-2.25.43-3.37.15-1.09.41-2.16.66-3.22.05-.19.09-.38.14-.57l.03-.12c.1-.12.19-.24.29-.36l.05-.05c.11-.09.23-.17.35-.25.08-.06.17-.11.25-.17.2-.12.4-.25.6-.37.2-.12.4-.23.59-.35.2-.12.4-.24.59-.36.2-.13.4-.27.6-.41.2-.14.39-.31.59-.46.21-.17.43-.33.65-.49.45-.31.92-.59 1.33-.94.11-.09.21-.19.32-.28.1-.09.19-.19.28-.29.18-.19.35-.38.54-.57l.03-.03c.14.04.27.07.41.09a3.86 3.86 0 0 0 1.32.02c.27-.03.54-.09.79-.18.27-.09.52-.21.77-.33a2.524 2.524 0 0 0 .93-.77c.09-.12.16-.25.23-.39.09-.17.15-.37.17-.56.03-.32-.11-.66-.31-.9a1.26 1.26 0 0 0-.76-.42c-.25-.04-.51-.03-.75.04-.15.04-.29.09-.42.16l-.36.21c-.21.14-.41.3-.61.46-.21.17-.43.34-.62.53-.2.2-.39.4-.57.62-.16.2-.33.4-.5.6-.2.22-.41.44-.62.66-.2.21-.4.43-.62.62-.05.04-.09.08-.14.12-.1.08-.21.16-.31.24-.11.08-.22.16-.33.23l-.66.45c-.22.15-.43.32-.64.49-.19.16-.38.32-.58.48-.22.18-.44.35-.67.51-.42.31-.83.63-1.24.96-.22.18-.44.35-.66.53-.03.02-.06.05-.09.07.08-.26.15-.52.24-.77.18-.53.37-1.05.57-1.57.2-.52.39-1.05.57-1.58a19 19 0 0 1 .87-1.51c.18-.27.35-.55.53-.82v-.01c.2-.28.39-.55.58-.84.18-.24.35-.49.51-.74.02-.03.04-.06.06-.08.07-.04.13-.08.2-.12.07-.05.13-.1.2-.15.09-.07.18-.13.27-.2.18-.15.37-.3.54-.45.35-.31.7-.62 1.02-.96.22-.24.43-.49.63-.75.17-.22.34-.45.51-.67.18-.24.36-.48.56-.71.2-.24.41-.48.62-.72.04-.04.07-.08.11-.12l-.02.02c.01-.01.02-.02.03-.04-.01.01-.02.02-.03.04.23-.26.47-.52.7-.78.24-.26.46-.53.68-.8.19-.24.36-.49.53-.75.16-.25.31-.51.46-.78.09-.1.19-.2.27-.3.14-.17.28-.35.42-.51 0 0 .02-.02.02-.03 0 0-.01.02-.02.02.02-.02.03-.03.04-.05l.06-.06c0-.01.02-.02.03-.03l.03-.03.01-.01a18.433 18.433 0 0 1 1.23-1.23c.05-.04.1-.09.15-.13 0 0 .02-.02.03-.02l-.02.02 1.14-.93c.19-.15.38-.31.56-.47.19-.16.38-.32.56-.49.09-.09.18-.17.26-.26.09-.09.18-.19.27-.29l.25-.28a11.38 11.38 0 0 0 1.03-1.47c.12-.21.24-.42.34-.64.11-.23.21-.45.29-.69.07-.19.14-.39.2-.59.06-.21.12-.42.17-.63.1-.41.2-.82.31-1.23l.21-.73c.07-.21.14-.43.2-.64.04-.13.07-.26.11-.39.03-.12.05-.24.08-.36.05-.23.06-.47.06-.71 0-.12 0-.24-.02-.35zm-16.86 2.02-.08-.07s-.09-.08-.14-.11c-.03-.03-.06-.05-.09-.08l-.18-.15c-.15-.11-.31-.22-.46-.32l-.07-.05-.09-.06c-.33-.22-.66-.46-.99-.7h.01c-.07-.05-.15-.11-.22-.17-.08-.06-.15-.12-.22-.17-.05-.04-.1-.07-.14-.11-.15-.12-.29-.23-.4-.33-.3-.24-.65-.53-.98-.84l-.06-.06c-.07-.07-.13-.14-.2-.21-.1-.11-.2-.22-.3-.34-.12-.14-.23-.29-.35-.43l-.16-.2c-.16-.2-.33-.4-.5-.58-.17-.19-.35-.39-.51-.6l-.05-.06c-.08-.11-.16-.21-.23-.33-.08-.13-.17-.26-.25-.39l-.05-.08c-.06-.11-.13-.23-.19-.34-.07-.14-.14-.28-.2-.42-.16-.38-.32-.77-.45-1.11-.07-.19-.15-.37-.22-.56-.05-.14-.1-.29-.14-.43l-.02-.07c-.03-.1-.05-.21-.07-.31l-.03-.13v-.09c-.02-.09-.03-.17-.05-.26l-.02-.14c-.04-.32-.08-.64-.09-.97 0-.32.03-.65.07-.97.04-.34.09-.69.15-1.1.08-.48.16-.96.24-1.43l.09-.5.05-.3.05-.3c.02-.11.03-.21.05-.32l.02-.15c.04-.32.08-.64.1-.96v-.04c0-.1.01-.21.02-.31v-.23c0-.1.01-.2.02-.3 0-.34.02-.69.02-1.03v-1.37c-.01-.82-.03-1.67.05-2.5.02-.13.04-.26.07-.38.05-.2.12-.39.19-.58l.02-.04c.26-.64.54-1.26.77-1.73l.16-.33c.09-.18.18-.37.26-.55.07-.14.13-.28.2-.43a.3.3 0 0 1 .04-.08c0 .01 0 .02.01.03.03.06.06.13.08.19.08.18.17.36.25.54 0 .01 0 .02.02.03l.18.41.1.24c.08.18.16.37.24.55l.04.1.12.27.09.18.14.28c.04.08.09.17.14.25l.06.1c.13.22.26.43.39.62.22.31.47.59.74.86.08.08.17.16.26.24l.1.09c.11.1.23.2.34.3.13.12.27.23.4.35l.24.21c.14.13.29.26.44.39l.25.22c.17.15.34.3.52.45.24.21.47.42.73.66.15.14.27.28.38.42.09.12.18.24.26.38.08.14.15.28.22.42v.02c.09.18.15.36.2.53.05.18.09.36.12.53s0-.01 0-.01c0 .04 0 .07.01.11v.06c.02.15.03.3.04.48 0 .81-.03 1.64-.06 2.43-.02.41-.04.82-.05 1.23V93c-.03.55-.04 1.1-.07 1.64-.03.7-.08 1.35-.13 1.98l-.04.29-.06.44c-.02.16-.05.32-.07.48l-.02.15c-.07.48-.13.96-.19 1.42l-.02.13c-.04.3-.07.6-.11.9l-.05.33c-.03.21-.06.41-.08.62-.07.56-.12 1.14-.15 1.78l-.03-.12c-.03-.12-.07-.24-.11-.36-.11-.36-.23-.73-.37-1.12-.13-.36-.29-.72-.44-1.07-.06-.15-.13-.3-.19-.45-.2-.47-.39-.97-.57-1.5l-.11-.3c-.15-.42-.3-.86-.47-1.29-.19-.48-.42-.95-.7-1.46-.12-.22-.25-.44-.38-.65l-.05-.08c-.15-.26-.28-.54-.39-.78 0 .3.02.55.05.78.03.23.08.46.12.65.1.46.23.9.35 1.31.1.34.23.69.35 1.02.06.18.13.35.19.53.17.48.37 1.06.59 1.63.12.32.26.65.39.96.04.09.07.18.11.27.04.09.08.18.11.27.11.26.2.52.29.78.09.26.17.5.24.73.06.22.12.44.17.67l.15.72c.04.21.08.42.12.64.04.22.08.44.11.67v.03l.02.09zm-2.49 9.04c-.46-.33-.92-.69-1.36-1.08l-.3-.3c-.12-.14-.2-.24-.27-.35-.05-.09-.1-.17-.14-.26-.05-.11-.09-.22-.13-.33-.03-.09-.05-.19-.07-.28v-.06c-.02-.09-.03-.17-.03-.25v-.18c0-.06.02-.13.03-.19.02-.06.03-.12.05-.18.02-.04.04-.09.06-.13 0-.02.02-.03.03-.05.02-.02.03-.04.05-.06 0-.01.02-.02.03-.03.02-.01.03-.03.05-.04.03-.02.05-.03.07-.04.05-.02.1-.04.14-.06.08-.02.16-.04.25-.06.05 0 .09-.01.14-.02s.07 0 .09 0c.03 0 .05 0 .08.01.03 0 .05.01.07.02.03 0 .05.02.07.03.02.01.04.02.06.04.03.02.06.04.08.06l.11.11.1.13c.03.04.05.09.08.13l.02.03.02.05.03.07c.07.14.11.28.16.42.1.32.17.61.23.9.03.19.06.4.09.61.03.21.05.44.07.68l.06.63zm-6.13-45.86v-.02c.09-.21.19-.42.28-.63.08-.18.16-.35.23-.53l.05-.12c.03-.07.06-.15.1-.22l.03-.06.03-.06s.04-.09.06-.13c0-.02.02-.04.03-.06.03-.07.06-.13.1-.2l.05-.1c.03-.05.06-.11.08-.16l.04-.08.02-.04v.03l.04-.09.1-.18c.17-.32.35-.63.52-.95l.12-.22c.1-.18.21-.36.32-.54v-.02c.1-.15.21-.3.31-.45l.02-.03.03-.04c.06-.08.12-.16.19-.23.07-.09.15-.17.23-.25l.14-.15c.1-.1.2-.21.3-.31l.04-.04.04-.04.06-.06.02-.02.02-.02v-.02c.16-.16.31-.32.46-.49.13-.15.26-.29.4-.44.11-.11.21-.21.32-.31.09-.09.19-.17.29-.25l.07-.05c.08-.06.16-.13.25-.18.1-.07.21-.14.31-.21l.07-.04c.09-.05.18-.11.28-.16.12-.06.25-.12.37-.18.21-.09.41-.18.61-.25.16-.06.33-.13.5-.19l.09-.03c.11-.04.23-.08.34-.13.28-.11.58-.22.87-.31.14-.04.28-.08.43-.11l.45-.09h.01c.03 0 .05 0 .08-.01.22-.04.45-.07.67-.1.26-.03.53-.07.79-.1l.14-.02c.38-.05.78-.09 1.17-.13.47-.04.89-.1 1.3-.17h-.01.08c.24-.05.48-.09.72-.14.47-.1.89-.21 1.29-.33.25-.07.5-.16.74-.24.17-.06.34-.11.5-.17h-.02c.02 0 .04-.01.06-.02.09-.03.19-.06.29-.08 0 .01-.01.02-.02.03-.03.05-.07.1-.1.15-.05.07-.09.14-.14.21-.05.08-.11.16-.16.25-.06.09-.12.19-.18.28l-.22.34c-.16.24-.33.49-.48.74-.12.2-.25.39-.36.6-.11.19-.22.38-.32.57-.11.19-.22.39-.33.58-.11.18-.22.36-.33.53l-.05.07-.05.07c-.09.12-.18.24-.28.36l-.11.14-.13.16c-.09.11-.17.22-.25.33-.13.18-.27.35-.41.52l-.09.11-.33.39-.02.02-.04.05c-.15.16-.31.3-.48.44h-.02l-.04.04-.03.02c-.08.06-.15.12-.23.18-.09.07-.18.14-.26.21-.19.15-.35.3-.51.44-.1.09-.2.18-.29.27-.21.2-.42.4-.65.59-.09.07-.17.12-.25.18-.08.06-.17.13-.25.18-.12.07-.25.14-.4.21-.15.06-.31.12-.49.18-.18.05-.35.1-.51.15l-.42.12c-.31.09-.62.21-.91.32-.05.02-.1.04-.14.05l-.18.07c-.42.16-.8.3-1.17.41-.32.1-.64.18-.95.26-.47.12-.93.23-1.29.31l-1.25.27h-.06c-.18.04-.37.07-.55.09-.25.03-.47.05-.68.06-.22.01-.43.03-.65.05l-.31.03h-.04l.09-.09c.31-.3.64-.6.95-.91l.12-.12c.1-.11.21-.21.32-.31.14-.13.29-.27.47-.41.25-.2.51-.39.79-.58l.24-.16c.19-.13.38-.25.57-.39.38-.27.71-.51 1.01-.74.18-.14.36-.27.54-.4.14-.1.29-.2.43-.3l.08-.05.66-.39c.34-.2.69-.41 1.03-.63.19-.12.37-.26.55-.4.17-.13.33-.28.5-.43.12-.11.24-.21.35-.32l.12-.11c.15-.14.3-.27.45-.4.13-.11.26-.21.4-.31.11-.08.24-.16.35-.24l.04-.02.24-.15c-.06.03-.12.06-.18.08l-.3.15c-.18.09-.38.2-.58.32-.16.09-.32.2-.48.3l-.07.05c-.15.09-.29.19-.44.29l-.09.06c-.13.08-.25.17-.38.25l-.12.07c-.21.13-.42.25-.62.36-.08.04-.16.09-.23.13-.15.08-.3.17-.46.25-.12.06-.23.12-.35.19-.2.11-.39.21-.58.33-.18.11-.36.23-.58.38-.17.12-.34.25-.49.36l-.51.39c-.37.27-.69.51-1 .72l-.23.16c-.27.18-.55.37-.81.58-.21.17-.38.31-.54.45-.14.12-.27.26-.4.39l-.03.03c-.29.3-.61.62-.93.92 0-.01.01-.03.02-.04zm-2.24-4.86c-.05-.15-.1-.3-.16-.47-.02-.05-.05-.11-.07-.16l-.04-.08c-.02-.05-.05-.1-.08-.15v-.02l-.02-.02c-.08-.15-.17-.29-.25-.41-.06-.09-.13-.17-.19-.26l-.07-.09c-.07-.09-.14-.18-.22-.27l-.09-.11c-.16-.2-.32-.41-.48-.63l-.12-.18c-.13-.18-.25-.36-.35-.52l-.21-.33-.11-.17-.11-.17-.07-.11c-.12-.18-.25-.38-.38-.55l-.15-.18h.01c-.1-.11-.2-.23-.31-.36l-.14-.16-.04-.05-.07-.09c-.06-.07-.11-.15-.17-.25-.08-.13-.15-.27-.21-.42-.07-.15-.12-.32-.18-.47l-.02-.05-.05-.17-.05-.16v-.01c0-.03-.02-.06-.02-.09l-.02-.07v-.05l-.04-.13v-.07l-.03-.18-.03-.18v-.02c0-.05-.01-.09-.01-.14v-.07l-.02-.11c0-.05-.01-.11-.02-.17 0-.09-.01-.18-.02-.27 0-.06 0-.11-.01-.17V53.8l.03-.36c.01-.34.04-.68.07-1.01l.02-.2v.03l.02-.19c.01-.12.03-.24.04-.36 0-.05.02-.1.03-.16v-.06l.01-.01c.02-.09.03-.18.05-.28.02-.12.05-.24.07-.36l.03-.15.06-.27c.01-.06.03-.11.04-.17v.02c.04-.17.09-.34.14-.54.05-.19.11-.4.18-.63.1-.35.22-.77.32-1.2.06-.25.11-.52.16-.86.03-.17.06-.35.08-.52 0-.05.01-.11.02-.16 0-.05.01-.11.02-.16v-.12c.03-.12.04-.24.05-.37v-.1c.02-.15.03-.3.04-.45.02-.19.03-.39.05-.58l.03-.34c.03-.22.06-.45.11-.68.04-.16.09-.3.14-.44.13-.31.29-.61.44-.9.07-.11.13-.21.19-.29l.03-.04c.1-.12.21-.24.31-.36l.33-.36.14-.15.14-.15.08-.08c.08-.09.17-.17.24-.27.12-.14.22-.27.31-.39.04-.05.07-.1.1-.15v.05l.02.04c.03.17.08.34.13.51.05.16.12.33.2.49.08.16.17.32.28.47l.05.07c.07.1.14.21.22.31l.06.08c.08.11.16.21.24.31.2.25.41.5.61.74.08.1.16.21.24.32.07.1.14.21.21.32.07.12.13.25.2.38.06.12.12.25.18.37l.05.11v.04l.02.05.02.05.07.15.04.09.05.11c.22.51.45 1.04.73 1.54.15.28.32.56.48.83v.02s.06.09.09.13l.02.03v.02l.05.07c.02.04.05.09.07.13.03.07.07.14.1.21.03.07.06.13.09.2l.07.18.03.07s.03.08.05.12l.07.19.05.16v.03-.03l.03.14c.03.09.06.19.08.28.02.09.05.19.07.28l.04.15c.06.24.1.49.15.72v.06c.07.38.12.73.15 1.07.02.17.03.33.04.5 0 .17.02.35.02.54 0 .16 0 .33.01.5v.95c0 .12-.02.24-.02.36v.07c0 .09-.02.17-.03.26v.12c-.03.1-.05.19-.06.29l-.03.16c-.02.1-.04.19-.06.28v.07c-.06.21-.11.42-.16.62l-.02.09-.02.09c-.04.15-.08.31-.13.46-.05.16-.1.31-.16.47-.09.23-.21.46-.33.69-.09.17-.19.31-.29.45-.06.08-.13.16-.2.24l-.03.04-.15.18a6.2 6.2 0 0 0-.54.7c-.1.15-.19.32-.27.5-.09.18-.17.38-.25.59-.09.25-.18.49-.27.74-.06.17-.13.34-.19.5-.06.17-.12.34-.19.5-.06.16-.15.38-.25.6-.08.18-.18.37-.3.57s-.02.03-.02.03v.03l-.04.04-.03.05-.02.03v-.02.01c-.02.03-.04.07-.05.1l-.11.21c0-.04.01-.07.01-.11.02-.14.03-.29.05-.43.03-.27.04-.56.03-.89 0-.13 0-.27-.01-.4 0-.11 0-.22-.01-.33.05-.28.1-.52.16-.76 0-.03.01-.05.02-.08-.07.11-.13.23-.18.34v-.69c0-.23.02-.45.03-.68 0-.15.01-.3.02-.45.03-.48.06-.96.1-1.45l.06-.88c.02-.28.02-.57.02-.85v-.04c0-.63-.04-1.25-.11-1.82-.04-.3-.09-.6-.15-.88-.02-.11-.05-.22-.08-.33-.04-.17-.08-.33-.11-.5-.06-.3-.11-.62-.16-.92-.05-.28-.09-.57-.15-.85-.11-.59-.23-1.18-.35-1.77l-.02-.1c-.02-.11-.04-.22-.07-.33-.04-.15-.09-.31-.16-.47a6.03 6.03 0 0 0-.38-.71v.08c-.03.23-.03.48 0 .79.02.26.06.51.11.76l.03.16.3 1.73v-.03c.03.24.07.48.1.72.04.26.07.52.11.78.04.28.1.57.16.85.04.19.08.39.11.58.03.23.07.52.1.8.02.26.04.53.05.84s0 .02 0 .02v.3c0 .63-.02 1.21-.07 1.77-.05.52-.1 1.18-.14 1.8-.02.31-.02.61-.02.86 0 .29 0 .6.01.91v.07c.01.26.03.51.05.77v.05c.02.27.04.55.05.82 0 .38-.01.74-.03 1.05v-.04c-.04-.14-.08-.28-.13-.43zm-1.05-30.16c0-.14.01-.27.02-.41v-.21c.01-.19.03-.37.04-.56.02-.17.04-.34.07-.51.01-.05.03-.09.04-.14s.02-.09.04-.14c.03-.08.06-.15.09-.22.05-.09.11-.19.18-.29.04-.06.09-.12.13-.18l.03-.04s.04-.06.07-.09l.08-.1.08-.1c.21-.22.42-.43.64-.63l.09-.07.02-.02.02-.02.03-.02c.09-.07.19-.16.31-.23.03-.02.06-.04.09-.05.02-.01.05-.02.07-.03h.03-.02c.03 0 .05-.01.08-.02s.08-.01.11-.01h-.03.2l.03.03.03.02.02.02.02.02v.04s.03.06.04.09V30v.13c0 .05-.01.1-.02.15l-.06.22c-.08.19-.16.38-.24.53l-.04.08c-.04.06-.07.13-.11.19l-.17.27c-.16.22-.33.46-.52.69l-.11.13c-.23.28-.46.56-.68.84l-.1.12c-.21.25-.42.52-.61.79 0-.09.01-.18.02-.26zm-7.32 2.4v.05s-.01.05-.01.07l-.06.41c-.02.13-.05.25-.07.37-.02.12-.05.26-.07.39-.02.14-.03.28-.04.42v.18c-.07-.2-.14-.38-.21-.56-.1-.25-.21-.51-.32-.76-.06-.13-.11-.25-.15-.36-.04-.11-.08-.22-.12-.32a5.64 5.64 0 0 1-.18-.71v-.05l-.02-.03c0-.05-.01-.1-.02-.15v-.21s.02-.03.03-.05c.01-.03.03-.05.05-.08l.01-.02.02-.02c.02-.01.03-.03.05-.04a.3.3 0 0 1 .08-.04h.03l.03-.02.12-.03h.14l.02.01c.02 0 .04.02.06.03.05.02.09.05.13.08.02.02.05.04.07.06l.06.06c.02.03.05.06.07.09l.12.21.06.15c.03.11.06.23.08.35.02.1.03.2.04.3v.21zm-2.2-10.26c.03-.23.07-.45.09-.65l.03-.31c.02-.19.04-.39.07-.58.04-.31.1-.61.16-.88v-.03l.01-.01v-.04l.01-.04c.08-.36.16-.72.25-1.06.04-.15.08-.31.13-.48.05-.17.11-.34.17-.52v.03s-.01 0 0 0a28.077 28.077 0 0 1 .68-1.68c.11-.25.23-.5.37-.78.14-.28.29-.57.46-.91v.01s.03-.05.05-.08l.06-.11c.17-.32.35-.65.54-.96l.1-.16c.09-.15.18-.31.28-.47.12-.19.25-.37.37-.56.05-.07.1-.13.16-.2.05-.07.1-.14.16-.2.09-.11.19-.22.29-.33l.02-.02.07-.07c.06-.06.11-.12.17-.17l.14-.12.14-.12.19-.15.08-.07c.05-.04.11-.08.16-.11.03-.02.05-.04.08-.06.15-.11.31-.21.47-.31l.04-.02.04-.02h-.02l.11-.05c.16-.09.33-.18.5-.27.2-.11.41-.21.62-.3.16-.07.32-.15.48-.22.26-.12.52-.23.78-.35.11-.05.24-.11.36-.16.03-.01.05-.02.08-.03.03-.01.05-.02.08-.03.14-.06.28-.13.42-.18h.03c.04 0 .08 0 .12-.01h.31v1.04a3.015 3.015 0 0 0 .15.92c.02.08.04.16.06.25.01.08.02.15.02.23 0 .19-.01.37-.03.58l-.03.33c-.04.32-.07.58-.11.82v.05c-.03.16-.06.32-.09.47-.03.15-.06.29-.09.41l-.18.84-.21.99c-.07.32-.15.64-.23.97l-.08.33-.02.06c-.1.41-.21.84-.34 1.25l-.02.06-.03.07c-.06.14-.13.28-.19.4-.15.26-.31.52-.49.77l-.03.05-.04.06c-.11.15-.23.29-.37.45-.11.11-.23.23-.38.35-.17.13-.34.27-.52.4-.19.13-.38.26-.56.37-.16.09-.31.17-.45.24-.18.08-.38.15-.57.23s-.37.16-.57.23c-.3.09-.6.16-.89.23l-.88.21c-.13.03-.27.07-.42.11s-.3.09-.45.14c-.14.05-.28.1-.43.16-.14.06-.29.12-.43.19-.26.13-.53.28-.8.46l-.27.18c.21-.34.43-.68.66-1 .25-.34.49-.64.72-.91.2-.23.41-.45.61-.67l.18-.19c.2-.21.37-.41.53-.6.18-.21.34-.43.48-.64.32-.46.6-.92.83-1.38.07-.15.14-.31.21-.47.04-.08.07-.16.11-.24.1-.22.21-.45.31-.67l.05-.1c.2-.42.45-.92.71-1.42.05-.1.11-.19.16-.29.04-.07.08-.13.12-.2l.05-.09c.04-.06.08-.13.12-.19l.05-.08c.03-.05.07-.1.11-.16l.06-.08c.18-.24.36-.47.53-.68.07-.09.15-.18.22-.27l.29-.35.24-.3.24-.3c.18-.23.35-.42.52-.6l.07-.07.07-.07-.02.02c.18-.19.36-.37.56-.54.15-.13.26-.31.34-.52a.95.95 0 0 0-.59.25c-.09.07-.17.15-.25.23l-.02.02c-.1.09-.2.19-.29.29-.19.19-.37.4-.55.61-.13.15-.25.31-.38.46l-.13.17c-.16.2-.32.39-.48.58l-.02.02c-.16.19-.33.39-.49.6l-.28.37c-.08.12-.16.23-.24.35-.07.1-.13.21-.2.32l-.04.08c-.05.09-.1.17-.15.26l-.02.04s-.04.07-.06.11v-.03c-.02.06-.05.12-.08.18v-.03.04c-.09.17-.17.34-.26.51l-.08.16-.14.27-.18.36c-.14.27-.24.49-.33.69-.05.11-.1.23-.16.34l-.15.3-.02.04-.12.23v-.03.03s0-.02.01-.03c-.03.05-.06.11-.09.16-.08.15-.17.28-.25.41-.11.17-.23.35-.35.51l-.03.04-.09.12c-.05.06-.09.12-.14.18-.09.11-.17.22-.26.33-.15.19-.32.37-.48.54l-.04.04-.56.62c-.15.17-.3.36-.44.54l-.07.09c-.08.1-.15.2-.22.3l-.23.32-.09.14v.01c0-.04.02-.08.02-.12zm-9.96 4.65s-.09.04-.13.06l-.09.04c-.1.04-.2.07-.3.11-.33.1-.64.17-.94.22h.02-.04.02c-.24.04-.5.06-.82.08-.28.02-.55.03-.83.05h-.39c-.14 0-.27-.01-.4-.02-.43-.05-.86-.12-1.23-.18-.12-.02-.24-.05-.35-.07l-.83-.15-.67-.12-.1-.02-.1-.02s-.09-.02-.13-.04l-.06-.02c-.08-.02-.17-.05-.25-.09L9 30.47l-.12-.05c-.27-.11-.54-.22-.8-.35-.19-.1-.36-.23-.54-.34l-.04-.03-.04-.03-.23-.17-.25-.18-.24-.18-.11-.09-.15-.12-.15-.12-.3-.23c-.13-.1-.26-.21-.4-.33s-.27-.24-.42-.37l-.02-.02c-.09-.09-.19-.18-.27-.28l-.18-.21-.04-.04-.14-.16-.06-.07-.36-.42a25.3 25.3 0 0 0-.68-.78l-.11-.13c-.13-.15-.26-.29-.4-.43l-.17-.18-.17-.18-.19-.19-.1-.1c-.24-.24-.5-.47-.75-.7-.14-.12-.27-.24-.41-.37-.16-.16-.3-.3-.44-.47l-.06-.08h.07c.11 0 .23.02.34.03.18.01.41.03.64.03h.22c.12 0 .25-.01.38-.03l.41-.06c.24-.04.47-.1.7-.15h.06l.06-.03c.13-.03.26-.06.38-.09l.38-.09c.27-.06.54-.12.79-.17l.16-.03.13-.02c.06 0 .12-.01.18-.02h.81l.17.02c.06 0 .13.02.19.03.03 0 .06.01.09.02.14.02.27.05.41.08l.13.03.16.04c.2.05.4.09.59.14.55.13 1.08.27 1.58.41l.11.03c.23.06.46.13.69.2.26.08.52.17.78.26.16.06.32.12.48.19.17.07.34.15.5.23.26.14.48.27.68.4.11.07.21.14.32.21.1.07.2.13.29.2l.09.07c.1.07.19.14.28.21.12.1.23.2.35.3.16.15.3.3.43.46.08.11.18.23.28.37.09.13.17.26.25.39.01.02.01.02.02.03.1.16.2.33.31.5.11.17.23.34.35.51l.18.24c.05.07.11.14.16.21.12.16.24.33.35.51.11.18.21.34.29.5.11.21.21.41.31.62l.06.11c.11.23.22.45.33.68h-.02l-.11-.08-.04-.02c-.4-.28-.84-.56-1.43-.92-.51-.3-1.01-.58-1.49-.83-.24-.12-.48-.24-.71-.34-.29-.13-.54-.25-.78-.37l-.23-.13c-.25-.14-.51-.29-.78-.41-.11-.05-.22-.1-.32-.15-.06-.02-.11-.05-.17-.07-.12-.05-.23-.11-.35-.16l-.15-.07h-.02c-.03-.02-.07-.03-.1-.05-.14-.08-.28-.17-.42-.26-.11-.07-.22-.14-.34-.21l.18.33c.06.1.13.2.2.29.08.09.16.18.26.25.09.07.19.14.3.19.13.06.26.12.39.17.07.03.15.06.22.09.2.09.4.18.62.3l.11.06c.29.15.58.31.88.46l.13.06c.29.14.59.28.88.43h-.01c.13.07.25.14.38.21.16.09.33.2.49.3.11.07.22.13.33.2.35.22.71.46 1.08.71h-.01s.04.03.06.04l.07.05.03.02s-.02 0-.03.01zm3.85-7.98c-.08-.12-.17-.23-.25-.35l-.08-.11c-.17-.24-.35-.49-.58-.83-.12-.18-.25-.37-.37-.56-.17-.26-.34-.53-.52-.78-.09-.13-.18-.26-.28-.39-.07-.1-.14-.2-.22-.3-.14-.2-.28-.41-.41-.62l-.02-.03c-.06-.1-.12-.2-.17-.3-.05-.1-.11-.21-.16-.31v-.03l-.05-.09c-.04-.08-.07-.16-.1-.24v-.02c-.04-.1-.08-.2-.11-.31v-.02.03-.03l-.09-.32c-.03-.11-.05-.22-.07-.34-.02-.11-.03-.2-.04-.3 0-.1-.02-.19-.02-.29v-.49c0-.17 0-.35.01-.54 0-.12 0-.24.02-.36v-.12c0-.08.01-.16.02-.25 0-.07 0-.13.01-.2 0-.06.01-.13.02-.19 0-.06.01-.12.02-.19 0-.06.01-.13.02-.19l.03-.21c.02-.14.04-.28.07-.42l.06-.31c.07-.36.13-.74.21-1.1v.01c.01-.05.02-.09.03-.13.04-.15.09-.31.14-.46.09-.25.21-.52.38-.86l.07-.15.15-.3.09-.16.17-.31c.05-.09.1-.18.16-.27l.06-.1.03-.04c.07-.11.13-.21.2-.32l.1-.14.2-.29c.08-.09.15-.19.23-.28.09-.11.18-.23.28-.34l.1-.12c.06-.08.13-.15.2-.23l.29-.31.09-.08c.09-.09.19-.19.29-.28l.47-.42.29-.25c.2-.18.41-.35.61-.53.4-.36.79-.74 1.15-1.09l.34-.33c.07-.06.13-.13.2-.19l.11-.1c.15-.14.31-.28.46-.41l.11-.1c.06-.05.12-.09.18-.14l.05-.04.05-.04.12-.09.12-.08.37-.25.21-.13.45-.27c.09-.05.18-.11.27-.16.23-.14.47-.28.7-.42l.05-.03c.09-.06.19-.12.28-.18.12-.09.25-.17.37-.27.1-.07.19-.15.28-.23l.02-.02s.1-.08.15-.13v.03c0 .05.01.11.01.16v.34c0 .21.02.4.04.59.01.13.03.26.04.39 0 .06.02.13.03.19l.02.09v.07c.02.07.03.13.04.2.03.13.06.26.08.39.01.07.03.13.05.2v.05l.03.1c.02.07.03.14.05.2l.04.13c.03.11.07.22.1.33.02.07.05.14.07.2l.03.09.03.08.03.09.03.09.03.08.03.08c.06.14.11.27.17.41.09.21.18.43.26.64.07.17.13.35.19.52v.03l.04.08.02.08.02.06.03.12.02.09.09.41v-.02s.01.08.02.12c.02.17.04.34.05.53v.49c0 .16-.02.32-.02.48v.14c-.02.12-.03.23-.05.34l-.04.28-.04.28c-.03.23-.08.46-.12.68-.02.1-.04.2-.06.29-.07.27-.14.52-.23.75l-.18.45-.05.11c-.03.08-.07.15-.1.23-.03.07-.07.14-.1.21-.07.15-.14.29-.22.44-.05.09-.1.19-.15.28l-.1.19c-.05.1-.11.18-.15.27-.05.09-.11.19-.16.28-.03.06-.07.11-.11.17l-.05.08-.04.06c-.04.06-.08.12-.12.19l-.02.02s0 .01-.01.02l-.06.09-.06.08-.02.03-.04.06h-.01l-.03.04v.04l-.03.02-.02.02v.02c-.07.08-.14.17-.21.25-.04.05-.08.1-.12.16l-.08.1c-.07.08-.13.17-.2.26l-.27.37c-.14.19-.26.38-.39.57l-.03.04-.03.04-.05.08-.03.05c-.11.18-.23.35-.34.53-.15.23-.31.45-.47.68-.22.3-.45.59-.71.91l-.1.12c-.08.09-.16.19-.23.28l-.09.12c-.08.1-.16.21-.24.31s-.03.04-.05.06l-.06.08-.11.16-.02.03-.39.57c-.08.13-.17.25-.26.38-.17.25-.34.49-.52.74l-.09.13-.02.03c-.06.08-.12.17-.19.25-.07.09-.15.18-.23.27-.06.06-.12.12-.18.19-.08.08-.15.16-.23.24l-.05.05c-.05.05-.1.11-.15.17.04-.43.08-.89.13-1.34.07-.59.12-1.08.16-1.53l.03-.44c0-.14.02-.29.03-.43v-.16c.02-.11.03-.22.04-.32.03-.32.07-.66.12-1v.04l.02-.12c.01-.09.03-.18.05-.27l.02-.12c.02-.1.04-.19.06-.28l.21-.95c.05-.24.09-.47.14-.71.06-.33.11-.65.16-.97.02-.12.04-.24.05-.36l.02-.11c.03-.16.05-.32.07-.48l.04-.27c.03-.2.07-.41.11-.61.02-.1.04-.21.04-.34v-.29c-.01-.14-.04-.28-.08-.42-.17.19-.3.39-.39.61-.02.05-.04.1-.05.16-.02.06-.03.12-.04.2v.07c-.03.09-.05.18-.07.28-.09.48-.16.97-.24 1.46-.05.33-.11.64-.16.94-.06.3-.12.59-.18.88l-.03.15c-.02.1-.04.2-.07.3l-.03.14c-.03.11-.05.23-.07.34-.04.18-.07.35-.09.52v.06l-.06.45c-.06.52-.09 1.05-.12 1.56l-.02.35c-.04.56-.11 1.12-.17 1.67l-.02.19-.06.56c-.02.17-.04.33-.05.5 0 0 0-.02-.01-.03l-.02-.03-.03-.05c-.04-.08-.09-.17-.14-.25zm5.07 39c-.04-.07-.09-.15-.13-.22-.1-.19-.22-.4-.35-.6-.08-.12-.16-.23-.24-.35l-.12-.17c-.13-.18-.27-.39-.43-.57-.23-.26-.49-.5-.75-.74l-.05-.05c-.09-.08-.18-.16-.27-.25-.18-.16-.35-.33-.53-.49-.14-.12-.29-.24-.45-.36-.14-.11-.29-.2-.43-.29l-.05-.03c-.31-.19-.6-.38-.87-.58-.12-.09-.24-.2-.37-.31h-.01v-.02l-.03-.03-.03-.03-.06-.06-.1-.1-.02-.02-.02-.02c-.16-.17-.32-.35-.47-.52l-.07-.09h.01v.01c-.02-.03-.05-.06-.07-.09-.09-.11-.18-.22-.26-.33-.16-.2-.3-.4-.45-.59l-.17-.23-.04-.05c-.07-.1-.15-.2-.22-.3-.15-.2-.29-.4-.43-.61-.07-.1-.14-.2-.21-.31-.05-.09-.1-.19-.15-.28-.1-.18-.2-.39-.31-.6-.05-.11-.1-.21-.15-.32-.03-.07-.07-.15-.1-.23-.04-.09-.07-.19-.11-.29-.03-.07-.05-.13-.08-.2a9.29 9.29 0 0 1-.23-.69c-.04-.14-.07-.27-.09-.39-.04-.26-.04-.53-.05-.79v-.56c0-.14.02-.27.03-.41.01-.15.03-.29.04-.44l.03-.36c.05-.6.1-1.1.15-1.55.02-.13.03-.26.05-.4.06-.41.13-.86.22-1.41l.04-.21c.04-.24.08-.49.14-.74l.03-.17c.02-.1.04-.2.06-.29l.05-.19.05-.2c.1-.35.2-.67.31-.98l.03-.08c.1-.29.21-.58.31-.87.05-.15.1-.32.14-.48.04-.18.07-.35.09-.51.01-.14 0-.27-.01-.41.02.02.04.03.06.05.2.14.4.29.6.43.2.14.39.27.59.4l.27.18.04.03c.25.17.51.34.77.5.32.2.62.38.92.55.17.09.34.19.52.29h-.02s.02.01.03.02l.06.03c.18.1.36.21.54.33l.07.05c.08.05.16.1.23.16l.19.14.1.07.08.07.08.07.05.04s.07.05.1.08c.09.08.17.17.26.25l.16.18.09.1.13.17.09.12.15.21.06.1.18.27.18.27c.27.43.54.85.82 1.28l.57.93.13.22c.06.11.13.23.19.35l.1.19c.12.23.25.46.36.7v.02l.02.02c0 .02.02.04.03.06.05.12.1.25.15.39.07.23.13.47.18.7.05.23.1.47.14.68v.04c.02.08.03.17.04.26 0 .11.01.21.02.32 0 .16 0 .31-.02.49l-.02.13-.03.27c-.01.08-.03.16-.04.24 0 .04-.02.08-.02.12-.05.24-.11.48-.16.71l-.15.49c-.04.12-.08.25-.13.37l-.05.14c-.02.06-.05.13-.07.19l-.12.33c-.06.2-.13.39-.19.59-.04.12-.07.25-.1.37-.02.06-.03.12-.05.18-.05.18-.08.36-.11.53-.04.18-.08.36-.11.53v.04c-.06.31-.13.67-.18 1.03l-.15 1.13c-.05.38-.08.78-.11 1.17l-.06.87v-.02c-.01-.03-.03-.06-.04-.09l-.24-.63c-.14-.39-.28-.81-.38-1.15-.08-.26-.16-.57-.24-.89-.08-.34-.15-.67-.2-.95v-.04s0-.04-.01-.06c-.02-.1-.03-.2-.05-.3-.03-.19-.06-.38-.08-.57-.05-.36-.1-.73-.16-1.09-.04-.28-.1-.56-.16-.84l-.04-.19c-.03-.13-.06-.26-.08-.39-.04-.18-.08-.37-.11-.55-.07-.34-.13-.69-.2-1.03l-.04-.2c-.05-.27-.1-.55-.16-.82-.09-.39-.17-.71-.26-1.04l-.15-.53-.15-.53c-.04-.13-.07-.26-.11-.4l-.18-.62a7.34 7.34 0 0 0-.54-1.3l-.07-.12c-.09-.16-.17-.33-.26-.49-.06-.11-.12-.22-.18-.32l-.03-.06s-.05-.09-.08-.14c-.06-.1-.13-.19-.2-.29s-.18-.23-.18-.23l-.07-.09-.09-.12c-.04-.05-.08-.1-.12-.16-.01-.02-.02-.05-.03-.07v.02c0-.02-.01-.03-.02-.05-.03-.08-.07-.16-.1-.23-.04-.1-.08-.2-.12-.29l-.06-.14c-.1-.23-.2-.47-.28-.71v-.03s-.02-.07-.04-.1c-.01-.03-.02-.06-.04-.08a.303.303 0 0 0-.27-.16h-.06c-.13.03-.23.15-.23.28v.13c.01.05.03.1.05.15.03.09.07.18.11.28l.03.07.07.16.08.19.12.27v.02c.03.05.05.1.07.14l.02.04.03.07.04.1.03.07s.04.09.06.13c.04.07.08.13.14.21.04.06.09.12.13.18l.04.05.07.09c.09.12.18.24.26.36.16.26.31.53.46.8l.1.17c.2.35.34.63.46.89.07.17.14.34.19.51l.05.16c.04.13.08.26.13.39v.04l.02.03.02.07c.07.23.13.46.2.69l.02.07c.03.09.05.19.08.28.01.05.03.1.04.15.02.09.05.17.07.26l.05.22c.04.17.08.35.12.53.05.23.08.46.12.68l.02.13.06.38c.07.5.16 1 .25 1.5.03.17.06.34.1.51.05.28.11.56.16.84l.12.88c.09.64.18 1.29.31 1.93.12.6.3 1.23.58 2.04.21.62.46 1.25.73 1.87l.06.13.07.16zm-12.36 5.1h-.01c-.11.04-.2.06-.29.09-.07.02-.13.05-.2.08l-.05.02c-.16.07-.35.16-.55.22-.23.07-.47.13-.72.17-.26.04-.53.05-.78.06h-.45a2.358 2.358 0 0 1-.65-.15l-.27-.12c-.07-.04-.13-.07-.18-.1-.05-.03-.1-.06-.15-.1l-.14-.11c-.04-.04-.07-.08-.11-.12a.219.219 0 0 1-.03-.05l-.02-.03v-.08c0-.08.01-.16.01-.24 0-.08 0-.16-.02-.25-.01-.05-.02-.1-.04-.15-.02-.08-.04-.15-.05-.23 0-.03 0-.07-.01-.1v-.16s.03-.07.04-.11c.02-.05.04-.09.06-.13l.03-.05v-.02c.05-.05.1-.11.14-.16.06-.06.12-.12.19-.17.09-.07.18-.13.27-.19.12-.07.23-.13.34-.18.1-.04.2-.08.31-.12s.23-.08.36-.12c.06-.02.12-.04.18-.05a.52.52 0 0 0 .21-.11c.06-.04.1-.1.13-.16s.04-.13.05-.2v-.05c.02-.05.03-.1.04-.16.03-.11.06-.22.09-.31.01-.03.03-.07.04-.1l.09-.15c.04-.05.08-.1.12-.14.05-.04.09-.08.14-.12.06-.05.12-.09.18-.13.05-.03.1-.05.14-.08.03-.01.06-.03.1-.04.02 0 .04-.01.06-.01h.04c.03 0 .04.01.06.02.02 0 .05.02.07.03.04.02.08.05.12.07.03.02.06.05.09.07.03.02.06.05.09.07l.17.17c.1.13.19.25.26.37l-.02-.02s.02.03.03.05c.05.09.1.18.14.27a4.743 4.743 0 0 1 .27.82v.04c.02.15.04.3.05.46 0 .05 0 .1.01.15v.1c.01.09.03.17.05.26v.06c.03.08.04.16.05.24.02.1.03.19.05.29.01.07.03.15.04.22-.01 0-.03-.01-.04-.02-.08-.04-.16-.07-.24-.11l-.16-.08c-.16-.08-.32-.16-.49-.24l-.51-.21-.13-.05-.05-.02c-.13-.05-.25-.11-.37-.16s-.22-.11-.31-.16c-.15-.08-.3-.16-.44-.25.05.07.09.13.15.19.16.2.35.43.58.63.21.19.45.36.7.53.34.22.73.43 1.15.61zm-1.78-8.98c.06.03.11.07.17.11.1.07.2.15.29.24.1.09.19.19.29.29l.1.1.36.39.05.07.05.07.02.03s.04.05.05.07l.07.1c.04.05.07.11.11.17.07.11.14.23.2.34l.04.07c.1.18.21.36.29.55.1.22.18.43.25.65v-.02.03c.06.19.1.37.14.54.02.14.04.28.05.44v.45c0 .12-.01.24-.02.36 0 .2-.02.4-.04.61v.03s0 .06-.01.09v.07c0 .06-.01.13-.02.19v.11l-.02.19c-.02.27-.04.52-.06.77v.12l-.01.09c0 .12-.02.24-.02.37v.01c-.02-.13-.03-.25-.04-.38v-.75c0-.14-.02-.27-.05-.4-.03-.12-.06-.23-.1-.34-.08-.24-.16-.45-.26-.64-.05-.1-.11-.19-.17-.29-.07-.1-.14-.19-.23-.29a2.325 2.325 0 0 0-.5-.44c-.06-.04-.13-.08-.21-.11-.13-.05-.25-.08-.36-.08h-.09v-.05c0-.08 0-.16-.02-.24v-.04c-.02-.09-.03-.18-.04-.28-.04-.38-.06-.77-.08-1.16l-.06-1.3c0-.08-.01-.15-.02-.23v-.1c-.02-.1-.03-.22-.05-.33v-.02c-.02-.08-.03-.16-.05-.24 0 0 .02.01.03.02zm-9.84 3.71c-.04-.08-.07-.17-.09-.25-.01-.04-.02-.08-.03-.13s-.02-.08-.03-.13c-.01-.08-.02-.17-.02-.25 0-.08-.02-.16-.02-.25v-.68c0-.06 0-.11.01-.17v-.09c.03-.24.06-.49.11-.72s0-.03.01-.05c.02-.1.05-.19.08-.28.03-.07.06-.15.1-.22.02-.04.05-.08.07-.12.03-.05.07-.09.11-.13.19-.19.4-.37.6-.54l.03-.02.03-.02c.12-.09.24-.19.37-.27.13-.09.25-.18.38-.26l.41-.27.41-.27s.1-.06.14-.09c.09-.06.18-.12.28-.17l.06-.03c.16-.09.32-.18.49-.26.09-.04.18-.07.27-.1.13-.04.27-.07.43-.1h-.02s.1-.01.15-.02c.17-.03.34-.05.51-.05h-.02.15c.22 0 .45.02.65.03.04 0 .08.01.12.02.08 0 .16.02.23.03l.17.03.17.03a3.302 3.302 0 0 1 .81.3c.11.06.23.13.34.2.12.07.24.16.37.25l.3.22.09.07c.07.05.13.1.2.15.09.07.17.13.24.2.06.06.12.12.18.19.04.06.09.11.13.17.03.05.06.11.09.16.03.06.05.13.07.19.02.07.04.17.06.25.02.08.04.16.06.25.02.12.04.25.06.39.02.14.04.29.05.46.03.29.05.58.08.87.02.27.04.54.07.8.02.24.05.49.09.77.01.11.05.2.09.29-.11.05-.21.11-.31.18-.14.1-.26.19-.36.3-.12.13-.21.24-.27.36-.08.14-.14.29-.18.44-.03.11-.06.21-.08.32h-.03l-.03.02-.09.03c-.14.05-.29.1-.43.15-.13.05-.28.1-.42.18-.32.17-.55.33-.75.51-.1.09-.2.2-.3.32-.12.16-.22.36-.27.6-.03.11-.03.24-.02.4 0 .07.02.14.03.22.01.05.03.1.04.16l.06.22c0 .03 0 .07.01.1v.03l-.04-.03-.04-.03-.18-.12c-.05-.03-.09-.06-.14-.09l-.08-.05-.27-.18-.69-.42c-.47-.29-.94-.56-1.42-.8l-.07-.04c-.21-.11-.43-.23-.64-.35a5.93 5.93 0 0 1-.62-.4l-.07-.05c-.09-.06-.18-.13-.27-.2-.12-.09-.24-.19-.36-.29l-.04-.04c-.13-.12-.26-.24-.38-.37-.15-.16-.29-.31-.43-.47l-.05-.07s-.08-.1-.11-.15a.834.834 0 0 1-.08-.12l-.08-.11v-.02c-.06-.08-.11-.17-.16-.25-.05-.09-.09-.18-.13-.27zm11.58 5.75-.08.08c-.24.2-.5.36-.74.52-.09.06-.2.11-.29.16-.12.05-.23.09-.35.13-.22.07-.47.12-.74.18l-.39.06-.27.04-.53.09-.14.02c-.27.05-.53.07-.8.09h-.13c-.18.01-.36.02-.54.02h-.04c-.13 0-.27 0-.39-.02-.15-.02-.29-.05-.43-.08-.13-.03-.27-.07-.4-.11-.11-.03-.22-.07-.33-.11-.18-.08-.34-.15-.49-.23-.45-.25-.93-.56-1.51-.96-.12-.09-.24-.19-.36-.28l-.07-.06-.07-.06-.2-.2c-.08-.08-.16-.17-.25-.24l-.02-.02v-.02l-.02-.02c-.22-.37-.43-.74-.64-1.11-.23-.41-.42-.76-.59-1.13-.09-.21-.18-.42-.26-.66.01.01.02.03.04.04l.18.18c.11.11.22.21.33.31.08.08.17.14.26.21h.01l.01.02c.11.09.24.17.36.25.12.08.23.17.36.25.11.07.23.14.31.18h.03c.12.08.23.14.35.2.25.13.51.25.77.37.44.21.89.43 1.43.71.22.12.45.24.67.36.23.12.45.24.65.39l.12.09c0 .01.01.02.02.03.13.23.35.44.66.61l.04.02h.02l.04.03.04.02h.02c.11.07.23.12.36.16.13.04.28.08.44.11.16.03.32.04.44.04h.07c.12 0 .23 0 .35-.02.33-.03.6-.07.87-.12.26-.05.53-.12.81-.22.15-.05.3-.11.44-.16.12-.05.24-.09.36-.13l.22-.06-.02.02zm9.72 11.96c-.07-.08-.14-.15-.21-.22-.11-.1-.21-.2-.32-.28-.1-.09-.21-.17-.31-.24-.11-.07-.21-.15-.32-.22-.12-.08-.24-.16-.35-.25-.23-.16-.42-.31-.6-.47a3.32 3.32 0 0 1-.18-.19c-.05-.06-.1-.13-.15-.2-.04-.06-.07-.12-.1-.18l-.06-.15c-.03-.09-.05-.18-.07-.27l-.02-.12c-.02-.09-.02-.18-.02-.27v-.12c0-.03 0-.07.01-.1 0-.03.02-.06.03-.09v-.03s.03-.03.04-.05l.02-.03.03-.03c.01-.01.02-.02.04-.03.02-.01.04-.02.07-.04.04-.02.07-.03.11-.04.07-.02.13-.04.2-.05.07-.01.14-.02.21-.02h.17c.04 0 .08.01.13.02.04.01.09.02.13.04.04.02.08.04.12.05.07.04.14.08.21.13l.16.13c.08.07.15.14.22.22.07.08.13.16.19.24.04.06.07.12.1.18.04.09.08.19.11.28.03.11.06.23.08.35.03.16.05.32.07.48l.06.5v.05c.02.15.04.31.08.46.05.21.09.36.14.51v.03zm7.46 12.88c-.09-.25-.19-.5-.29-.75.03.08.07.17.1.25.04.09.07.18.11.27.02.06.05.12.07.17.03.08.07.15.1.23v.03c0 .04.01.09.02.13-.04-.12-.08-.23-.12-.35zm10.31 25.66c-.08-.15-.15-.31-.23-.46-.28-.57-.62-1.12-1-1.64-.38-.53-.78-1.04-1.17-1.56-.1-.13-.2-.26-.3-.4-.11-.16-.22-.33-.33-.49-.16-.23-.3-.48-.45-.72-.12-.22-.25-.45-.37-.67-.13-.23-.24-.47-.37-.7-.23-.44-.46-.87-.69-1.31-.46-.86-.98-1.7-1.5-2.53-.17-.28-.34-.57-.49-.85-.07-.13-.15-.26-.21-.4-.07-.15-.14-.31-.22-.46-.07-.16-.13-.33-.2-.49-.06-.14-.1-.27-.15-.41-.11-.31-.21-.62-.31-.94-.09-.35-.18-.7-.26-1.05-.07-.32-.13-.64-.19-.97-.04-.27-.09-.53-.12-.8-.04-.3-.07-.6-.1-.9-.06-.58-.09-1.17-.12-1.75-.01-.57-.02-1.15-.01-1.72.01-.64.04-1.28.07-1.93a95.81 95.81 0 0 1 .19-2.69c.02-.26.05-.52.08-.77.07-.51.15-1.02.25-1.52.1-.53.21-1.05.33-1.58.22-1.01.48-2.01.71-3.01.11-.47.21-.94.3-1.42.14.37.28.75.42 1.12.09.23.18.46.25.7.06.21.13.43.19.64.07.25.15.51.2.76l.15.79c.08.58.16 1.16.21 1.75.05.61.09 1.23.16 1.84.06.54.13 1.08.22 1.62.09.53.19 1.06.3 1.59.2 1.02.42 2.04.67 3.05.48 1.97 1.08 3.9 1.48 5.88.22 1.07.42 2.15.66 3.21.23 1.05.47 2.09.68 3.14.2.98.37 1.97.57 2.95.21 1.03.43 2.05.63 3.09.11.69.2 1.39.26 2.09l.03.41c-.08-.17-.15-.34-.23-.5zM27.26 103.9c-.05.15-.1.29-.16.44-.18.4-.41.82-.7 1.31-.09.14-.18.28-.27.41l-.22.31-.07.1c-.08.11-.15.22-.23.33-.11.16-.22.32-.34.47-.05.05-.09.11-.14.16-.05.05-.09.11-.12.17l-.05.07v-.02c0-.04 0-.07.01-.11 0-.08.02-.17.03-.25.02-.1.04-.2.07-.3.02-.06.04-.12.06-.17.06-.13.13-.26.2-.36.08-.12.15-.24.21-.34.06-.11.12-.2.17-.3l.15-.27c.07-.13.14-.26.21-.38.06-.09.13-.19.2-.28.15-.18.31-.34.47-.51.12-.12.25-.25.37-.38l.17-.19c0 .03-.02.06-.03.09zm-4.5-6.95c.01-.1.02-.18.02-.25v-.38c.02-.11.05-.21.08-.31l.03-.11.06-.23.06-.23v.01c.01-.04.03-.09.04-.13 0-.02.02-.04.02-.06.08-.25.16-.51.27-.76.03-.07.06-.13.1-.19.03-.05.06-.09.09-.14.03-.03.06-.06.09-.1a.7.7 0 0 1 .19-.13c.03-.02.07-.03.1-.05.04-.02.09-.03.13-.04.08-.02.15-.03.23-.04h.26c.1 0 .19.01.29.03.35.06.71.16 1.05.25l.14.04c.15.05.27.09.39.14.07.03.15.07.21.11.05.04.11.07.16.11.06.05.11.1.16.15.06.06.11.13.16.2.06.09.12.18.18.29.14.26.25.55.35.83v.01c.08.22.15.44.21.67.02.08.03.17.05.26s.03.19.04.31 0-.01 0-.01v.03l.06.56.03.3v-.01.06c.02.24.04.49.05.74v.03c0 .25.02.51.01.77v-.03.08c0 .14 0 .28-.01.42-.01.38-.04.73-.08 1.06-.02.13-.05.24-.08.35a2.488 2.488 0 0 1-.23.52c-.09.15-.2.29-.32.44-.12.15-.26.3-.39.45l-.13.15-.02.02c-.19.21-.39.44-.59.65l-.1.1c-.29.3-.6.61-.79.99-.06.13-.13.26-.19.39-.08.16-.15.31-.23.47l-.06.12s-.03.07-.05.11c-.04.08-.08.15-.11.23-.08.19-.16.41-.19.64-.03.17-.04.34-.04.52v.43s-.01.08 0 .12l-.05-.05c-.08-.09-.17-.17-.26-.25-.05-.14-.09-.29-.13-.44a20.171 20.171 0 0 1-.34-1.84c-.01-.19-.01-.4-.01-.63 0-.22.02-.44.03-.66v-.11c.03-.51.05-1.05.04-1.59v-.89c0-.22 0-.46-.03-.68-.03-.26-.07-.51-.12-.77-.05-.26-.12-.52-.2-.78-.03-.12-.07-.23-.11-.35-.08-.24-.18-.49-.29-.77-.06-.14-.12-.29-.19-.44l-.11-.25c.03-.11.08-.25.1-.4zm-9.09 3c.05-.33.12-.66.18-.98l.06-.32.04-.19c.07-.36.15-.74.24-1.11.05-.16.11-.33.17-.49l.15-.3c.09-.15.19-.29.31-.45.11-.13.22-.25.35-.38.13-.11.24-.21.36-.29.1-.06.19-.12.29-.18l.03-.02.05-.03.05-.03c.34-.17.65-.31.95-.42.1-.03.2-.07.3-.09.12-.03.24-.05.38-.07.1 0 .2 0 .3-.01.09 0 .19 0 .29-.01.14 0 .27-.03.41-.04l.18-.02h.22c.12 0 .23.02.34.03.12.02.24.05.36.09.08.03.17.06.25.09.12.05.24.12.36.19a2.806 2.806 0 0 1 .55.46c.13.15.26.32.4.51.14.2.28.42.42.66.31.58.61 1.24.91 2 .08.22.16.44.23.66.06.21.12.42.17.63.08.34.13.66.17.97.02.28.03.56.04.83 0 .13 0 .26.01.39 0 .13 0 .26.01.39.01.52 0 1.03 0 1.54v.1c0 .24-.01.48-.01.73 0 .19 0 .43.03.68.03.23.07.46.12.71.05.27.1.53.16.8v.04l.02.04c-.07-.06-.14-.11-.22-.17-.22-.16-.46-.3-.64-.41-.38-.21-.77-.41-1.15-.6l-.24-.12c-.13-.06-.25-.13-.39-.18-.1-.05-.21-.08-.32-.12-.12-.04-.25-.07-.37-.1s-.25-.05-.37-.07h-.05l-.07-.02-.67-.12-.44-.09-.26-.06-.5-.09c-.09-.02-.19-.03-.28-.05-.24-.04-.48-.1-.73-.17-.15-.05-.3-.1-.46-.17-.1-.05-.2-.09-.3-.14-.07-.03-.13-.07-.19-.11l-.04-.03h.02c-.18-.11-.37-.24-.56-.39-.12-.1-.23-.21-.34-.32-.1-.12-.2-.23-.3-.35l-.03-.05c-.06-.08-.11-.16-.17-.25l-.18-.3c-.15-.29-.28-.58-.4-.87a4.96 4.96 0 0 1-.16-.52c-.03-.14-.05-.28-.07-.42v-.27c0-.17.02-.33.05-.51zm-1.82 9.68c-.08-.04-.16-.08-.23-.12-.14-.09-.27-.19-.4-.29a9.517 9.517 0 0 1-.85-.84c-.11-.12-.22-.24-.33-.35l-.33-.33c-.08-.07-.15-.15-.23-.22-.1-.11-.22-.24-.33-.37l-.11-.14-.2-.26a4.75 4.75 0 0 0-.34-.39l-.16-.16c-.07-.06-.13-.13-.2-.19-.03-.04-.06-.07-.09-.11-.05-.07-.1-.15-.15-.24-.01-.02-.02-.05-.03-.07-.02-.07-.05-.14-.06-.21 0-.04-.02-.08-.02-.12v-.16c0-.06 0-.12.02-.18.01-.06.03-.13.04-.19.04-.13.09-.25.13-.36.08-.18.16-.33.25-.48.03-.05.06-.08.09-.13.04-.06.08-.12.13-.18.03-.04.07-.08.11-.12.03-.04.06-.08.1-.11l.15-.12c.11-.08.22-.14.33-.21h.03c.08-.06.17-.1.26-.14h.02s.05-.03.07-.04l.04-.02h-.01.03c.07-.03.15-.05.23-.06.13-.02.24-.04.35-.06.13-.01.27-.02.42-.02.14 0 .28.02.42.03.21.02.43.04.65.04h.24c.19-.01.4-.02.59-.05.1-.01.21-.03.31-.06.05-.01.1-.03.15-.05.05-.02.11-.03.16-.05h.15s.04 0 .06.01c.05.02.1.03.14.05l.08.04c.11.05.21.1.32.12.03 0 .05 0 .08.01.04.08.09.15.13.23.13.2.27.42.44.62.16.18.36.39.59.57l.05.04c.1.08.2.16.31.23.12.08.24.15.36.22.11.06.24.12.35.17.13.06.25.1.38.14.05.01.1.02.15.04.2.06.39.11.6.15.11.02.23.04.34.07.15.03.29.05.44.08.23.05.45.1.67.16.25.06.51.12.76.17.25.05.51.11.76.18.14.05.27.09.4.15.21.1.41.21.61.32.11.06.21.12.32.17.28.15.57.31.84.47.28.17.51.33.71.49-.02.11.02.22.11.28-.19-.04-.4-.05-.64-.05h-.33c-.15 0-.31.03-.47.05-.17.03-.34.06-.54.11a6.038 6.038 0 0 0-1.11.35c-.15.06-.3.14-.44.21-.15.08-.29.16-.43.24l-.1.05-.21.12c-.23.13-.45.26-.68.38-.52.27-1 .5-1.48.68h-.03c-.05.03-.11.05-.17.07l-.1.03-.1.03h-.05a.47.47 0 0 1-.16.04h-.11l-.11.03c-.24.02-.49.02-.73.03-.14 0-.28 0-.42.01-.12 0-.25 0-.37.01-.23.01-.47.02-.71.02h-.05c-.17 0-.35-.02-.55-.05-.18-.04-.37-.08-.56-.13-.28-.09-.54-.18-.79-.29zm12.18-1.05h-.02c-.09.01-.19.03-.29.05-.1.02-.21.04-.31.07-.35.08-.66.24-.92.46-.19.17-.37.35-.55.52-.09.08-.17.17-.26.25-.2.19-.4.37-.61.55-.19.17-.4.34-.62.51-.1.07-.22.15-.34.22l-.36.21h-.01c-.08.04-.15.08-.23.12-.27.13-.52.25-.77.35-.19.07-.39.13-.62.18-.3.07-.53.11-.75.14-.08 0-.17 0-.25.01-.07 0-.14 0-.21-.02-.07-.01-.13-.03-.2-.05-.11-.03-.21-.07-.31-.12-.03-.01-.07-.03-.1-.04-.03-.01-.07-.03-.1-.04l-.1-.03c-.14-.05-.28-.1-.41-.15h.01s-.03 0-.05-.02c-.07-.03-.15-.07-.22-.1a8.27 8.27 0 0 0-.43-.2c-.1-.04-.19-.07-.29-.11-.14-.05-.28-.1-.42-.16-.19-.09-.35-.19-.53-.29l-.02-.02a.21.21 0 0 1-.06-.04c-.06-.04-.13-.08-.19-.12h-.01c.03 0 .06.01.09.01l.48.03h1.22c.11.01.22.02.33.02h.5c.19-.01.38-.02.56-.06.15-.03.35-.07.54-.14.34-.11.68-.25 1-.39l.04-.02c.28-.12.57-.25.9-.41.33-.16.65-.32.98-.49.27-.14.57-.27.91-.4.4-.14.81-.26 1.22-.36.19-.04.39-.08.6-.11.14-.01.27-.02.4-.02h.06c.06 0 .12 0 .17.02.07.01.14.03.21.05.09.03.19.06.28.09H24l.03.02h-.01zm10.2 21.2h-.02c-.12 0-.27.03-.4.05-.13.01-.25.02-.4.05-.27.04-.54.09-.8.15-.13.03-.26.07-.38.11l-.09.03c-.08.03-.17.06-.25.09-.35.15-.71.29-1.06.44-.15.06-.29.12-.44.18l-.06.02-.06.02c-.18.08-.36.15-.54.22l-.1.04c-.06.03-.13.05-.19.07-.02 0-.04.01-.05.02l-.18.06c-.08.03-.15.05-.23.08-.27.08-.51.15-.73.2-.22.06-.43.1-.62.14s0 0-.01 0h.01c-.06 0-.11.02-.17.03-.19.03-.37.05-.56.06s.01 0 .02 0h-.03.01-.18c-.13 0-.25 0-.38-.01-.12-.01-.25-.03-.38-.06-.16-.04-.31-.08-.46-.13-.38-.14-.75-.32-1.12-.51l-.26-.14-.09-.05c-.1-.05-.18-.11-.27-.17-.09-.05-.18-.11-.26-.16h.01-.02s0-.01 0 0c-.17-.12-.34-.25-.5-.39-.2-.18-.39-.38-.59-.6-.04-.04-.08-.1-.13-.15-.06-.07-.12-.15-.17-.22-.06-.07-.12-.15-.17-.22-.08-.1-.16-.21-.24-.31-.05-.07-.1-.13-.15-.2l-.07-.1-.08-.11-.08-.11-.08-.11c-.05-.07-.1-.14-.16-.21l-.04-.05-.04-.05s-.06-.08-.08-.12l-.15-.21c-.11-.17-.23-.33-.35-.5l-.1-.15c-.19-.3-.39-.59-.59-.88l-.3-.45c-.11-.16-.22-.31-.33-.46l-.14-.2c-.1-.14-.2-.28-.31-.42l-.1-.14-.26-.35c-.06-.09-.12-.17-.19-.26l-.06-.08-.08-.11c-.08-.11-.16-.22-.24-.34-.06-.08-.12-.16-.17-.24-.02-.04-.05-.08-.07-.12v-.02c.02 0 .04 0 .06.01.16.03.31.07.47.1h.02a5.107 5.107 0 0 0 .76.12c.24.03.5.05.79.07.14 0 .27.01.41.01h.33c.26.01.52.03.78.05h.24l.21.02c.09 0 .18.02.26.02h-.01l.36.03h.12c.26.02.51.03.76.04h.18c.23 0 .45.02.65.03.28.01.55.02.81.04s.51.03.74.04c.26.02.52.03.79.05h.23c.17.02.33.03.5.04h.31c.17.02.33.05.49.08l.33.09c.11.03.21.07.31.1l.13.05c.11.04.22.08.33.13.15.06.29.13.44.2.1.05.19.1.29.16.08.05.16.1.23.14l.04.03c.17.12.31.23.45.33.14.11.28.23.42.35l.02.02c.26.23.51.48.76.72l.26.25.07.06c.14.13.28.27.41.41l.04.05.04.05c.05.06.11.11.16.17.04.05.08.09.12.14.04.05.08.09.12.14l.51.6-.02-.02c.14.16.28.33.4.49.13.16.24.31.34.43l-.17-.11-.11-.07-.07-.05h-.02v-.01l-.13-.09-.07-.05-.07-.05c-.24-.17-.48-.34-.75-.46-.23-.11-.48-.18-.72-.26-.08-.02-.15-.05-.23-.07-.22-.07-.44-.15-.65-.23-.36-.13-.74-.26-1.11-.36l-.33-.09-.33-.09-.29-.08c-.34-.09-.68-.19-.93-.26-.22-.07-.44-.13-.66-.2l-.29-.09-.32-.09c-.24-.07-.48-.14-.72-.23-.17-.07-.35-.14-.51-.22-.17-.08-.33-.16-.5-.25l-.05-.03c-.12-.06-.24-.13-.37-.2l.14.13c.21.19.44.39.68.58.31.25.68.46 1.09.62.26.1.53.19.79.28l.16.05c.31.11.61.21.92.31.3.1.6.19.9.28h.03c.13.05.27.09.41.14.14.05.29.1.45.16.16.06.32.13.47.19l.51.21c.12.05.25.09.37.14.18.07.37.14.55.22.14.07.26.15.37.22.11.08.22.15.33.23l.42.3c.18.12.38.26.59.39.18.11.37.21.53.29h-.02zm18.41-1.35c.17-.18.31-.35.45-.51l.15-.18.08-.1c.05-.07.11-.13.16-.2l.08-.1c.1-.11.2-.21.31-.32.08-.08.16-.15.24-.22l.04-.04c.17-.14.35-.28.52-.43.17-.13.32-.25.48-.36.07-.04.14-.08.21-.11.06-.03.12-.05.19-.07.05-.01.1-.03.15-.04.05 0 .09-.01.14-.01h.12c.03 0 .06 0 .1.01.03 0 .06.02.09.03.03.01.05.02.08.03.02.01.05.03.07.04.03.02.05.04.07.05.02.02.04.03.05.05.02.02.04.05.05.07.02.03.03.05.05.08.02.04.03.08.05.12 0 .01 0 .03.01.04v.11s0 .07-.02.1c-.01.05-.03.1-.05.15-.03.06-.05.12-.08.18-.05.08-.09.16-.14.24l-.12.15c-.05.05-.1.1-.15.14-.06.05-.12.09-.19.13-.14.08-.28.15-.39.21-.17.08-.33.15-.49.2l-.08.03-.08.03c-.09.03-.18.05-.27.06h-.06c-.18.04-.34.06-.49.08h-.08c-.15.02-.3.03-.46.06-.28.05-.55.15-.8.29zm11.89-24c-.02.17-.05.33-.09.49-.04.14-.08.29-.12.45-.05.16-.1.33-.16.53-.14.44-.27.9-.39 1.37l-.05.18-.15.55c-.03.13-.07.25-.11.38-.02.07-.04.14-.07.21l-.04.11v-.03l-.01.07c-.02.06-.05.13-.07.19v.02c-.13.34-.29.65-.41.9-.12.22-.21.39-.3.54-.1.17-.21.33-.32.49l-.02.04c-.1.14-.2.28-.31.42l-.06.08-.12.15-.19.22-.19.21s-.08.09-.13.13l-.07.07c-.11.11-.23.22-.35.32-.12.1-.25.2-.36.3-.12.09-.23.18-.34.27l-.49.38c-.22.17-.43.34-.65.51-.11.09-.22.17-.32.26-.09.07-.17.14-.26.21-.04.03-.08.07-.12.11 0-.02.02-.03.03-.05l.03-.05c.07-.12.15-.25.22-.38.04-.08.07-.15.11-.23.11-.22.2-.42.28-.61.06-.14.09-.27.14-.41.05-.14.1-.28.14-.41.08-.27.15-.55.21-.81l.03-.11c.08-.31.15-.59.24-.87.04-.13.08-.25.13-.38.03-.07.05-.15.08-.23.03-.07.05-.15.08-.23.07-.22.13-.46.19-.69.02-.06.04-.12.05-.19.12-.54.21-1.09.3-1.62.04-.22.07-.45.11-.67l-.16.4c-.15.36-.29.74-.43 1.11-.02.05-.04.1-.06.16-.05.15-.1.29-.16.44-.05.15-.1.3-.16.44-.1.27-.19.54-.28.81v.04c-.1.26-.21.57-.3.88-.05.16-.09.32-.13.48-.03.13-.07.25-.1.38-.09.32-.18.61-.27.87l-.03.08c-.05.12-.1.25-.16.37-.06.13-.12.25-.18.38l-.03.05v.02c-.12.19-.23.38-.34.57-.05.08-.1.16-.15.23-.08.13-.17.26-.25.39-.35.52-.66 1.01-.93 1.49-.07.12-.14.25-.21.38-.03.06-.07.12-.1.18-.05.09-.1.18-.16.28-.07.12-.14.24-.22.36s0-.02 0-.02c0-.09.02-.19.02-.28.03-.49.02-.97 0-1.42v-.18c0-.2-.02-.41-.04-.64-.02-.23-.04-.47-.07-.74-.02-.22-.05-.43-.07-.65s-.04-.43-.07-.65l-.09-.81-.07-.63-.06-.5c-.04-.29-.07-.6-.1-.9v-.52c0-.13.01-.26.02-.39v-.12l.03-.35c.01-.2.02-.4.04-.61.02-.15.03-.29.05-.44.02-.15.05-.29.08-.43s.02-.09.04-.13c.01-.05.03-.11.05-.17l.03-.12c.04-.13.08-.26.14-.41v-.03l.06-.15c.1-.27.22-.54.33-.82.07-.17.15-.35.23-.52.05-.12.11-.24.17-.35l.04-.07c.17-.32.34-.65.53-1a10.964 10.964 0 0 1 .57-.93c.11-.15.21-.3.32-.45.28-.4.57-.8.85-1.21l.04-.05c.13-.18.26-.37.39-.55.06-.08.12-.16.19-.25s.15-.18.23-.28c.16-.17.31-.32.46-.47.14-.14.29-.27.43-.39s0-.01 0-.01h.01c.43-.36.87-.7 1.31-.99l.13-.08.05-.03-.03.02c.22-.14.44-.28.66-.41l.06-.03.19-.11.19-.11h.02l.04-.04c.02-.01.04-.03.07-.04V97l.03.06.04.18.04.18.09.39c.02.11.05.21.07.32.09.39.17.79.24 1.18l.04.21.12.59c.06.27.12.54.17.82v.02l.02.09.02.09v.03c.09.49.17.98.23 1.43.03.23.07.47.1.7.02.13.03.26.05.38 0 .09.02.18.02.27v.51zM30.03 90.3v-.01z" class="cls-1"/></g></svg>