<svg xmlns="http://www.w3.org/2000/svg" id="Layer_2" data-name="Layer 2" viewBox="0 0 69.8 162.29"><defs><style>.cls-1{fill:#bba085}</style></defs><g id="OBJECTS"><path d="M44.96 83.01v-.08.07zm-6.4-52.96-.01.01.01-.01zm-.07-2.88v.01zm-.65-.41v-.04.04zm-10.98 11-.02-.02.02.02zm8.83-24.59zm-5.17 13.87v-.01zm7.19-20.13c0 .25.2.48.46.48s.47-.2.48-.46c0-.25-.2-.48-.46-.48s-.47.2-.48.46zm-5.36-2.26c.46 0 .84-.36.85-.82 0-.45-.37-.85-.82-.85s-.84.36-.85.82c0 .45.37.85.82.85zm-3.81 81.16zm41.09 10.92v-.01zm-.42-1.62v.05c0-.02-.01-.03-.02-.05zm-8.5-12.71v.01-.01z" class="cls-1"/><path d="M69.79 98.37c-.01-.55-.06-1.1-.16-1.63-.01-.06-.02-.12-.03-.19-.09-.48-.23-.95-.38-1.42-.16-.49-.33-.98-.5-1.46-.37-1.03-.74-2.06-1.17-3.07-.21-.49-.44-.98-.66-1.47-.23-.49-.45-.98-.69-1.46-.24-.49-.48-.99-.76-1.46s-.58-.93-.9-1.37a25.72 25.72 0 0 0-2.11-2.55c-.19-.19-.39-.38-.58-.56-.23-.22-.47-.45-.73-.63-.18-.13-.42-.24-.65-.18-.19.05-.31.21-.35.39-.06.26-.04.53 0 .78.03.27.06.53.1.79l.09.8c.06.51.12 1.02.15 1.54s0 0 0 .01c.02.6.02 1.2.02 1.79v.93c0 .3-.02.59-.04.89s0 .02 0 .02c-.05.53-.12 1.06-.21 1.58-.09.53-.18 1.06-.26 1.59-.07.51-.11 1.02-.13 1.54-.02.52-.05 1.04-.09 1.56-.02.26-.05.51-.08.77-.06.53-.15 1.06-.24 1.59-.1.57-.21 1.14-.31 1.71-.2 1.09-.45 2.17-.66 3.26-.11.54-.21 1.07-.32 1.61-.1.51-.22 1.02-.32 1.53-.21 1.08-.37 2.17-.59 3.26-.07.29-.14.58-.21.86-.07.27-.15.53-.23.8-.16.52-.31 1.04-.44 1.57-.14.55-.28 1.1-.42 1.64-.15.54-.3 1.08-.44 1.62s-.27 1.08-.38 1.62c-.04.17-.07.35-.1.52-.02.17-.05.33-.07.5-.02.2-.04.4-.05.6-.01.19-.02.39-.02.58 0 .33 0 .67.01 1.01.02.38.04.76.09 1.14.06.56.16 1.11.26 1.67l.33 1.69c.2 1.05.43 2.1.62 3.15l.21 1.18c.06.36.12.72.21 1.08.08.35.15.71.23 1.06.02.11.05.21.07.32 0 .03.02.06.03.09l-.15 1.22c-.06.53-.13 1.06-.18 1.6-.1 1.15-.18 2.31-.28 3.47v-.06c0 .13-.02.25-.03.38-.05.56-.11 1.11-.16 1.67-.05.56-.08 1.13-.1 1.69-.03.78-.03 1.56-.03 2.35l-.42-1.34a95.9 95.9 0 0 0-1.15-3.38c-.16-.47-.33-.94-.49-1.41v.03c-.45-1.31-.93-2.62-1.43-3.92.09-.09.18-.18.26-.27.26-.27.52-.53.78-.79s.52-.51.76-.78c.13-.15.26-.3.37-.46.11-.15.21-.31.29-.48 0 0 0-.02.01-.02.08-.16.15-.33.21-.5.13-.38.18-.77.16-1.17-.02-.38-.07-.76-.18-1.13-.23-.75-.64-1.43-1.08-2.07-.42-.61-.86-1.22-1.32-1.8-.23-.3-.49-.59-.77-.84s-.58-.48-.88-.7c-.62-.45-1.26-.87-1.99-1.12-.17-.06-.34-.1-.52-.13-.19-.03-.39-.06-.58-.06h-.08c-.05-.16-.11-.31-.16-.47l.03.09c0-.02-.01-.04-.02-.05-.25-.71-.46-1.44-.67-2.17-.26-.87-.51-1.74-.77-2.61-.39-1.31-.77-2.62-1.14-3.94-.36-1.29-.69-2.59-1.03-3.88-.33-1.23-.67-2.45-.97-3.69-.15-.65-.32-1.29-.46-1.94l-.45-2.13c-.06-.29-.11-.58-.17-.86 0-.1 0-.21.01-.31.04-.54.08-1.09.16-1.63.08-.54.17-1.07.28-1.61.23-1.09.55-2.16.91-3.21.16-.46.34-.91.52-1.36.13-.34.26-.68.4-1.01.16-.38.32-.77.49-1.15l.48-1.05c.14-.3.27-.61.4-.91h.02c.05.02.1.03.16.04.07.02.14.03.22.03h.07c.25-.03.48-.17.69-.31.43-.28.83-.61 1.17-.99.23-.25.44-.52.63-.8.46-.65.88-1.33 1.3-2.01.24-.39.49-.79.7-1.19.13-.25.27-.49.4-.74.13-.24.24-.49.36-.73.2-.4.37-.82.55-1.23.19-.45.38-.89.54-1.35.19-.51.37-1.02.54-1.53.15-.44.29-.89.44-1.33.3-.93.63-1.85.91-2.78.28-.92.53-1.84.81-2.76.29-.94.6-1.87.91-2.8.24-.69.5-1.37.75-2.06.26-.71.5-1.42.74-2.14.31-.93.64-1.86.89-2.82a25.386 25.386 0 0 0 .47-2.25c.04-.22.06-.44.09-.65.05-.49.08-.99.1-1.48 0-.26.01-.52.02-.79 0-.24 0-.47-.02-.71s-.04-.47-.07-.7c-.04-.26-.08-.5-.14-.76-.05-.23-.1-.45-.16-.68-.06-.26-.13-.53-.19-.79-.1-.44-.2-.89-.32-1.33-.13-.47-.26-.94-.4-1.41-.13-.44-.26-.89-.41-1.32-.16-.47-.35-.93-.51-1.4 0 .02.01.04.02.05-.21-.61-.41-1.23-.57-1.86-.08-.31-.15-.63-.23-.95-.04-.16-.07-.32-.11-.48-.05-.21-.19-.4-.4-.46a.391.391 0 0 0-.24.02.315.315 0 0 0-.17-.17c-.16-.07-.38 0-.44.18-.03.07-.06.15-.08.22-.03.07-.05.13-.07.2-.05.14-.09.29-.12.44s-.07.29-.11.44l-.18.69c-.07.25-.11.5-.16.75-.05.27-.1.55-.16.82 0-.02 0-.04.01-.06-.13.63-.24 1.26-.36 1.89v.05l-.09.46v-.01c-.14.7-.3 1.39-.48 2.08-.11.4-.22.81-.34 1.21-.09.32-.2.64-.3.96-.19.53-.39 1.06-.59 1.59-.19.47-.38.94-.55 1.42-.18.49-.36.98-.53 1.48-.32.91-.59 1.83-.9 2.73-.04.12-.08.24-.13.36-.33.91-.69 1.81-1.07 2.7-.39.92-.79 1.83-1.1 2.78-.07.22-.16.45-.22.68-.08.28-.16.56-.23.84-.07.24-.11.49-.17.73-.05.2-.09.4-.13.6-.05.28-.11.57-.16.85-.05.26-.08.52-.13.78-.08.47-.14.94-.2 1.41-.13.94-.2 1.89-.29 2.84-.1 1.01-.2 2.03-.33 3.04-.12.98-.26 1.95-.42 2.92-.15.97-.25 1.94-.31 2.91-.04.63-.07 1.26-.07 1.89 0 .29.02.59.05.89-.23.59-.47 1.17-.71 1.76-.21.53-.43 1.05-.62 1.59-.21.58-.41 1.16-.61 1.75-.14.41-.28.83-.42 1.25-.17.51-.31 1.02-.45 1.54-.23.87-.41 1.75-.54 2.65-.03.22-.05.44-.08.66-.04-.22-.09-.45-.12-.67l-.24-1.62c-.28-1.87-.5-3.76-.73-5.63-.32-2.69-.64-5.37-1-8.06a1081 1081 0 0 0-1.14-8.21c-.2-1.36-.38-2.72-.57-4.08-.17-1.28-.34-2.55-.48-3.83-.16-1.49-.31-2.99-.45-4.48-.11-1.13-.23-2.26-.33-3.4h.03c.12-.05.19-.18.16-.3 0-.01 0-.03-.01-.04l-.03-.3c0-.44 0-.88.01-1.32 0-.2 0-.4.02-.6 0-.15 0-.3.02-.45 0-.17 0-.33.02-.5 0-.08.02-.16.04-.24.02-.1.04-.2.07-.3.07-.27.14-.55.22-.82.05-.16.09-.32.14-.49.12-.17.24-.35.38-.51.18-.23.36-.45.55-.68.02-.02.03-.04.05-.07.03-.04.06-.08.09-.13s.06-.09.1-.14c.09-.13.17-.26.26-.39.16-.24.32-.49.48-.73 0 0 0 .01-.01.02.15-.21.3-.42.46-.61 0 0 0-.01.01-.02l-.01.01c.06-.06.12-.13.19-.19.21-.17.44-.31.65-.48l.52-.4c.2-.16.41-.31.61-.48.31-.27.62-.53.93-.8.22-.19.44-.39.65-.58.05-.05.1-.09.15-.14l.02-.02c.25.36.66.61 1.12.61.76 0 1.42-.6 1.43-1.38.01-.55-.33-1.07-.81-1.3 0-.01.02-.02.03-.03l-.03.03c-.17-.08-.36-.13-.55-.13-.76 0-1.42.6-1.43 1.38 0 .17.03.34.09.5-.03.03-.06.05-.08.08-.22.19-.43.38-.65.57-.27.22-.54.45-.8.67-.11.1-.23.19-.34.29-.07.05-.14.11-.21.16l-.91.7c-.1.08-.21.14-.31.21-.16.11-.31.22-.44.36-.1.1-.19.21-.28.33l-.12.15-.01.01c-.05.07-.1.15-.15.22-.16.24-.3.48-.45.72-.15.25-.31.5-.47.74-.1.14-.2.28-.31.42-.04.06-.08.12-.13.17.11-.41.22-.82.34-1.22.19-.63.39-1.27.58-1.91l.3-1.03c0-.02.01-.04.02-.05.04-.01.09-.02.12-.05.05-.04.09-.09.11-.16.01-.04.01-.08.01-.12l.1-.13c.03-.03.05-.07.08-.1.03-.04.05-.07.08-.1.11-.16.22-.32.32-.48.11-.17.22-.35.33-.52.03-.05.07-.1.1-.15.03-.04.06-.09.09-.13.04-.05.07-.1.11-.15.03-.04.06-.09.1-.13.07-.09.14-.18.22-.26l.24-.27 1.23-1.35c.2-.22.4-.43.59-.65l.31-.34c.11-.12.22-.23.33-.35.09.05.19.09.31.09.36 0 .66-.28.67-.64 0-.35-.29-.67-.64-.67s-.66.28-.67.64c0 .18.07.35.19.47l-.48.48c-.31.33-.63.65-.94.97-.2.21-.41.42-.61.63-.23.24-.45.47-.67.72-.1.11-.2.23-.3.35-.05.06-.1.13-.15.19l-.1.13c-.1.14-.19.28-.28.42-.08.12-.16.24-.23.36-.07.11-.15.21-.23.32.09-.25.17-.5.28-.75.06-.15.12-.3.19-.44s.13-.28.2-.41c.15-.28.3-.57.44-.85.16-.32.33-.63.48-.95.11-.24.22-.47.32-.71.01 0 0 .02.02.02s.07-.03.07-.07v-.18c.08-.18.17-.35.25-.53.14-.28.29-.57.43-.85v-.01l.15-.27c.05-.09.11-.18.17-.27v.01c.17-.24.35-.47.55-.69l.45-.48c.1-.11.22-.22.33-.33.11-.11.21-.21.33-.31.17-.15.33-.31.5-.46.13-.11.26-.21.39-.31l.06-.03c.02.01.04.02.06.02.07 0 .12-.1.07-.16-.08-.09-.23-.01-.31.04-.09.07-.19.13-.28.2-.08.06-.17.13-.25.2-.05.04-.09.08-.14.11-.13.1-.25.21-.38.31-.13.12-.27.23-.4.35-.04.03-.08.06-.11.1-.05.05-.11.1-.16.16-.08.08-.16.15-.23.23-.04.04-.07.08-.11.12.14-.27.28-.53.4-.81.07-.17.15-.33.21-.5.06-.16.12-.33.17-.49l.15-.49.06-.23h.02c.54 0 1-.42 1.01-.97 0-.53-.43-1.01-.97-1.01s-1 .42-1.01.97c0 .34.18.64.45.82-.07.25-.13.49-.21.73-.06.18-.13.35-.2.52-.07.17-.15.33-.23.49-.14.26-.28.53-.42.79-.16.29-.33.58-.48.88-.07.13-.13.26-.2.39 0-.05.01-.1.02-.15.01-.1.02-.19.04-.29 0-.05.01-.1.02-.14.01-.14.03-.27.04-.41 0-.1.02-.21.03-.32 0-.17.02-.34.03-.51 0-.11 0-.22.01-.32v-.4c.06-.03.09-.12.04-.18-.01-.02-.03-.03-.05-.04a.138.138 0 0 0-.04-.03c-.03-.01-.06 0-.09.01-.02.02-.03.04-.04.07l-.06.83v-.01l-.06.56c-.01.14-.04.27-.05.41-.04.32-.08.64-.13.95 0 .05 0 .1-.01.15 0 .1-.02.21-.03.31v.12c-.15.3-.29.6-.43.9-.14.3-.29.6-.44.9 0-.01.01-.03.02-.04-.19.36-.38.72-.58 1.07-.11.2-.22.39-.33.59.06-.95.11-1.9.15-2.86 0-.02.01-.04.02-.05v.01c.04-.12.09-.24.13-.36.01-.03.02-.07.04-.1.02-.05.04-.09.06-.13.05-.12.1-.24.15-.35.01-.03.03-.07.05-.1.03-.07.07-.15.1-.22.04-.08.08-.16.11-.25l.09-.21c.01-.03.03-.06.04-.09.02-.06.05-.12.07-.18.02-.05.04-.1.06-.14.04-.11.08-.23.12-.34v-.02c.02-.01.04-.03.04-.06s-.01-.07-.05-.09c-.03-.01-.06 0-.08.02a.36.36 0 0 0-.08.15c-.03.07-.06.15-.09.22-.02.04-.03.08-.05.12l-.12.27c-.02.05-.05.11-.07.16-.06.14-.13.27-.19.41-.04.09-.09.18-.13.27-.02.04-.04.09-.06.13-.04.1-.09.2-.13.31.02-.57.03-1.14.05-1.71 0-.34.01-.67.02-1.01v-.26c.29-.02.54-.25.55-.56 0-.31-.25-.59-.57-.59s-.58.25-.59.57c0 .28.21.52.48.57l-.03.25c-.05.39-.11.77-.16 1.16-.07.57-.15 1.14-.21 1.72-.07.67-.14 1.33-.19 2 0 .08-.01.15-.02.23-.03.41-.06.83-.08 1.24l-.06.88c0 .17-.02.33-.03.5-.11.31-.23.62-.33.94-.12.36-.22.71-.33 1.07.01-.3.03-.59.04-.89v-.66c0-.08 0-.16-.01-.24 0-.13-.02-.27-.03-.4l-.06-.5a30.912 30.912 0 0 0-.3-1.81c-.03-.17-.07-.34-.1-.52.45-.02.82-.38.83-.84 0-.46-.38-.88-.84-.88s-.87.37-.88.84c0 .43.32.8.74.86v.04c.02.13.05.27.07.4.02.12.03.24.05.36l.09.7c.05.48.09.95.12 1.43v.22c.02.59-.03 1.19-.04 1.78v.98c-.02.06-.04.11-.06.17-.02.08-.04.16-.05.25 0 .02 0 .04.01.07-.15.48-.3.97-.42 1.46-.17.68-.34 1.36-.49 2.04-.07.33-.12.66-.17 1-.02.13-.04.25-.04.38v.36c-.02-.22-.03-.45-.05-.67v-.05c-.13-2.15-.24-4.3-.36-6.44-.04-.67-.07-1.33-.11-2v-.48c0-.35-.02-.69-.04-1.03-.01-.28-.04-.56-.07-.83l-.06-.59c-.01-.25-.03-.51-.04-.76-.02-.29-.04-.59-.05-.88 0-.34-.02-.68-.02-1.02 0-.17-.01-.34-.02-.5 0-.18-.01-.37-.02-.55 0-.19-.01-.39-.02-.58v-.3c.03-.12.07-.23.11-.35.28-.76.58-1.52.88-2.27.08-.21.17-.41.26-.61h.03c.04 0 .07-.04.06-.08 0-.02-.01-.04-.03-.05.04-.04.08-.08.12-.11-.04.04-.01.11.05.11.04 0 .08-.01.11-.02.05-.01.1-.03.15-.04.04 0 .06-.05.05-.08 0-.02-.02-.04-.05-.05l.21-.18c.25-.19.49-.39.73-.58.24-.19.49-.37.73-.55.12-.09.23-.18.34-.27.1-.09.21-.19.3-.29l.3-.36c.2.18.45.3.73.3.63 0 1.16-.49 1.17-1.13.01-.62-.5-1.17-1.13-1.17s-1.16.49-1.17 1.13c0 .25.09.48.24.68-.09.11-.18.21-.27.32s-.02.02-.03.03c-.02.01-.04.03-.06.04l-.33.24c-.06.05-.13.09-.19.13-.06.05-.13.09-.19.14l-.21.15c-.05.04-.1.08-.16.12l-.16.13-.18.15c-.11.09-.21.19-.32.28-.12.11-.24.21-.36.32-.09.08-.18.16-.27.23-.02.02-.04.03-.06.05.1-.23.19-.47.3-.7.05-.09.09-.19.14-.28.08-.14.16-.28.24-.41.09-.14.18-.28.27-.43.11-.16.22-.32.32-.49v-.01c.05-.07.1-.14.14-.21.15-.24.29-.49.41-.74s0 0 0-.01v-.02s0-.02.01-.02c.08-.15.15-.3.22-.45.2-.42.38-.86.56-1.29.03-.04.07-.07.1-.11.09-.09.19-.17.28-.26.11-.09.22-.18.33-.28.03-.03.07-.05.1-.08.07-.06.14-.11.21-.16.03-.03.06-.05.1-.08.06-.04.12-.08.17-.12.09-.07.19-.14.28-.2.44-.3.87-.61 1.32-.9.04.02.08.06.13.06.15 0 .28-.12.29-.28 0-.15-.12-.29-.28-.29s-.28.12-.29.28c0 .05.03.09.05.13-.04.02-.07.05-.11.07-.03.02-.06.04-.1.07-.1.06-.19.13-.29.2-.15.09-.29.19-.44.28-.15.1-.3.19-.44.29-.03.02-.05.04-.08.05-.06.04-.11.08-.17.12-.05.03-.09.06-.14.1-.02.01-.03.02-.05.04-.06.05-.11.09-.17.13-.07.06-.14.11-.21.17-.02.01-.04.03-.05.04-.04.03-.07.06-.11.1-.06.05-.12.1-.18.16-.04.04-.09.08-.13.12.04-.1.08-.19.12-.29.29-.66.59-1.31.83-1.98.09-.28.18-.56.26-.84 0-.01 0-.02.01-.04.01-.05.03-.09.04-.14.02-.06.03-.13.05-.2.1-.19.2-.39.31-.58.06-.1.11-.21.17-.31.04-.08.08-.16.13-.23.32-.53.66-1.04.93-1.6.14-.27.25-.55.36-.84 0-.01.01-.03.02-.04.14.09.3.16.49.16.53 0 .98-.42.99-.95 0-.4-.24-.76-.59-.91.01-.02.03-.04.04-.06l-.06.06a.983.983 0 0 0-.34-.07c-.53 0-.98.42-.99.95 0 .18.06.35.15.51-.09.14-.18.29-.26.44-.12.22-.23.44-.34.66v-.01.02c-.12.22-.23.44-.35.65-.13.23-.26.46-.38.69-.02.04-.04.08-.05.12 0-.16.02-.32.03-.48.01-.3.03-.61.06-.91.05-.54.15-1.07.25-1.6.03-.14.05-.28.08-.42.02-.08.03-.16.04-.25.15-.09.25-.24.25-.42 0-.2-.12-.38-.29-.47v-.02.01a.53.53 0 0 0-.73.47c0 .19.11.37.28.46-.01.05-.03.11-.05.16l-.24 1.03c-.07.33-.16.66-.21 1-.05.32-.1.63-.13.96-.03.32-.07.63-.13.95-.06.26-.15.51-.23.76-.08.24-.16.48-.24.71v.02c0 .01 0 .03-.02.04 0 .02-.01.03-.02.05v-.01c0 .02-.02.04-.02.07 0 .02-.01.03-.02.05-.12.32-.24.63-.37.94-.27.65-.57 1.28-.82 1.93-.04.11-.09.22-.13.33.06-.41.12-.81.16-1.22.05-.64.06-1.29 0-1.93v-.01c.14-.07.27-.16.36-.28.17-.21.22-.46.21-.73 0-.19-.04-.37-.08-.55-.09-.46-.58-.77-1.03-.71-.44.05-.74.38-.83.8-.04.18-.06.37-.07.55-.03.54.43.97.94 1.01-.05.47-.1.94-.14 1.41-.03.38-.06.76-.08 1.14-.01.37-.03.74-.06 1.1v-.04c0 .11-.02.22-.03.33v-.04c0 .07-.01.14-.02.21v-.02c-.02.19-.03.38-.05.56v.05c-.32.61-.69 1.21-.97 1.84-.14.32-.26.65-.36.99-.1.31-.2.61-.3.91 0 .01 0 .03-.01.04 0 .01-.01.03-.02.04 0 .02-.01.04-.02.06-.03.08-.06.16-.09.25v-.03c-.01.03-.02.07-.04.1-.15.42-.3.83-.45 1.24-.03.09-.06.17-.1.26v-.03c0-.53.04-1.06.06-1.59l.03-1 .06-1v.06c0-.11.02-.22.03-.33v.01c.01-.13.02-.27.04-.4v.06c.01-.13.03-.27.03-.4.02-.28.03-.57.04-.85v-.87c0-.6 0-1.2.03-1.8.02-.57.05-1.14.06-1.71.01-.59 0-1.18.02-1.76 0-.35.03-.7.05-1.05.03-.1.05-.2.09-.3.1-.26.2-.51.32-.76v-.01c.12-.23.24-.46.37-.7.09-.16.18-.33.27-.49.14-.25.27-.51.43-.75.02-.03.05-.06.07-.09.02 0 .04-.02.06-.03.03-.03.04-.08.03-.12a.118.118 0 0 0-.09-.09c-.04-.01-.08 0-.11.02 0 0-.01 0-.02.01 0 0-.02.01-.03.02-.01.01-.02.02-.03.04-.03.03-.05.07-.08.1-.05.07-.09.14-.13.2-.11.18-.2.36-.3.54-.08.15-.17.3-.26.45-.06.11-.12.21-.18.32-.06.1-.11.2-.17.3-.03.06-.07.12-.1.18-.04.08-.07.16-.11.24.03-.54.07-1.09.11-1.63l.06-1.05v-.01c.19-.52.38-1.04.58-1.56l.33-.87c.03-.08.07-.15.11-.23v.02c.02.05.06.1.12.11.05 0 .09-.05.08-.1 0-.03-.04-.06-.07-.06v-.03c.01-.01.03-.02.04-.03 0 0 .02-.01.03-.02.03-.01.06-.03.09-.04.04-.01.08-.02.11-.03.04.49.45.92.96.92.54 0 1.01-.43 1.02-.98 0-.54-.44-1.02-.98-1.02-.46 0-.85.31-.97.74-.07.03-.14.06-.2.1-.04.03-.08.07-.12.1.03-.06.06-.13.09-.19v-.02c.1-.2.21-.39.32-.58.05-.08.1-.17.15-.25.06-.1.13-.2.19-.3.02-.03.04-.05.06-.08.17-.24.35-.48.52-.72.19-.25.38-.5.57-.76.09-.13.18-.25.27-.38.09-.14.18-.27.27-.41.17-.25.33-.5.5-.75.25-.37.5-.75.74-1.13.07.25.3.44.56.44.33 0 .61-.26.62-.6 0-.33-.27-.62-.6-.62l-.02.02c-.26 0-.48.18-.56.43-.16.15-.31.3-.46.47-.16.17-.31.36-.46.55-.15.2-.29.41-.43.62-.13.19-.25.38-.38.57 0 0 0-.01.01-.02-.14.2-.27.4-.42.6-.17.22-.33.44-.5.66-.02.03-.04.06-.06.08 0-.04.01-.08.02-.13.06-.23.13-.45.2-.67a22.598 22.598 0 0 0 .45-1.61c.04-.18.08-.36.11-.54.06.01.12.04.18.04.54 0 .99-.42 1-.96 0-.53-.43-1-.96-1-.06 0-.11.02-.16.03 0-.06-.01-.13-.02-.19v-.05c0-.06-.02-.11-.04-.17 0 .1-.01.2-.02.3 0 .05-.01.1-.02.15-.41.12-.72.47-.73.91 0 .31.15.59.39.78l-.06.26v-.03c-.06.27-.11.54-.15.81-.05.26-.09.53-.13.8-.05.28-.09.57-.13.85-.02.13-.04.26-.06.38-.02.1-.03.2-.03.31-.09.12-.18.24-.26.36l-.14.2c-.04.06-.08.12-.12.19-.04.06-.08.12-.12.19l-.12.21c-.07.14-.15.27-.22.41-.03.07-.07.13-.1.2-.03.08-.07.16-.1.23-.06.14-.12.29-.18.43-.03.07-.05.14-.07.21-.03.07-.05.14-.07.21v-.02c0 .02-.01.04-.02.05 0 .02-.01.04-.02.06 0 .01-.01.03-.02.04v-.02c-.02.05-.04.1-.05.15-.01.03-.02.05-.03.08-.03.07-.05.14-.08.21v-.02c0 .02-.01.03-.02.05v-.01.02c-.07.19-.14.38-.21.58.02-.44.05-.88.08-1.32.06-.58.13-1.16.2-1.74.07-.55.12-1.1.15-1.65.03-.59.06-1.18.08-1.77v-.1c0-.04.02-.08.02-.13v.01c.03-.13.06-.26.09-.38.03-.14.07-.27.11-.41.04-.13.07-.25.11-.38.05-.15.1-.31.15-.46.04-.1.07-.19.1-.29.04-.1.07-.21.11-.31.04-.1.07-.19.11-.28.04-.1.07-.2.12-.3.11-.26.22-.53.34-.79.06-.11.12-.22.18-.32.04-.06.09-.12.13-.17 0 0 .01-.02.02-.02.02.02.05.03.08.02.05-.01.08-.07.06-.11-.01-.03-.04-.07-.07-.07h-.08c-.05.02-.09.05-.12.09-.02.02-.04.05-.06.07-.03.03-.06.07-.09.1-.05.06-.1.13-.14.2a3.818 3.818 0 0 0-.24.43c-.07.16-.15.32-.22.47-.02.04-.03.07-.05.11-.04.1-.08.19-.12.29-.03.07-.06.14-.09.22-.02.05-.03.09-.05.14-.04.11-.08.22-.11.33-.02.05-.04.1-.05.15-.05.17-.1.35-.16.52 0-.08.01-.17.02-.25s0-.08 0-.12c.03-.32.05-.64.07-.97l.03-.71v-.12c0-.07-.06-.11-.12-.12v-.34c.01-.13.03-.26.04-.39.01-.13.03-.25.03-.38.01-.27 0-.54 0-.81 0-.23-.02-.47-.03-.7 0-.23-.02-.46-.02-.69-.01-.43-.03-.87 0-1.3v-.08c.11.02.23.04.35.04.98 0 1.81-.77 1.83-1.76.02-.96-.78-1.83-1.76-1.83s-1.81.77-1.83 1.76c-.01.75.48 1.44 1.16 1.71v.01c-.02.14-.03.27-.03.41v.41c0 .58 0 1.16.04 1.74v.13c0 .11.01.22.01.33.01.28.02.56 0 .84-.01.26-.04.52-.05.78v.87c0 .11-.02.23-.03.34-.05.52-.12 1.04-.18 1.56-.06.54-.11 1.09-.16 1.63-.05.55-.09 1.09-.17 1.64-.04-.33-.08-.65-.14-.98 0-.03 0-.05-.01-.08v-.03c0-.03-.01-.07-.02-.1v.04c-.05-.28-.13-.56-.21-.83.03-.02.06-.05.08-.08.08-.13.03-.29-.1-.38-.04-.03-.08-.05-.12-.08-.02-.01-.05-.03-.07-.04-.04-.11-.07-.22-.12-.33-.11-.28-.22-.56-.33-.85-.06-.16-.11-.31-.17-.47 0-.02 0-.03-.01-.05s0-.05-.02-.08v.01c-.02-.12-.04-.24-.05-.36 0-.07-.02-.15-.03-.23-.01-.09-.03-.18-.03-.27 0-.08-.01-.16-.02-.24v-.44c0-.14.02-.28.03-.42v.02c.03-.25.05-.51.07-.76.07.01.15.02.22.02.12 0 .25-.01.37-.05.86-.21 1.33-1.07 1.15-1.92l-.06-.25c-.16-.75-.94-1.26-1.68-1.17-.77.09-1.37.75-1.39 1.52 0 .15 0 .31.02.46.01.13.04.25.09.36 0 .49.05.99.16 1.47.05.24.12.47.17.71l.18.72c.07.29.16.57.24.86.08.29.17.59.26.89l.12.36c-.22-.13-.44-.26-.66-.38-.25-.14-.5-.27-.74-.41.33-.31.54-.74.55-1.23.02-.94-.77-1.79-1.72-1.79s-1.77.75-1.79 1.72c-.02.94.77 1.79 1.72 1.79.32 0 .61-.09.87-.23.09.07.18.14.28.2.13.08.25.17.38.25.46.3.92.58 1.39.87.07.19.14.38.2.57.12.39.23.79.32 1.19.05.22.1.45.16.67.04.19.08.38.11.57.02.11.03.21.04.32v.38c0 .04-.01.09-.02.13v.02c-.02.06 0 .11.02.16-.11.54-.2 1.09-.27 1.63-.07.58-.12 1.15-.18 1.73-.03-.11-.07-.21-.1-.32-.12-.38-.26-.75-.38-1.12-.2-.57-.39-1.15-.61-1.71-.06-.14-.11-.28-.17-.42-.06-.15-.12-.29-.18-.44-.04-.1-.08-.19-.12-.29-.02-.05-.04-.09-.05-.14 0-.02-.01-.03-.02-.05.05-.05.09-.1.12-.16s.03-.13.03-.2.02-.05.02-.08c.01-.04.02-.08.02-.13v-.1c0-.07-.04-.15-.08-.21a.502.502 0 0 0-.15-.14.382.382 0 0 0-.33 0c-.13.06-.23.18-.28.32-.05.14-.09.3-.05.46.02.07.04.14.09.2a.405.405 0 0 0 .17.13c.03.02.07.02.1.03h.1c.03 0 .06-.03.09-.04 0 .02.01.04.02.05.04.14.08.28.13.42.04.15.09.29.14.43.08.24.15.48.22.72.08.26.16.53.24.8.08.27.16.55.25.82.12.37.24.74.38 1.11.06.16.12.33.18.49l.09.27c0 .03.02.05.03.08-.11.92-.23 1.84-.32 2.77-.06.61-.1 1.22-.13 1.84l-.06 1.82c-.02.58-.04 1.15-.04 1.73 0 .59.04 1.19.06 1.78v-.07c0 .25.01.5.02.76-.08-.28-.14-.57-.22-.85-.09-.31-.17-.62-.27-.93-.09-.28-.18-.57-.28-.85a.694.694 0 0 0-.05-.13l-.06-.73c-.03-.28-.06-.57-.08-.86-.05-.61-.11-1.22-.14-1.83s0 0 0-.01c0-.04-.04-.08-.08-.08-.05 0-.08.02-.1.06 0 .02-.01.04-.02.06 0 .02 0 .04.01.06 0 .3-.01.6-.01.89v.43c0 .16 0 .31.01.47 0 .14.02.29.03.43-.06-.14-.12-.28-.19-.42-.13-.27-.26-.55-.38-.82-.09-.2-.17-.4-.25-.6-.02-.13-.03-.26-.05-.39 0-.07-.02-.15-.02-.22 0-.1-.02-.19-.03-.29 0-.12 0-.24.02-.36 0-.09.01-.19.02-.28 0-.14.02-.27.03-.41v.02c.03-.28.05-.55.08-.83l.09-.86c.02-.19.04-.37.05-.56.06 0 .12.02.18.02.76 0 1.41-.6 1.42-1.37.02-.75-.61-1.42-1.37-1.42-.39 0-.75.16-1.01.42.01-.07.03-.15.03-.22.02-.83-.68-1.58-1.52-1.58s-1.57.67-1.58 1.52c-.02.83.68 1.58 1.52 1.58.11 0 .21-.01.31-.03.04.38.08.75.15 1.12.05.3.12.59.19.89.03.11.05.22.08.33-.05-.04-.09-.09-.14-.13-.14-.13-.28-.25-.42-.37l-.02-.02h.01l-.03-.03.01.01c-.08-.07-.16-.14-.23-.21h.01c-.01-.01-.03-.02-.04-.04l-.02-.02c-.07-.07-.14-.13-.2-.2-.07-.07-.13-.14-.2-.21a.444.444 0 0 1-.08-.11s-.01-.02-.02-.03v-.07a.095.095 0 0 0-.17-.01c-.04.06 0 .14.03.2.03.04.06.09.09.13.03.04.06.07.09.11.06.08.13.16.19.23.13.14.26.29.39.43.12.13.25.25.37.38.06.06.11.12.17.18.06.07.13.14.19.21.06.07.12.14.17.21.06.24.11.47.16.71.06.28.12.56.2.83l.27.89c0 .01 0 .03.01.04v-.02.04c.01.04.03.09.04.13.18.56.4 1.11.61 1.66.1.26.2.52.31.78.12.29.24.57.36.86.23.56.46 1.11.71 1.66.13.29.27.57.42.85.07.14.15.27.23.4v.28c-.04.02-.06.07-.02.11h.02v.67c.02.72.05 1.43.09 2.15 0 .04-.01.09-.02.13-.04.31-.08.63-.11.94-.02.19-.03.39-.04.59l-.54-1.05c-.27-.54-.54-1.09-.83-1.62-.16-.29-.32-.59-.49-.88-.14-.25-.29-.5-.44-.74-.33-.53-.67-1.06-1.02-1.58l-.06-.25c-.04-.22-.09-.45-.13-.67v.01l-.06-.34v.02c-.03-.2-.07-.39-.1-.59v.02l-.09-.5c-.05-.27-.09-.54-.14-.81v-.05c0-.03 0-.05-.01-.08v-.06c0-.04-.02-.09-.02-.13-.05-.25-.09-.49-.16-.73s-.14-.48-.22-.72c.28-.07.5-.31.5-.61 0-.35-.29-.67-.65-.67-.09 0-.18.02-.26.05v-.01.01c-.23.1-.4.32-.41.59 0 .31.23.59.53.65l.03.26c.08.51.2 1.02.3 1.52l.18.85c.06.31.12.61.19.92.06.24.11.49.16.73-.03-.05-.07-.1-.1-.14-.19-.25-.38-.49-.57-.73-.19-.24-.38-.47-.57-.71-.19-.24-.37-.49-.54-.74-.09-.13-.17-.26-.25-.4-.08-.13-.16-.27-.23-.41-.14-.27-.27-.54-.41-.81-.13-.26-.25-.52-.38-.78-.13-.27-.28-.53-.43-.79-.04-.08-.08-.16-.13-.24a.81.81 0 0 0 .37-.64c0-.44-.36-.83-.8-.83s-.82.35-.83.8c0 .44.36.83.8.83.09 0 .18-.02.27-.05l.03.13c.1.29.22.56.36.83.14.27.29.53.43.8.28.52.54 1.06.86 1.55.17.26.35.51.53.76.17.24.35.46.53.69.18.24.36.47.54.71-.05-.03-.1-.07-.16-.1-.07-.04-.13-.08-.2-.11-.06-.03-.13-.06-.2-.09-.14-.06-.27-.12-.41-.17-.13-.05-.27-.1-.4-.15-.14-.05-.29-.11-.43-.16-.29-.1-.57-.21-.86-.32-.08-.03-.16-.06-.25-.09l-.18-.06c-.15-.05-.29-.1-.44-.15-.18-.06-.35-.13-.53-.19h-.02c.06-.12.1-.25.11-.39 0-.49-.4-.94-.9-.94s-.93.39-.94.9c0 .49.4.94.9.94.31 0 .57-.16.75-.39h.01c.24.09.48.18.72.26.13.05.27.09.4.13.11.04.22.07.32.11l.57.21c.2.07.39.14.59.22.2.07.4.15.6.22.09.04.19.08.28.12.09.04.17.08.26.12.06.03.11.06.17.09.05.03.11.06.16.1l.27.18c.02.01.03.02.05.03l.08.11.24.36c.05.07.1.15.14.22.01.07.03.13.04.2 0 .05.05.09.1.1h.03c.27.44.54.87.81 1.32.17.29.34.59.51.88.06.11.13.23.19.35.07.12.14.24.2.37.07.13.14.27.21.4-.14-.11-.28-.23-.43-.33-.13-.09-.27-.17-.4-.25-.12-.07-.24-.13-.36-.19l-.39-.21c-.08-.04-.16-.09-.24-.13-.07-.04-.14-.07-.22-.1-.06-.03-.13-.06-.19-.08-.06-.02-.11-.05-.17-.07-.16-.06-.32-.12-.49-.18-.14-.05-.28-.1-.42-.16-.08-.03-.15-.06-.23-.09-.09-.03-.17-.06-.26-.09.05-.11.08-.22.08-.35 0-.5-.4-.95-.91-.95s-.94.4-.95.91c0 .5.4.95.91.95.28 0 .53-.13.71-.33.01 0 .03.02.04.03.03.02.08 0 .1-.03.02-.03 0-.07-.02-.1.06.02.11.05.16.08.24.13.48.26.72.38l.42.21c.11.05.21.1.32.15.13.07.26.14.38.21.12.07.24.14.37.21.13.07.25.14.38.22.12.07.23.14.34.21.27.19.54.39.79.61.13.12.27.24.39.38l.01.01c.03.04.06.08.1.12.06.11.11.22.17.32.14.26.29.52.43.78.1.18.2.37.3.56l-.03 1.33c-.01.59-.04 1.17-.05 1.76V41c0 .31.01.63.04.94.02.28.04.56.07.84.03.3.05.59.07.89.04.87.05 1.75.08 2.63.03.9.04 1.79.09 2.69l.12 1.89c.04.51.06 1.02.09 1.53 0-.02-.02-.05-.02-.07v.01c-.11-.33-.23-.65-.36-.98-.14-.36-.29-.73-.44-1.09-.28-.67-.58-1.32-.89-1.97h.01c0-.03.01-.06 0-.08 0-.02-.02-.05-.03-.07-.02-.05-.03-.1-.05-.15 0-.03-.01-.05-.02-.08l-.21-1.05v.03c0-.03 0-.06-.02-.09-.06-.38-.12-.75-.17-1.13-.05-.39-.11-.77-.15-1.16-.08-.76-.13-1.52-.17-2.28-.02-.69.03-1.38.04-2.07.02-.67.01-1.34.02-2.01 0-.38.02-.77 0-1.15-.02-.43-.11-.98-.53-1.2a.675.675 0 0 0-.66.03.78.78 0 0 0-.34.49c-.08.31-.02.63.05.93.04.18.09.37.16.54.06.16.13.31.2.46v.38c0 .31.03.63.06.94.02.2.05.41.08.61v.43c.02.52.08 1.04.15 1.56.03.24.07.48.1.73.04.24.07.49.12.73v-.03.04c0 .04.01.08.02.12 0 .05.02.1.03.15v-.02c0 .05.02.1.03.15.05.34.1.68.16 1.01.1.55.23 1.11.35 1.66-.05-.11-.11-.23-.15-.34-.32-.76-.65-1.53-1.05-2.25-.13-.25-.28-.49-.42-.74-.02-.04-.03-.08-.05-.12-.09-.24-.2-.48-.3-.72-.1-.26-.2-.51-.3-.77-.06-.16-.13-.33-.2-.49 0 0 .02 0 .03-.01.06-.06.06-.15 0-.21-.06-.07-.13-.14-.2-.21-.09-.22-.18-.44-.26-.66-.2-.53-.39-1.06-.58-1.6v-.03.02c-.11-.33-.19-.67-.29-1l-.12-.41v-.18c.32-.05.58-.3.59-.64 0-.36-.29-.69-.66-.69s-.68.29-.69.66c0 .1.02.19.06.28 0 .01-.02.02-.02.03-.05.11-.03.23 0 .35.06.22.11.44.17.67.07.25.13.49.2.74.08.29.17.57.27.84-.14-.19-.28-.38-.43-.57-.18-.22-.37-.42-.55-.64l.02.02c-.04-.05-.08-.09-.12-.14l.02.02c-.03-.03-.06-.07-.09-.1l.02.02c-.12-.14-.23-.27-.34-.42-.11-.14-.21-.29-.31-.43-.25-.38-.49-.78-.69-1.19-.03-.07-.07-.14-.11-.21.46-.16.8-.58.81-1.09.01-.64-.52-1.22-1.17-1.22s-1.21.51-1.22 1.17c-.01.64.52 1.22 1.17 1.22h.03c.08.25.18.48.31.71.07.14.15.28.23.41a9.567 9.567 0 0 0 .51.78c.09.12.18.24.28.35.19.22.38.43.58.64.2.21.4.43.6.65 0 0 0-.01-.02-.02.15.18.31.37.46.56.07.08.13.16.2.24.06.07.13.14.19.22.08.21.16.41.25.61.12.27.25.54.38.8.16.34.31.68.47 1.02.14.29.3.59.44.88.11.35.22.71.35 1.05.14.37.31.74.46 1.11.15.38.29.76.43 1.15.26.74.53 1.47.82 2.2-.15-.17-.3-.35-.44-.53-.04-.05-.07-.09-.1-.14-.09-.13-.17-.26-.26-.38-.11-.15-.22-.29-.33-.44-.12-.18-.24-.35-.36-.53-.16-.24-.32-.49-.49-.73-.18-.26-.38-.51-.58-.75-.07-.09-.15-.17-.22-.26-.12-.16-.23-.31-.34-.47v-.02.01c-.2-.32-.38-.65-.57-.99-.16-.29-.33-.58-.5-.87-.19-.3-.39-.58-.59-.87-.19-.26-.37-.52-.55-.78-.19-.27-.39-.52-.61-.77.01.02.03.03.04.05-.2-.23-.38-.46-.55-.7-.04-.06-.07-.13-.11-.19-.02-.06-.05-.11-.07-.17-.07-.23-.13-.47-.2-.71-.09-.28-.17-.57-.32-.83-.11-.19-.26-.37-.42-.52.09-.15.1-.34-.01-.49-.03-.03-.05-.06-.08-.09-.09-.09-.21-.13-.32-.17-.12-.05-.23-.06-.36-.09-.27-.05-.53.16-.57.42-.03.18.05.33.17.44-.02.11 0 .23.03.34.02.07.05.15.08.22.13.29.3.56.47.83.08.14.17.27.25.4.06.11.12.22.19.32a2.111 2.111 0 0 0 .44 1c.18.24.38.46.6.67.2.2.4.4.58.61-.01-.02-.03-.03-.04-.05.03.04.07.08.1.11l.01.01.01.01c.03.05.05.1.08.15 0-.01-.02-.02-.02-.03.02.02.03.05.05.07 0 0 .01.02.02.02v.01s.01.02.02.03c.01.02.02.03.03.05.06.08.11.17.17.25v.05l.17.26c0-.01-.02-.02-.02-.04.01.02.03.04.04.06v.01s0 .01.01.02c0 0 0-.01-.01-.02.09.13.17.27.26.4.17.26.35.52.53.77.17.25.36.48.54.72.08.11.17.21.26.31.12.14.24.27.36.41.19.21.39.42.58.64.23.27.44.54.65.83.06.09.13.18.2.27-.06-.04-.11-.08-.17-.12-.2-.14-.4-.28-.6-.43-.11-.08-.21-.17-.32-.25-.07-.05-.13-.11-.2-.16-.06-.05-.13-.09-.19-.14-.06-.04-.11-.08-.17-.12-.06-.04-.11-.08-.17-.11-.08-.05-.15-.09-.23-.14-.07-.04-.15-.08-.22-.12-.26-.15-.53-.28-.79-.42-.26-.13-.53-.26-.79-.39-.07-.04-.15-.08-.22-.11-.01 0-.03-.02-.04-.02.11-.08.18-.2.19-.34 0-.24-.19-.46-.44-.46s-.45.19-.46.44c0 .23.18.43.41.45 0 .01.01.03.03.04.13.08.26.15.39.22.12.07.24.14.36.2.24.14.46.28.7.42l.42.24c.11.06.22.12.33.17.08.04.16.08.24.13.06.03.12.07.18.1.11.06.22.13.32.2l.48.33a16.983 16.983 0 0 0 .91.58c.09.06.18.11.27.17.04.03.08.06.13.08.19.26.37.52.56.78.17.23.35.46.54.67.2.23.41.46.61.69.18.21.35.41.52.63.08.11.16.22.23.34.08.21.16.42.24.62.32.77.64 1.54.97 2.31.16.38.3.78.45 1.16l.21.6c.03.1.07.19.1.29.04.12.08.24.13.35v.13c-.02.25-.05.5-.04.74 0 .11 0 .23.01.34 0 .26.02.51.02.77.03 1.37.16 2.74.28 4.11.11 1.28.21 2.56.34 3.84.28 2.78.67 5.54 1.11 8.3.41 2.59.81 5.19 1.18 7.79.03.18.05.36.07.54-.03-.03-.05-.06-.08-.1-.11-.15-.22-.3-.32-.45l-.33-.54c-.09-.16-.18-.33-.27-.5-.06-.13-.12-.25-.18-.38-.05-.1-.09-.21-.14-.32-.04-.1-.08-.19-.11-.29-.04-.11-.07-.22-.11-.33-.04-.13-.08-.26-.1-.38a4.57 4.57 0 0 1-.07-.36c-.09-.55-.16-1.1-.21-1.65-.02-.26-.04-.52-.07-.78-.03-.3-.07-.6-.11-.9-.03-.18-.06-.36-.1-.54-.04-.18-.09-.35-.14-.53-.05-.18-.12-.36-.18-.54-.06-.16-.13-.32-.21-.47-.1-.19-.2-.38-.33-.56-.13-.19-.28-.36-.47-.5a.891.891 0 0 0-.49-.18c-.16 0-.32.09-.39.25-.06.13-.07.28-.08.42-.01.37.04.74.09 1.1.05.35.13.7.2 1.05.07.35.16.69.25 1.03.09.35.19.7.29 1.05l.06.2-.36-.51c-.14-.19-.28-.38-.44-.55-.16-.17-.31-.34-.47-.51l-.27-.33c-.08-.1-.15-.21-.23-.32-.06-.09-.12-.19-.17-.28-.06-.1-.11-.21-.17-.31-.13-.28-.26-.55-.36-.84-.04-.12-.07-.24-.09-.36-.02-.13-.03-.26-.04-.39 0-.19-.01-.38-.01-.58 0-.36 0-.72-.01-1.09 0-.37-.04-.74-.07-1.11-.03-.34-.07-.69-.12-1.03-.03-.18-.06-.36-.1-.54-.07-.36-.17-.73-.32-1.07-.16-.35-.38-.73-.79-.8-.4-.06-.72.3-.89.61-.1.19-.15.41-.18.62-.02.22-.03.44-.02.66.01.19.03.38.06.56l.06.34c.06.34.15.68.24 1.01l.12.45c.05.18.1.36.16.54v-.02c.05.15.1.31.15.46.04.11.07.23.11.34 0 .01 0 .03.01.04-.06-.09-.12-.17-.17-.26-.13-.21-.26-.42-.38-.63-.12-.21-.24-.43-.35-.65-.08-.17-.16-.33-.23-.5-.13-.3-.26-.6-.38-.91-.13-.31-.25-.62-.38-.93-.1-.24-.21-.47-.31-.71l-.09-.38c-.03-.12-.05-.24-.08-.36.07-.18.15-.35.24-.52 0 .02-.02.03-.03.05.26-.5.52-1.01.68-1.55.2-.68.31-1.4.23-2.11-.04-.36-.12-.73-.24-1.07-.06-.18-.14-.35-.24-.52-.09-.15-.19-.3-.3-.44-.14-.19-.32-.37-.51-.51-.15-.11-.35-.21-.54-.2-.16 0-.33.05-.44.17-.11.12-.18.26-.21.42-.02.09-.03.18-.04.28-.01.16-.02.32-.02.48 0 .36.02.72.06 1.07.05.39.12.77.19 1.16.13.65.26 1.31.38 1.96 0 .02 0 .05.01.07-.19-.4-.38-.8-.56-1.2-.12-.26-.22-.52-.34-.78-.13-.29-.26-.58-.4-.87-.06-.13-.13-.26-.19-.4v.01c-.07-.15-.14-.29-.21-.44-.07-.15-.14-.29-.21-.44-.29-.59-.6-1.17-.92-1.75-.09-.16-.18-.32-.27-.49a7.45 7.45 0 0 0-.23-.37c-.11-.15-.22-.29-.34-.44-.12-.15-.24-.29-.37-.43-.14-.15-.29-.3-.47-.41-.15-.09-.31-.17-.48-.23-.16-.06-.34-.09-.5-.03a.67.67 0 0 0-.35.27c-.1.15-.15.34-.17.51-.02.19-.01.39.02.58.03.21.08.41.18.6.09.17.2.33.34.48.28.3.61.54.93.78.26.19.52.38.76.58.25.22.48.46.7.71.12.15.23.29.34.45.16.25.3.51.45.77.14.27.29.53.42.8.14.27.28.54.43.8.07.13.13.25.2.38.05.1.11.2.16.3l.06.15c.04.08.08.15.12.22.07.13.15.25.23.37.13.21.25.42.38.62-.07-.08-.13-.16-.2-.23-.24-.26-.48-.52-.75-.75-.14-.12-.27-.25-.42-.37-.14-.11-.27-.23-.42-.33-.16-.12-.32-.24-.49-.35-.4-.26-.81-.49-1.27-.63-.2-.06-.41-.11-.61-.14-.13-.02-.27-.04-.41-.04-.19 0-.38.03-.52.16-.13.13-.21.3-.25.48-.04.24-.02.48.01.71.03.21.07.43.15.63.08.22.18.44.33.62.14.17.3.32.48.44.31.21.66.35 1.02.48.09.03.17.07.26.09l.3.09c.34.1.68.17 1.03.24.33.07.65.17.96.28.12.05.23.09.34.15.11.06.21.12.31.18.16.11.32.24.47.37.12.12.24.23.35.35.05.06.11.12.16.19.06.08.11.15.16.23.07.12.15.23.21.35.06.11.12.23.18.34.02.05.05.1.07.15l.21.51c-.5-.28-1.05-.49-1.61-.62-.57-.13-1.15-.2-1.74-.22-.16 0-.32-.01-.48 0-.14 0-.28-.01-.42.01-.08.01-.16.03-.23.07-.07.04-.13.09-.17.16-.09.13-.09.32-.05.47.06.18.17.35.3.49.32.33.73.56 1.15.74.45.19.91.34 1.39.4.17.02.34.05.52.07.34.04.68.09 1.02.15.1.02.19.05.29.08.08.03.17.07.25.11.13.07.26.15.38.23.11.09.23.18.34.27.28.27.55.55.83.82.27.26.55.51.83.75.09.08.2.17.31.22.01.02.03.04.04.05.41.51.82 1.02 1.26 1.5l.6.63c-.05-.02-.09-.03-.14-.05-.58-.22-1.15-.45-1.73-.64-.17-.06-.34-.12-.51-.17-.17-.05-.35-.11-.52-.15-.36-.09-.71-.17-1.07-.23-.17-.03-.35-.05-.52-.07-.15-.02-.3-.04-.46 0-.13.03-.23.14-.28.26-.13.37.15.73.43.94.31.24.67.42 1.04.55.15.05.3.11.45.16 0 0-.02 0-.03-.01.21.08.44.14.66.2l.35.09c.12.02.24.05.36.07.25.04.5.06.75.09.12.01.25.02.37.05l.35.06c.23.05.46.11.68.18.15.05.3.12.44.19.15.08.28.17.42.25.19.13.38.27.56.42.04.03.08.07.11.1.14.13.27.25.39.39.04.05.08.09.14.13.01 0 .03 0 .04.02v.01c.13.2.27.4.4.6.1.16.19.32.29.48.15.25.28.5.42.75.07.13.14.26.22.39-.06-.03-.11-.05-.17-.08-.2-.09-.4-.18-.6-.26-.21-.08-.43-.17-.64-.25-.23-.08-.47-.16-.7-.25h.01c-.3-.1-.59-.2-.89-.3-.32-.11-.64-.22-.96-.31-.33-.09-.65-.19-.98-.25-.19-.04-.37-.08-.56-.11-.08-.01-.15-.03-.23-.04-.07 0-.15-.02-.22 0s-.14.04-.19.1a.36.36 0 0 0-.1.15c-.03.07-.02.16 0 .23.02.08.07.14.11.21.12.17.27.31.43.45.22.21.46.4.7.59.22.18.44.36.68.51.4.26.84.45 1.29.58.45.14.91.22 1.37.3.33.05.65.11.98.18.14.04.28.07.41.12.1.04.2.08.3.13.08.05.17.09.25.14.17.12.34.25.5.39h.01c.25.22.48.47.73.71.04.13.08.25.1.38 0 .03.01.06.02.09.02.2.05.39.08.58.15 1.21.29 2.43.43 3.64.16 1.41.33 2.81.48 4.22.16 1.39.35 2.77.55 4.15.18 1.26.41 2.52.63 3.77.23 1.26.46 2.53.75 3.78.13.54.26 1.08.38 1.61-.09-.13-.19-.27-.28-.41-.25-.36-.49-.72-.73-1.08-.17-.3-.35-.61-.53-.91-.19-.32-.38-.64-.59-.94-.42-.59-.91-1.13-1.32-1.73-.36-.56-.69-1.13-1.02-1.71.13.12.26.24.38.36-.33-.6-.68-1.2-1.14-1.7-.48-.86-.98-1.71-1.58-2.49-.05-.07-.12-.13-.17-.19l-.03-.18c-.08-.34-.16-.68-.23-1.02a.802.802 0 0 0-.05-.21c-.03-.09-.07-.17-.11-.26-.03-.07-.06-.14-.09-.2-.06-.14-.12-.27-.18-.41-.13-.29-.25-.59-.39-.88l-.45-.96c-.13-.28-.29-.54-.45-.8-.32-.54-.72-1.04-1.09-1.54-.37-.5-.73-1.02-1.1-1.53-.37-.5-.76-.99-1.13-1.49-.38-.51-.75-1.02-1.16-1.5l-.02-.02s-.01-.02-.02-.03c-.28-.32-.56-.64-.86-.93l-.87-.87c-.55-.56-1.03-1.19-1.59-1.74-.45-.45-.93-.87-1.41-1.28-.49-.43-1-.83-1.54-1.2-1.03-.72-2.09-1.39-3.13-2.08-.48-.33-.96-.66-1.43-1.01-.44-.32-.85-.68-1.26-1.03-.2-.18-.4-.36-.6-.53-.23-.21-.48-.39-.73-.58-.28-.2-.59-.37-.89-.53-.31-.16-.63-.3-.95-.44-.28-.12-.55-.24-.84-.35-.36-.13-.72-.26-1.1-.33-.36-.07-.71-.13-1.08-.15-.62-.03-1.23-.04-1.85-.08-.28-.04-.56-.07-.83-.12-.53-.12-1.05-.27-1.57-.41-.54-.15-1.09-.27-1.62-.46h-.03c-.47-.17-.93-.34-1.42-.45-.32-.07-.65-.12-.97-.12-.32 0-.63.02-.95.04-.13 0-.27.01-.4.03-.17.02-.29.1-.41.21-.12.1-.16.26-.19.41-.03.17.02.37.08.53.07.16.15.32.25.48.14.22.29.43.45.64.41.52.83 1.02 1.24 1.54.4.49.78 1 1.14 1.52.77 1.1 1.53 2.22 2.45 3.21.11.12.22.25.33.36l.4.37c.24.22.49.43.74.64.47.4.94.8 1.41 1.21l-.01-.01c.44.4.88.81 1.31 1.22.48.45.98.88 1.44 1.35.44.45.87.91 1.32 1.37.25.26.5.51.76.76.25.24.5.46.76.68.49.43 1.02.81 1.55 1.2.26.19.54.36.81.55.25.17.5.33.75.48.53.31 1.07.62 1.61.92.59.34 1.18.68 1.75 1.05.54.36 1.07.73 1.62 1.07.56.35 1.14.65 1.74.92.6.27 1.22.51 1.83.77.59.25 1.18.53 1.77.77.58.24 1.18.44 1.78.64.13.05.27.1.4.14.28.1.55.23.82.36.26.15.51.29.76.45.1.07.2.13.3.2.5.34.98.69 1.51.97.47.26.96.48 1.44.71.03.05.07.09.1.14.34.54.66 1.09 1.01 1.62l-.01-.01c.45.68.92 1.35 1.39 2.03.22.31.43.63.67.93.26.33.54.64.82.95.25.3.48.61.7.94.19.29.38.59.55.89.1.16.19.33.29.49.12.17.23.35.35.52l1.26 1.83c.4.62.8 1.24 1.15 1.89.27 1.12.55 2.24.83 3.36.32 1.26.66 2.52.99 3.78.16.62.32 1.24.49 1.85.17.6.32 1.21.51 1.81.02.08.05.15.07.23-.12.05-.24.09-.35.15-.13.07-.27.15-.39.24s-.25.18-.37.28c-.24.21-.5.4-.7.65l-.03.03c-.14.14-.28.27-.42.41-.15.16-.3.31-.45.47-.13.14-.26.28-.39.43-.26.28-.51.58-.73.89-.35.49-.67 1-.99 1.5-.19.31-.38.62-.58.92-.06.09-.12.17-.17.27-.05.09-.09.19-.13.29-.06.18-.11.36-.16.55-.05.19-.11.38-.16.57-.1.35-.2.7-.29 1.05-.1.37-.2.74-.29 1.11-.04.15-.06.3-.1.45-.03.15-.07.31-.09.46-.04.24-.08.47-.11.71-.03.15-.04.31-.06.47l-.06.51c-.02.23-.04.47-.05.7-.03.34-.04.67-.04 1.01 0 .38-.01.76 0 1.13s0 .01 0 .02v.05c0 .18.02.36.03.55s0 .02 0 .04c0 .22.04.46.06.7.02.24.05.47.07.7.05.47.12.93.19 1.39.05.38.12.76.19 1.13.06.35.12.7.2 1.04.08.37.16.75.27 1.11.11.35.22.69.35 1.03.13.35.29.68.47 1.01.09.16.19.33.31.47.09.1.21.19.35.19h.01c.13 0 .27-.07.36-.15.16-.14.28-.32.4-.5.08-.13.16-.27.24-.41.09-.17.19-.35.28-.52.1-.18.19-.35.29-.53.08-.15.18-.29.27-.44a10.162 10.162 0 0 1 .81-1.05c.11-.12.22-.25.33-.37 0 0 0 .01-.01.02l.03-.03s0 .01-.02.02c.11-.12.22-.25.33-.37l-.02.02c.25-.28.48-.58.71-.87.22-.28.43-.57.65-.85.22-.29.44-.57.66-.85.22-.27.44-.53.67-.8.47-.52.95-1.03 1.46-1.51.54-.52 1.09-1.01 1.66-1.5.13-.11.26-.23.4-.35.19.5.37 1.01.56 1.51.31.93.63 1.87.94 2.8.32.97.66 1.94.95 2.92.58 1.98 1.13 3.96 1.77 5.92.22.66.47 1.32.7 1.97.23.63.44 1.26.67 1.88.44 1.26.96 2.51 1.58 3.7.31.59.65 1.17 1.03 1.72.36.51.75.99 1.16 1.46.37.43.72.87 1.08 1.3.22.26.44.51.67.76.15.16.29.3.46.44.24.21.57.28.89.28h.03c.29 0 .57-.1.8-.27.18-.14.3-.32.41-.53.34-.68 0-1.46-.4-2.03-.19-.27-.4-.52-.66-.72-.12-.09-.24-.18-.37-.27-.2-.29-.4-.58-.61-.86-.49-.64-.99-1.27-1.45-1.93-.36-.57-.69-1.17-1-1.77-.31-.66-.6-1.33-.87-2.02s-.53-1.39-.8-2.08c-.25-.63-.52-1.26-.76-1.89-.08-.21-.15-.43-.23-.64 0-.46.01-.92.03-1.38.01-.51 0-1.02-.02-1.53-.02-.56-.04-1.12-.05-1.68-.01-.54-.02-1.09 0-1.63.02-.55.05-1.1.1-1.66.04-.53.08-1.07.11-1.6.06-1.11.12-2.23.21-3.34l.09-.89h.08c.05 0 .09 0 .13-.03l.09-.06c.11-.07.22-.14.34-.21.15-.1.3-.19.45-.29l.99-.63c.32-.2.62-.42.92-.65.15-.11.3-.23.44-.35.08-.07.16-.15.24-.22.07-.06.13-.14.19-.2.26-.28.5-.58.74-.88.24-.3.49-.61.72-.92.24-.32.47-.64.7-.97l.67-1v.01c.09-.14.19-.28.28-.42 0 .01-.02.03-.03.04.03-.04.06-.09.09-.13 0 0 0 .01-.01.02.16-.23.3-.46.45-.7.15-.24.26-.5.38-.75.11-.24.2-.49.29-.73.09-.23.16-.47.24-.7.24-.75.46-1.52.65-2.29.1-.4.18-.82.26-1.23.08-.39.15-.79.22-1.18.14-.78.25-1.56.35-2.35.05-.39.11-.78.17-1.16.06-.36.14-.71.21-1.07v-.05c.02-.1.05-.21.07-.31v-.02c.02-.1.05-.21.07-.31.06-.27.11-.53.16-.8.05-.28.11-.57.14-.86.07-.6.15-1.21.2-1.81v.04l.09-1.06c.13-1.62.23-3.23.35-4.85.01-.13.03-.26.04-.39.07-.27.13-.55.2-.82.13-.54.27-1.09.39-1.63.12-.54.22-1.09.26-1.65.02-.27.04-.54.04-.81v-.82zM46.07 82.89c0-.21.02-.43.03-.64.03-.36.07-.8.12-1.24.05-.4.11-.81.17-1.21.27-1.85.5-3.77.68-5.72v-.12c.09-.93.18-1.89.31-2.83.08-.57.16-1.1.25-1.62.06-.36.13-.71.2-1.06l.05-.28.05-.2c.08-.37.17-.74.28-1.11l.06-.2c.04-.16.09-.31.14-.47.08-.24.16-.49.24-.73.29-.81.62-1.61.94-2.39l.09-.21.11-.27c.15-.36.3-.72.44-1.09.2-.51.39-1.02.58-1.53.15-.42.3-.86.43-1.28v-.03c.14-.38.27-.77.39-1.15l.1-.29.18-.49.33-.9c.15-.4.31-.8.47-1.2l.04-.11c.18-.47.35-.89.51-1.33.15-.43.33-.92.46-1.41l.08-.28c.11-.39.23-.79.31-1.19.11-.51.22-1.01.31-1.53.09-.48.16-.97.23-1.43.07-.46.13-.93.19-1.39.11-.91.26-1.85.46-2.86.01.05.02.1.04.15l.05.18.02.08c.11.46.23.91.37 1.35.17.54.32.98.46 1.37.08.23.17.46.26.69s.18.46.26.69v-.02.02l.03.06c.02.06.04.13.06.19.27.81.59 1.78.86 2.76.08.3.16.6.23.9.04.15.07.3.11.45.06.25.13.5.19.75.06.23.11.47.16.7v-.03.02c0 .04.01.08.02.12.02.11.04.21.05.32V54l.04.32c.01.35.02.75 0 1.15-.02.37-.03.74-.06 1.11l-.02.18c-.03.33-.06.67-.11.99-.07.4-.14.8-.22 1.2v.06c-.1.4-.19.82-.3 1.22-.14.49-.27.92-.4 1.34l-.87 2.7v.03l-.04.08-.02.05-.08.22v.02h-.01s0 .02-.01.03v.02l-.01.03-.03.1v.04l-.03.04v.01c-.07.21-.15.41-.22.62-.11.3-.22.61-.32.91-.19.56-.37 1.13-.56 1.7-.3.94-.58 1.83-.85 2.71l-.12.4c-.1.32-.19.64-.29.96-.15.48-.31.96-.48 1.43v.03c-.02.05-.04.11-.06.16l-.11.3-.3.81c-.33.94-.68 1.9-1.05 2.84-.37.92-.8 1.83-1.18 2.61l-.12.24c-.11.2-.21.41-.33.61l-.09.16c-.15.26-.3.52-.46.77-.34.55-.71 1.12-1.17 1.81l-.08.12c-.31.46-.64.93-1 1.36l-.03.04c-.13.14-.28.29-.44.44-.19.16-.36.3-.54.42-.09.06-.18.11-.27.17.2-.5.39-.99.59-1.48.22-.57.45-1.14.68-1.7l.17-.42c.17-.42.35-.84.51-1.27.23-.59.42-1.19.58-1.69.17-.55.34-1.15.54-1.89l.14-.53c.1-.39.21-.78.32-1.16.09-.32.18-.62.27-.92s.19-.58.28-.86v-.03l.02-.03v-.05l.02-.03c.15-.41.31-.82.46-1.22.08-.2.16-.41.24-.61.12-.33.25-.66.37-1 .12-.34.25-.69.37-1.05.22-.66.42-1.26.59-1.82.17-.56.33-1.09.47-1.6.29-1.07.56-2.23.83-3.54.2-.97.39-1.96.57-2.93.12-.62.23-1.24.34-1.86.09-.55.16-1.13.21-1.73.11-1.49.2-2.63.29-3.69.05-.54.09-1.14.14-1.75l.06-.94c.02-.32.04-.64.05-.96.02-.45.03-.91.04-1.36v-3.05c0-.17 0-.35-.16-.42h-.05c-.05 0-.1.03-.13.07a.46.46 0 0 0-.07.14c-.01.08 0 .17 0 .25v2.24c0 .59-.03 1.2-.06 1.82v-.03l-.01.18v.19l-.02.12c-.05.66-.1 1.35-.17 2.02l-.15 1.43-.07.71c-.07.64-.13 1.28-.18 1.93l-.02.25c-.05.51-.09 1.05-.15 1.57-.06.55-.17 1.1-.28 1.64l-.03.13c-.07.37-.15.74-.22 1.11l-.12.62v-.01l-.05.26-.07.32c-.57 2.76-1.16 4.99-1.86 7l-.04.11-.11.31v-.02c-.07.19-.14.39-.21.59 0 .02-.02.05-.03.07-.14.38-.28.75-.41 1.09-.03.07-.06.14-.08.21-.14.35-.28.69-.42 1.02-.14.32-.28.63-.42.95-.11.25-.22.49-.33.74-.23.52-.45 1.09-.69 1.74-.25.68-.47 1.38-.69 2.06-.15.46-.29.92-.45 1.38l-.08.23c-.17.47-.34.96-.53 1.44-.21.54-.44 1.08-.64 1.54-.1.24-.21.48-.31.72v-.15zm-8.91-49.77-.05.05c-.06.05-.12.11-.18.16-.03.02-.06.05-.09.07.11-.09.21-.18.32-.27zm-3-24.58v.03l-.18-.58c-.06-.18-.13-.37-.2-.54-.14-.36-.28-.73-.4-1.1l-.03-.12c.19.39.53.68.94.82-.02.15-.04.31-.05.46-.01.14-.03.27-.03.41 0 .08-.01.16-.01.25v.54c-.02-.05-.03-.1-.05-.16zm-2.12 15.27c-.05-.15-.08-.31-.12-.46.04-.03.06-.09.04-.13l-.09-.21c-.02-.04-.03-.08-.05-.11 0-.01-.01-.03-.02-.04v-.01c-.09-.34-.17-.67-.26-1.01-.07-.28-.14-.57-.2-.85-.07-.31-.14-.62-.22-.92-.05-.19-.11-.38-.17-.57.21-.09.39-.22.54-.39 0 .05-.02.11-.02.16-.01.59.38 1.13.92 1.33l-.09.52c-.08.59-.12 1.2-.15 1.79 0 .15-.02.3-.02.44 0 .1 0 .2-.02.31v.28c-.02-.05-.04-.09-.05-.14zm-6.91 38.08a6.215 6.215 0 0 0-.94-.91c-.27-.21-.53-.39-.81-.55-.28-.17-.56-.33-.83-.51l-.02-.02a3.68 3.68 0 0 1-.39-.3l.02.02-.02-.02c-.07-.06-.13-.12-.19-.19-.04-.05-.08-.09-.11-.14-.04-.06-.07-.12-.11-.18-.02-.05-.05-.11-.06-.16-.03-.08-.05-.17-.06-.26l-.03-.23v-.26c0-.05.01-.1.03-.15 0-.01.01-.04.02-.07 0-.03.02-.05.03-.08 0 0 .02-.03.03-.06l.02-.03s.02-.03.04-.04l.03-.02s-.01 0-.02.01c0 0 .01 0 .02-.01 0 0 .02-.02.04-.02h.07l.05-.01h-.02.14s.09.03.13.05c.08.03.17.07.25.11a1.507 1.507 0 0 1 .36.25c.12.11.23.23.31.32l.3.36c.08.1.16.21.24.32l.04.06c.26.41.48.83.73 1.3.23.44.46.88.65 1.28.03.05.05.11.08.17zm1.77 5.78c-.08-.04-.16-.08-.25-.11-.29-.12-.59-.2-.85-.26-.22-.06-.45-.1-.68-.14-.25-.04-.48-.09-.7-.14s0 0-.01 0h.01c-.06-.01-.11-.03-.17-.04-.2-.05-.39-.12-.58-.18-.18-.07-.37-.15-.54-.24-.08-.05-.16-.09-.24-.14l-.15-.12-.1-.1c-.04-.05-.08-.1-.11-.15-.04-.07-.08-.13-.11-.2-.03-.06-.05-.13-.08-.19-.04-.12-.07-.24-.1-.38-.03-.15-.04-.28-.05-.4v-.13c0-.04 0-.08.02-.11v-.08l.03-.03.02-.02h.05c.08-.01.15 0 .23 0 .14.02.27.03.41.06l.3.09c.14.05.28.11.42.18.2.1.39.22.61.36.35.24.68.51 1 .77l.06.05c.17.15.34.3.5.47l.07.06c.07.06.13.13.2.2l.13.15.13.15c.18.21.31.38.43.53l.07.09zm.84-2.16-.09-.48-.1-.49v.02c-.02-.09-.03-.18-.05-.27 0-.03 0-.06-.01-.09-.05-.29-.1-.58-.14-.89-.05-.35-.08-.73-.11-1.2-.01-.29-.02-.65 0-1.02.01-.09.03-.19.04-.28 0-.01 0-.03.01-.04v-.03h.02v-.01h.02l.03.02s.05.04.07.06c.05.04.09.09.13.13l.18.24c.08.12.15.24.21.37.05.11.09.22.14.34.07.22.12.45.16.68.03.22.05.42.06.6v.4c-.02.2-.05.41-.1.63 0 .03-.02.06-.03.09-.04.14-.07.29-.12.44l-.04.12c-.08.21-.18.43-.3.67zm5.18 12.22-.31-.03-.4-.02c-.22 0-.45-.02-.67-.03h-.12c-.09-.02-.17-.03-.26-.04-.13-.02-.27-.05-.4-.07-.37-.09-.68-.17-.99-.27-.18-.06-.35-.14-.52-.22h-.01c-.01 0-.03-.01-.04-.02-.06-.03-.12-.07-.18-.11-.05-.04-.1-.07-.15-.12l-.09-.09c-.02-.02-.03-.04-.05-.06-.01-.02-.03-.05-.04-.07 0-.01-.01-.03-.02-.05v-.06h.13c.16.02.31.04.44.06.14.02.26.04.38.07l.11.02h.03l.06.02h-.03.08l.08.02h-.02.02c.05 0 .1.02.15.04l.09.02.08.02c.06.02.12.03.17.05.18.06.35.11.53.17.34.12.67.25 1.01.37.21.08.42.17.63.25l.32.13zm-3.4-5.15c-.09-.06-.18-.11-.28-.15-.22-.1-.44-.18-.65-.23-.13-.03-.25-.04-.38-.06-.25-.04-.51-.05-.76-.07l-.24-.02c-.26-.03-.54-.05-.81-.11-.16-.04-.32-.08-.49-.14-.2-.07-.4-.15-.59-.25-.16-.08-.28-.15-.4-.23-.07-.05-.15-.11-.22-.17-.05-.04-.09-.09-.14-.14-.04-.04-.07-.09-.1-.13a.3.3 0 0 1-.04-.08s-.02-.04-.03-.07v-.04l-.02-.03v-.04h.1c.19 0 .38.02.58.03h.06c.43.04.92.1 1.41.2.28.06.54.13.78.22h-.02.04s-.01.01-.02 0c.22.08.45.18.66.28h-.01l.04.02s-.02 0-.02-.01c.25.13.49.28.75.45l.11.08.08.06.14.1c.05.04.11.06.18.09.09.15.19.3.29.45zm1.88.71c-.08-.18-.16-.37-.24-.56-.05-.12-.09-.23-.14-.35l-.06-.17c-.13-.32-.24-.65-.34-.96l-.04-.13c-.08-.24-.16-.49-.23-.74l-.04-.15c-.03-.1-.06-.19-.08-.29l-.04-.18c-.03-.11-.05-.21-.08-.32l-.03-.19-.03-.16c-.04-.2-.06-.42-.07-.63v-.45.02V68c0-.08.02-.16.04-.25.01-.06.03-.12.05-.18.02-.05.04-.1.06-.14.02-.04.04-.07.06-.11.02-.03.05-.06.07-.09l.06-.06v.01c.02-.02.04-.04.06-.05l.03-.02s.04-.02.05-.02h.1c.02 0 .04.02.06.03l.03.03.01.01h.02s.05.08.08.12c.03.05.05.09.08.14.05.1.09.21.14.34.06.2.12.42.17.66.04.22.08.44.1.66.03.24.06.49.08.73.04.38.06.77.09 1.14v.21l.01-.04v.14l.03.74c0 .28.01.55.03.83.02.29.06.58.15.85l-.02-.04-.18-.39zm4.29 4.97-.02-.06-.02-.06c-.11-.31-.21-.62-.32-.93l-.04-.12c-.16-.5-.34-1.07-.5-1.64-.15-.51-.25-1.02-.36-1.55-.04-.25-.08-.54-.11-.85v.03-.33h.03c.03.02.05.04.07.05l.1.1c.05.06.1.13.15.2h-.01s.03.03.04.05c.08.12.15.24.21.38.1.22.17.4.23.58l.05.15.05.15.03.13.03.13.02.08s.03.09.04.14l.04.23.04.23a31.972 31.972 0 0 1 .16 1.56l.03.3c.04.47.09.89.15 1.27-.04-.09-.07-.18-.1-.26zm2 5.29a3.038 3.038 0 0 0-.85-.37c-.16-.04-.31-.08-.47-.11-.24-.04-.48-.07-.72-.1l-.18-.02c-.18-.02-.37-.05-.56-.08-.19-.03-.39-.06-.58-.11-.2-.05-.4-.1-.6-.17-.18-.06-.36-.14-.53-.23h.02-.02.02s-.07-.04-.1-.06c-.03-.01-.04-.03-.07-.04-.13-.07-.24-.14-.34-.21l-.03-.02.02.01c-.1-.07-.2-.15-.3-.22l-.13-.09c-.21-.16-.4-.31-.59-.47l-.17-.15s-.07-.07-.11-.1c.05 0 .09.01.14.02.18.03.36.06.53.09.23.05.45.11.68.17.24.06.47.14.7.21.39.12.74.25 1.1.37l.23.08h.03c.23.09.45.17.68.25.14.05.27.1.39.15.09.04.17.07.26.1.06.03.13.05.19.08l.1.05.08.04c.07.03.15.06.22.1.19.1.38.19.57.3l.19.11.2.37zM33.54 97.5l-.66-.39c-.22-.15-.44-.31-.66-.47l-.29-.21-.57-.39c-.07-.05-.15-.1-.24-.15-.09-.05-.18-.1-.28-.15l-.13-.06c-.13-.06-.27-.13-.4-.19-.21-.08-.42-.16-.64-.24-.25-.08-.49-.17-.74-.25l-.39-.13c-.44-.17-.84-.32-1.24-.49l-.12-.05c-.41-.18-.83-.37-1.25-.54-.26-.11-.53-.21-.79-.32-.19-.08-.39-.16-.59-.24-.39-.16-.75-.33-1.19-.54-.22-.11-.42-.22-.61-.33-.41-.24-.81-.49-1.2-.74l-.42-.27c-.58-.36-1.18-.71-1.79-1.04l-.49-.26c-.43-.23-.85-.46-1.27-.69-.52-.29-1.03-.61-1.52-.93l-.08-.05-.21-.14c-.27-.19-.56-.38-.82-.59-.33-.26-.69-.55-1.12-.91l.02.02a2 2 0 0 0-.22-.19c-.14-.13-.28-.25-.41-.38l-.07-.07c-.2-.19-.39-.38-.58-.58-.56-.57-1.03-1.02-1.47-1.44l-.63-.57c-.25-.22-.49-.44-.74-.67-.5-.47-1.01-.94-1.52-1.4-.27-.25-.55-.49-.83-.73-.18-.15-.35-.31-.53-.46l-.28-.28-.28-.28-.35-.41-.16-.19c-.1-.12-.19-.24-.28-.37l-.08-.11c-.26-.35-.5-.71-.74-1.08v-.03c-.02-.04-.05-.08-.07-.12-.13-.21-.27-.44-.41-.67-.29-.48-.58-.96-.88-1.44-.35-.56-.73-1.11-1.1-1.65l-.28-.4-.02-.03c-.18-.29-.37-.59-.52-.9v-.01h.62c.13.01.25.03.38.06.14.04.28.07.42.12.23.08.47.19.75.33l.35.18c.43.22.88.46 1.34.65.28.11.56.22.84.32l.08.03c.33.12.65.24.97.32l.09.02c.29.07.6.15.9.19.37.05.67.09.95.11.1 0 .2.02.31.03l.68.06c.3.04.62.09.96.15l.09.02.09.02h-.02.08l.08.02c.41.11.79.22 1.14.32.35.1.68.2 1 .3l.15.05.19.07c.26.11.51.22.76.34.01 0 .02.01.03.02.31.17.61.35.92.53l.78.45c.21.12.43.24.64.36.33.18.65.36.98.55 1.18.68 2.25 1.3 3.28 2 .26.18.51.36.77.54.22.16.43.34.63.51l.05.04c.71.65 1.33 1.25 1.87 1.85.19.22.37.44.55.67.32.39.65.79 1 1.16.18.19.36.37.54.55.1.1.2.2.29.3.28.29.55.58.83.89l.84 1.05.35.45c.18.23.36.45.55.67a30.75 30.75 0 0 1 1.13 1.43c.2.27.41.53.62.8l.07.09c.34.44.7.89 1.02 1.36.16.25.32.5.47.76.12.2.23.41.34.62l.11.2c.23.42.44.84.66 1.27l.21.4v-.02l.02.04v-.02s.02.08.04.12l.05.17.06.2v.01c-.02-.02-.03-.03-.04-.05-.05-.05-.1-.09-.15-.14l-.27-.25-.27-.25c-.17-.16-.32-.33-.47-.49-.18-.22-.36-.43-.54-.65l-.17-.21c-.3-.37-.59-.71-.89-1.03-.38-.42-.8-.81-1.21-1.2-.15-.14-.3-.28-.45-.43l-.41-.39-.73-.7a39.985 39.985 0 0 0-2.31-2.01 42.3 42.3 0 0 1-1.09-.92l-.04-.03-.02-.02s-.06-.06-.1-.09l-.08-.06c-.31-.28-.63-.57-.97-.82-.41-.31-.84-.62-1.31-.93l.03.02s-.02-.01-.03-.02c.01 0 .02.02.03.02s-.04-.03-.06-.04l-.1-.07-.19-.13c-.37-.25-.75-.54-1.22-.91-.15-.12-.29-.24-.43-.35-.23-.19-.46-.38-.69-.56-.39-.3-.83-.61-1.34-.94-.17-.11-.35-.22-.53-.32l-.14-.08c-.14-.08-.28-.17-.42-.26l-.17-.11-.27-.19-.1-.06c-.06-.04-.12-.08-.18-.13l-.2-.16-.4-.31c-.19-.17-.38-.35-.58-.53l-.09-.08-.15-.15c-.05-.06-.11-.11-.17-.16-.06-.05-.12-.1-.19-.14-.04-.02-.09-.04-.13-.06-.04-.02-.07-.03-.11-.05l-.17-.08s-.05-.03-.08-.04c-.16-.08-.32-.17-.48-.26-.25-.14-.5-.28-.76-.4-.23-.12-.45-.27-.67-.42l-.16-.11c-.19-.13-.37-.25-.55-.38l-.06-.04c-.06-.04-.12-.09-.18-.12-.02-.01-.04-.03-.06-.04-.05-.03-.1-.06-.15-.08a.353.353 0 0 0-.14-.03c-.08.02-.07.09-.07.14 0 .13.14.21.25.27.02.01.05.03.07.04.35.25.69.51 1.03.77.05.03.09.07.14.11.07.06.15.12.23.17l.24.15c.06.04.12.07.18.11l.18.12c.13.08.26.17.39.26.12.08.25.17.37.26l.07.05c.1.07.21.15.31.23l.07.07.07.09c.07.09.15.17.23.26l.16.16.16.16.08.09c.11.11.22.23.34.34l.15.14c.12.12.24.23.37.34l.18.15c.11.1.23.2.34.29l.16.13c.12.09.24.19.36.27l.18.13c.12.09.25.18.37.27l.17.14c.12.09.24.18.35.27l.17.14c.11.09.22.17.32.27.32.29.66.59.99.9l.15.14c.16.15.33.31.52.47.18.16.38.32.58.48.22.17.44.34.66.5l.21.15c.1.07.2.14.29.21.21.16.42.32.63.49.18.14.35.29.51.43.19.17.37.35.56.52.2.19.41.39.62.58.3.28.61.56.92.83l.24.21.04.03.15.14.17.16c.4.36.78.72 1.14 1.06.36.34.71.68 1.04 1.02.23.23.46.46.7.69l.42.41c.31.31.63.64.97 1.02.19.23.38.46.56.69.3.37.61.75.93 1.11.24.27.51.52.77.77l.03.03c.21.2.41.4.61.61zm15.83 38.09-.32.31c-.4.4-.82.81-1.22 1.23-.24.25-.51.54-.76.83-.27.32-.51.62-.74.92-.37.48-.71.99-1.04 1.48l-.24.37.02-.02-.05.07.02-.03-.04.06-.03.05-.17.25-.05.07c-.22.32-.45.63-.63.87-.13.17-.26.33-.4.49-.09.1-.17.21-.26.31-.23.28-.47.59-.68.91-.2.3-.39.63-.57.97-.08.15-.16.3-.24.46l-.02.04c-.14.26-.28.53-.45.77-.06.08-.12.16-.19.24l-.06.06-.04.03-.03.02s-.05.03-.07.03h-.09v-.01s-.02 0-.03-.01l-.03-.02-.05-.05c-.05-.06-.08-.11-.12-.17-.09-.14-.16-.28-.24-.43-.1-.22-.18-.41-.26-.6-.07-.2-.14-.4-.2-.6-.09-.31-.17-.6-.25-.9-.06-.23-.1-.46-.15-.69l-.03-.15v-.02c0-.03-.01-.06-.02-.09l-.02-.12-.04-.22c-.03-.18-.07-.39-.1-.6-.13-.75-.24-1.54-.34-2.33-.08-.64-.13-1.35-.17-2.16 0-.46-.02-.93 0-1.39v-.25c0-.16 0-.31.02-.46l.02-.22c.01-.18.03-.35.04-.53.03-.25.05-.48.08-.71l.06-.43.02-.12c.06-.41.14-.82.22-1.2.13-.52.27-1.05.4-1.57.04-.14.08-.28.11-.41l.07-.25.06-.23.07-.23.05-.17.12-.42c.03-.07.05-.14.09-.21.05-.09.11-.18.17-.27.04-.05.07-.11.1-.16l.09-.14.09-.14.07-.11.18-.28.14-.23c.21-.33.42-.67.64-1 .12-.18.27-.39.42-.59.15-.2.31-.38.46-.56.22-.24.45-.5.68-.75.11-.05.21-.1.32-.14.13-.06.26-.11.39-.17.17-.08.33-.19.45-.28l.3-.21.16-.11.36-.24c.11-.06.23-.13.34-.18.22-.1.44-.19.66-.27.1-.03.19-.05.29-.07s-.03.04-.03.04l-.04.05c-.1.11-.2.22-.3.34-.19.22-.38.45-.59.72-.17.22-.34.45-.51.71l-.02.03c-.07.1-.14.21-.2.31l-.13.21-.05.08-.02.04s-.04.06-.06.1l-.08.16-.09.17-.04.07c-.03.06-.07.12-.1.19l-.08.19-.08.19-.03.07c-.03.07-.06.13-.09.2l-.06.17c-.08.21-.16.42-.24.64-.11.31-.21.62-.31.94l-.09.29c-.15.46-.3.94-.47 1.41l-.09.24c-.05.15-.11.29-.16.44v-.04l-.03.11c-.06.17-.13.35-.19.53-.1.29-.19.55-.27.81l-.04.13c-.03.1-.06.2-.09.31-.05.17-.09.34-.13.51-.03.11-.05.23-.07.34l-.03.16-.03.16v.06s-.03.07-.03.11l-.03.17c-.03.21-.07.42-.09.64l-.03.34v.06s-.01.08-.02.12c0 .16-.02.33-.03.49v.03c-.02.25-.03.53-.03.84v.93c0 .16.01.32.02.48 0 .15.02.3.03.44v.13c0-.25 0-.47.02-.69 0-.12.01-.24.02-.36v-.12c.03-.22.05-.46.08-.69.03-.25.07-.5.1-.76.07-.46.16-.93.24-1.32l.05-.22c.03-.11.06-.23.08-.34.03-.1.06-.21.08-.31l.04-.12v-.05c.05-.12.08-.24.12-.36l.09-.26.09-.26.21-.6v-.03c.16-.4.31-.8.46-1.2.02-.06.05-.13.07-.19.08-.22.16-.44.23-.66.1-.31.21-.62.3-.93.1-.3.19-.61.29-.91l.11-.35.04-.12c.03-.1.06-.2.1-.3v.02l.03-.1c.07-.19.13-.38.2-.56l.14-.34.12-.29c.03-.06.06-.12.08-.18l.05-.1.05-.09.09-.19.1-.19.16-.3c.06-.1.12-.21.18-.31l.09-.15c.06-.1.12-.2.18-.29l.09-.14c.07-.11.14-.22.21-.32l.05-.07.06-.08c.11-.16.22-.32.34-.48.15-.2.3-.4.45-.58l.02-.03c.13-.02.26-.03.39-.04h.4c.15.02.28.04.42.06.08.02.16.05.25.07.11.04.21.09.32.14.21.11.41.23.62.37h-.03c.06.03.12.07.17.11.06.04.11.08.17.12l.11.08c.12.09.23.17.32.24.25.19.53.41.79.63.21.19.4.39.59.6.26.31.51.62.76.93l.2.25c.36.45.65.83.91 1.21.08.12.15.24.22.36.06.1.11.2.16.3l.03.05c.07.15.13.29.19.44.04.13.07.26.1.38.04.23.06.44.08.66v.29c0 .07-.02.15-.03.22-.02.07-.04.14-.06.2-.05.13-.11.26-.17.39-.05.1-.11.19-.17.28-.11.15-.23.3-.35.45-.28.31-.58.61-.87.89-.15.15-.3.29-.44.44-.3.3-.59.62-.87.92-.16.17-.31.34-.47.51-.52.56-1.08 1.1-1.55 1.57zm8.24-2.58v-.12h.07c.07 0 .14-.03.21-.05l-.3.18zm10.56-26.43-.12 1.47c-.13 1.45-.27 2.96-.58 4.44-.08.34-.16.69-.25 1.03-.09.34-.18.67-.26 1.01-.04.18-.09.37-.12.55-.11.54-.19 1.06-.26 1.48l-.04.28c-.04.3-.09.6-.14.91-.06.38-.13.76-.2 1.15-.14.78-.29 1.59-.45 2.4-.13.55-.23.97-.34 1.37-.14.5-.28.99-.44 1.47l-.08.23-.04.11v.02c0 .03-.03.08-.04.12-.03.08-.06.17-.1.25l-.06.14c-.03.08-.07.16-.1.23-.13.25-.27.51-.42.77-.1.17-.2.33-.3.49l-.15.24-.27.44c-.23.37-.46.75-.7 1.11-.47.68-.86 1.23-1.25 1.72l.14-.2.1-.15c.15-.21.28-.43.4-.64l.06-.1c.06-.1.11-.19.16-.29l.08-.17.13-.26c.1-.21.19-.42.28-.63l.06-.14.02-.04c.09-.22.19-.45.27-.69.1-.31.17-.56.23-.81.13-.57.22-1.13.3-1.66.07-.47.13-.99.18-1.62.04-.52.09-1.05.11-1.58.03-.5.04-1.01.04-1.56 0-.6.01-1.14.05-1.63.08-.79.19-1.57.34-2.32v.04c.05-.24.11-.47.18-.71.05-.21.12-.42.18-.62.04-.15.08-.3.13-.44.15-.48.31-.96.48-1.46.21-.59.39-1.04.57-1.46.17-.39.36-.8.6-1.28l.06-.11.06-.11c.24-.46.51-.92.77-1.36l.06-.1c.23-.39.5-.86.71-1.35v.05zm.68-9.16c0 .07-.02.15-.02.22-.03.33-.04.66-.03 1.02v.46c0 .16 0 .33-.01.51 0 .29-.03.58-.05.87-.01.07-.02.15-.04.22-.04.21-.08.43-.13.64v.06c-.11.44-.21.88-.31 1.31-.08.33-.16.67-.23 1-.09.39-.18.78-.28 1.17-.04.16-.09.33-.14.51-.06.18-.12.37-.19.58-.06.15-.12.29-.18.44-.06.14-.13.28-.2.41-.15.29-.31.57-.48.85-.11.2-.23.4-.34.61-.26.48-.51.97-.75 1.48-.25.53-.45 1.03-.63 1.52s-.36 1-.54 1.58l-.1.3c-.14.42-.28.85-.4 1.29-.08.29-.15.58-.21.86-.06.25-.1.51-.14.77v.05c-.1.54-.16 1.1-.21 1.62-.06.56-.07 1.14-.08 1.66-.01.59-.03 1.11-.06 1.58l-.09 1.26-.03.33v.21c-.08.94-.21 1.85-.39 2.72-.05.21-.1.41-.16.62-.05.18-.11.36-.17.54l-.06.15c-.08.21-.17.43-.26.64-.12.3-.25.59-.39.88-.04.07-.07.14-.11.21l-.04.07s-.05.09-.07.14l-.13.22-.13.22-.05.07c-.13.19-.26.38-.4.56l-.05.06c-.06.07-.11.14-.17.21-.08.1-.16.19-.25.29l-.27.28c-.06.06-.11.11-.17.16l-.08.08-.05.04c-.09.07-.17.14-.26.21l-.32.23c-.23.15-.44.27-.65.39-.1.06-.21.11-.31.16l-.24.12c.05-.26.09-.52.13-.77.08-.46.17-.95.3-1.56l.06-.24c.08-.32.16-.66.26-.98.12-.4.25-.8.38-1.2.28-.84.56-1.66.81-2.48.07-.25.15-.5.22-.75.08-.29.17-.58.26-.87l.24-.79c.08-.26.17-.53.25-.79.15-.49.28-1 .38-1.53.06-.28.11-.56.16-.83.28-.86.54-1.74.81-2.68l.42-1.53c.05-.18.09-.36.14-.54.02-.07.04-.14.06-.2l.04-.12c.08-.25.15-.5.22-.76l.02-.06.06-.25.03-.13.03-.13c.02-.07.03-.15.05-.22.05-.29.11-.58.15-.88.07-.45.12-.93.18-1.53v-.04c.02-.27.05-.57.07-.87.02-.3.04-.62.04-.93.01-.48 0-.97-.01-1.44v-.12c0-.24-.01-.49-.02-.75-.01-.28-.02-.57-.04-.85-.01-.21-.03-.42-.04-.62l-.06-.9v-.2h-.01v.02-.07c-.01-.24-.02-.48-.04-.73-.02-.28-.05-.57-.09-.85v-.12c-.04-.18-.06-.37-.08-.55-.03-.22-.05-.41-.08-.59s-.06-.34-.09-.49a.516.516 0 0 0-.5-.39h-.05c-.25.03-.45.25-.45.5 0 .09.01.19.03.28v.1c.02.09.03.17.05.26l.06.42.02.14.06.44.09 1.14.02.31c.07.99.13 2 .18 3.02.03.97.04 1.85.02 2.7v.22c0 .36-.02.72-.03 1.08 0 .26-.02.52-.04.78 0 .15-.02.3-.03.45v.17l-.01-.02c0 .07-.02.14-.02.22-.03.31-.07.63-.12.94-.04.31-.11.62-.17.92l-.02.11c-.12.5-.24 1-.37 1.5-.03.13-.07.26-.1.39l-.27.78c-.12.36-.23.75-.33 1.24-.03.16-.06.31-.09.46l-.01.04c-.14.48-.3.96-.45 1.38-.14.38-.29.82-.47 1.24l-.16.39-.33.81c-.17.42-.33.85-.48 1.28l-.39 1.11-.02.05c-.35 1.04-.72 2.13-.99 3.22-.1.41-.19.83-.28 1.26-.09.43-.16.88-.24 1.35-.01-.08-.03-.16-.04-.24-.05-.32-.1-.64-.14-.96l-.03-.19c-.07-.51-.14-1.02-.22-1.53-.04-.26-.08-.52-.13-.8s-.1-.57-.15-.88c-.18-1.04-.39-2.1-.59-3.13l-.02-.1-.02-.11c-.06-.36-.13-.74-.18-1.11-.03-.23-.05-.46-.07-.7l-.03-.44v-.12c-.02-.29-.02-.58-.02-.87 0-.26.02-.53.03-.78v-.1c.02-.2.04-.39.07-.59.03-.21.07-.42.11-.63v-.06c0-.03.01-.06.02-.09l.02-.07v-.03l.01-.02v-.02c0-.03 0-.06.02-.09v-.04l.02-.07c.12-.55.27-1.1.42-1.63l.02-.06.09-.32c.12-.44.25-.89.36-1.33.04-.17.09-.34.13-.51.09-.35.18-.69.28-1.04.11-.39.23-.78.36-1.17l.14-.45c.17-.57.3-1.14.4-1.57.09-.4.16-.82.23-1.23l.04-.22c.08-.48.17-.95.26-1.43.04-.21.08-.43.13-.64.06-.3.12-.6.17-.89.1-.54.19-1.07.29-1.61l.27-1.43c.12-.6.24-1.21.34-1.82l.12-.66c.15-.87.31-1.78.41-2.68.07-.59.11-1.14.13-1.68v-.27c.02-.18.02-.36.03-.55.01-.27.03-.55.05-.82s0-.06.01-.1c.03-.27.06-.54.1-.81l.06-.41c.03-.19.06-.38.08-.58v-.05c.05-.29.09-.59.13-.9.04-.3.06-.6.08-.91.03-.56.03-1.12.03-1.63v-1.64c0-.45-.03-.9-.06-1.33v-.2c-.05-.56-.08-1.13-.1-1.69v.02c0-.25-.02-.5 0-.74v-.05h.01c.03.02.06.03.09.05h-.02s.05.03.07.04c.14.1.26.21.38.31l-.03-.02.05.04c.26.23.53.47.78.72.12.12.24.24.36.38.13.14.26.29.41.46.31.37.62.73.9 1.12.3.41.59.82.86 1.23l.02.03s-.01-.02-.02-.03c.24.37.44.71.63 1.06.17.32.34.65.49.97l.03.05c.19.39.37.78.55 1.18l.06.13c.15.34.31.68.45 1.03.31.74.6 1.54.9 2.46.11.33.2.64.29.93.09.29.17.56.25.83l.03.11c.08.28.16.55.23.83.03.12.07.25.1.39s.06.29.1.46v.05a6.563 6.563 0 0 1 .13 1v.02zM34.3 82.79z" class="cls-1"/></g></svg>