<svg xmlns="http://www.w3.org/2000/svg" id="Layer_2" data-name="Layer 2" viewBox="0 0 55.83 143.22"><defs><style>.cls-1{fill:#bba085}</style></defs><g id="OBJECTS"><path d="M55.53 85.67a.446.446 0 0 0-.55.28c0 .01 0 .02-.01.04 0 .01 0 .03-.01.04-.06.14-.13.28-.2.42-.14.24-.29.48-.45.7-.43.57-.91 1.1-1.4 1.63-.17.19-.34.37-.51.55-.2.21-.4.42-.59.63-.18.2-.36.41-.54.61-.11.12-.22.25-.33.38L50.07 92l-.46.55c-.1.12-.2.23-.3.35-.04.05-.08.1-.12.14-.29.31-.57.63-.86.94-.58.57-1.17 1.14-1.76 1.7-.28.26-.54.55-.81.82-.11.11-.22.22-.32.33-.15.17-.3.35-.44.52-.1.11-.19.23-.29.34-.03.04-.07.07-.1.11-.15.2-.31.4-.46.61-.11.15-.22.29-.33.44-.16.23-.33.46-.49.69-.25.36-.49.72-.74 1.08-.1.15-.21.31-.32.46-.12.18-.24.36-.37.53s-.03.04-.04.06c0-.01.02-.03.03-.04-.16.21-.32.43-.47.65-.08.11-.16.21-.23.32 0-.01.02-.03.03-.04-.02.02-.04.05-.05.07 0-.01.02-.03.03-.04v.01c-1.02 1.33-2.09 2.62-3.12 3.95-.53.68-1.04 1.38-1.56 2.07-.26.34-.53.68-.81 1.01-.26.31-.54.61-.82.9l-.02.02c-.14.14-.27.28-.41.42l.04-.04c-.02.03-.05.05-.07.08l.04-.04c-.13.14-.26.27-.39.41l.04-.04-.05.05c-.26.27-.52.55-.79.8-.29.28-.59.55-.89.82-.62.57-1.24 1.14-1.85 1.72-.61.59-1.22 1.18-1.82 1.79-.29.29-.57.58-.86.87-.33.33-.66.65-.98.99-.11.11-.23.22-.34.33-.05.05-.11.11-.17.16-.15.1-.29.2-.44.29-.02.01-.04.03-.06.04.21-.45.43-.89.62-1.35.25-.59.51-1.19.74-1.79.47-1.2.95-2.4 1.38-3.61.46-1.29.92-2.58 1.32-3.9.04-.13.08-.25.12-.38.11-.16.21-.33.32-.49.17-.26.33-.52.49-.79.07-.11.13-.22.19-.34.07-.13.15-.26.22-.39.13-.25.27-.49.39-.75.28-.56.56-1.13.84-1.7.14-.29.29-.58.43-.87.12-.24.25-.47.38-.71.01-.02.02-.04.03-.05 0 .08 0 .17.01.25.28-.23.55-.48.78-.77.1-.13.2-.26.28-.39.09-.16.17-.32.25-.49.18-.42.35-.84.5-1.27.03-.05.07-.09.1-.14.34-.49.66-1 .95-1.52.29-.52.55-1.04.82-1.57.28-.56.56-1.13.85-1.68.24-.41.47-.83.74-1.23.28-.42.57-.83.87-1.24.16-.22.33-.44.48-.66.13-.18.26-.36.38-.55.19-.31.37-.63.54-.96.37-.73.72-1.46 1.08-2.2.23-.48.47-.97.7-1.45.23-.47.46-.92.7-1.38.12-.21.24-.41.36-.62.11-.2.24-.4.37-.6.14-.22.29-.44.42-.66.16-.27.33-.54.48-.82.08-.13.16-.26.22-.4l.24-.48c.12-.24.24-.49.34-.73l.36-.87c.12-.31.24-.63.36-.94.21-.56.42-1.13.63-1.69.2-.54.41-1.08.59-1.63.2-.59.39-1.17.55-1.77.34-1.19.63-2.39.87-3.61.06-.31.12-.61.17-.92.06-.31.1-.62.14-.93.04-.31.07-.62.1-.93.03-.3.04-.6.05-.91.02-.6.01-1.2 0-1.8-.01-.58-.04-1.16-.06-1.75v-.88c0-.16 0-.32.02-.48.01-.17.03-.34.04-.51.04-.56.11-1.13.15-1.69.05-.62.09-1.25.12-1.87.03-.59.06-1.17.11-1.75.03-.2.06-.4.09-.59.09-.23.18-.48.24-.72.06-.23.12-.47.12-.71 0-.11 0-.22-.02-.33-.02-.06-.02-.1-.06-.14a.123.123 0 0 0-.19 0c-.08.07-.07.21-.08.3-.05.42-.14.83-.22 1.24-.17.39-.35.77-.54 1.15-.19.37-.37.74-.55 1.11-.2.42-.4.83-.6 1.25-.18.37-.37.73-.57 1.1-.15.26-.31.53-.47.79-.07.12-.15.24-.23.35-.09.13-.18.26-.28.39-.2.25-.4.51-.61.75-.38.46-.78.9-1.16 1.36-.23.27-.44.56-.64.85-.29.43-.51.89-.74 1.36-.06.12-.1.23-.15.35-.06.14-.12.28-.18.43-.1.26-.2.52-.3.79-.22.59-.44 1.17-.66 1.76-.06.15-.12.3-.18.44-.22.54-.46 1.07-.67 1.61-.11.28-.22.56-.31.85-.1.31-.2.62-.29.93-.17.59-.3 1.19-.44 1.79-.12.55-.25 1.09-.39 1.64-.13.51-.28 1.01-.42 1.51-.15.54-.27 1.08-.39 1.62-.22 1.04-.4 2.09-.61 3.14-.24 1.17-.55 2.32-.81 3.48-.13.59-.26 1.18-.4 1.77-.15.65-.3 1.31-.47 1.96-.15.54-.31 1.08-.47 1.61-.16.5-.33 1-.48 1.5-.33 1.06-.67 2.12-.95 3.19-.02.06-.03.12-.05.19v-.02l-.03.12c-.22.87-.42 1.75-.63 2.63-.09.34-.18.67-.28 1-.02.08-.05.16-.08.24l-.28.4c-.17.25-.33.49-.49.74-.18.28-.34.56-.51.85-.07.12-.13.25-.2.38-.06.12-.12.23-.18.35-.13.27-.26.54-.38.81-.27.59-.54 1.18-.82 1.77-.03.06-.06.11-.08.16l.12-.44c.16-.58.3-1.17.46-1.75.19-.64.37-1.27.57-1.91.37-1.19.59-2.43.82-3.66.22-1.23.43-2.46.56-3.7.14-1.31.26-2.63.39-3.95v-.07c.14-.04.24-.19.2-.33-.04-.15-.07-.3-.1-.45l.27-2.09c.14-1.12.27-2.24.39-3.37.11-.99.18-1.98.23-2.98.05-1.02.08-2.05.07-3.07v-.62c.04-.21.08-.42.12-.62.22-1.13.44-2.26.62-3.4.09-.57.16-1.15.22-1.72.03-.25.04-.51.05-.77.02-.28.03-.56.05-.84.05-1.12.08-2.24.08-3.36 0-.6 0-1.19-.03-1.79-.02-.53-.05-1.05-.08-1.58.11-.24.22-.49.34-.73.2-.41.41-.81.63-1.21l.3-.51c.09-.15.19-.29.28-.44.18-.28.38-.56.58-.83.17-.22.35-.44.53-.65.18-.22.37-.42.55-.63l.54-.6c.17-.19.33-.38.5-.57.13-.15.27-.31.39-.47.15-.19.32-.38.46-.58.16-.22.32-.44.47-.66.14-.2.27-.41.41-.61.51-.77 1-1.55 1.5-2.33.25-.39.49-.78.73-1.17l.33-.54c.13-.23.28-.46.4-.69l.39-.72c.1-.19.19-.38.28-.57.09-.19.18-.37.26-.56.07-.16.14-.32.2-.49.03-.07.07-.15.09-.22.09-.26.19-.53.28-.79.08-.22.13-.45.2-.67.12-.41.23-.82.33-1.22.26-.97.52-1.94.8-2.9l.39-1.38c.05-.19.1-.39.14-.59.05-.2.1-.41.14-.62.05-.29.1-.59.16-.88.04-.21.06-.41.09-.62.06-.44.12-.88.17-1.32v-.13l.06-.52v.04c0-.05.01-.09.02-.14v.04c.02-.12.03-.25.04-.37.02-.15.04-.31.04-.46 0-.11.02-.24 0-.36-.02-.08-.04-.18-.1-.24-.06-.06-.11-.11-.2-.12-.07-.01-.17 0-.23.04-.09.05-.15.12-.21.2-.05.07-.1.15-.15.22-.05.08-.11.16-.16.24-.12.18-.24.37-.36.55-.28.42-.55.84-.82 1.27-.25.4-.48.8-.71 1.21-.45.8-.86 1.62-1.3 2.43-.13.22-.25.44-.37.66-.1.18-.22.36-.32.55-.24.39-.48.79-.73 1.17-.28.42-.55.83-.83 1.24-.24.35-.48.7-.71 1.06-.16.25-.31.49-.47.73-.11.18-.21.36-.32.54-.11.19-.22.37-.32.56-.14.27-.28.53-.42.8-.22.43-.43.86-.65 1.29-.19.39-.4.77-.6 1.15-.2.34-.39.69-.59 1.03-.22.38-.45.75-.66 1.14-.21.38-.43.77-.64 1.15-.12.22-.23.46-.35.68-.14.28-.29.57-.43.85-.12.23-.21.48-.32.71-.13.29-.26.57-.39.86-.02.05-.04.1-.06.14l-.03-.36-.18-1.69c-.06-.57-.09-1.15-.13-1.72-.07-1.12-.12-2.24-.22-3.36-.1-1.1-.29-2.2-.53-3.28-.13-.58-.26-1.16-.41-1.74-.13-.53-.29-1.05-.42-1.58-.14-.54-.26-1.08-.37-1.62-.06-.29-.12-.58-.17-.87l-.09-.43c-.03-.13-.04-.28-.09-.4a.578.578 0 0 0-.41-.35.55.55 0 0 0-.52.19c-.15.18-.14.39-.13.6 0 .35-.04.7-.08 1.05-.12 1.01-.34 2.02-.58 3.01-.26 1.01-.56 2.02-.84 3.03-.3 1.08-.59 2.16-.92 3.23-.05.15-.1.3-.15.44l-.21-.51c-.02-.05-.05-.1-.07-.16-.02-.07-.05-.13-.07-.2-.32-.86-.63-1.73-.94-2.59.12-.22.06-.51-.16-.65-.03-.02-.06-.04-.1-.06-.07-.32-.16-.64-.21-.96-.02-.13-.03-.27-.03-.4 0-.12 0-.24.01-.35 0-.05 0-.1.01-.14 0-.02.02-.04.03-.05.04-.12.05-.24.07-.36.02-.11.03-.23.05-.34.06-.43.12-.86.22-1.28.02-.07.03-.13.05-.2v.02c0-.02 0-.04.01-.06v.01c.05-.2.11-.39.16-.58.05-.17.11-.34.17-.52.05-.13.1-.25.15-.38.05-.13.12-.25.18-.38.11-.23.23-.45.35-.67.1-.17.2-.34.3-.5l.24-.39c.2-.32.41-.63.62-.94.4-.59.78-1.2 1.17-1.8.21-.32.42-.63.63-.94.19-.28.4-.56.6-.84-.01.02-.02.03-.03.05.36-.47.72-.94 1.09-1.4.37-.46.75-.92 1.13-1.37.5-.6.99-1.21 1.47-1.82.43-.55.86-1.11 1.29-1.67.44-.57.88-1.13 1.31-1.69.46-.61.92-1.21 1.37-1.82.43-.57.87-1.15 1.33-1.7.23-.27.46-.53.7-.79l.36-.39c.13-.15.28-.29.4-.46.13-.2.09-.5-.1-.65a.576.576 0 0 0-.38-.12c-.05 0-.1.02-.14.03l-.26.06c-.19.05-.39.09-.58.14-.41.1-.82.24-1.21.41-.67.29-1.32.63-1.98.96-.67.34-1.34.68-2.01 1.01-.64.32-1.29.63-1.9 1-.17.1-.33.2-.49.31-.08.05-.17.11-.25.17-.07.05-.13.1-.2.15-.15.11-.29.22-.43.34-.13.11-.26.22-.39.34-.15.14-.3.28-.44.43-.15.15-.3.31-.44.47-.11.11-.21.23-.31.35-.11.13-.22.25-.33.38-.14.18-.28.36-.43.53-.11.14-.21.28-.31.43-.09.13-.18.25-.27.38l-.22.34c-.04.05-.07.11-.1.16 0 0 0-.02.01-.02l-.3.54c-.09.15-.16.31-.24.47-.07.14-.13.28-.19.43-.07.16-.14.33-.2.49-.07.2-.15.39-.22.59-.06.17-.11.34-.17.51-.04.13-.09.27-.13.4-.05.18-.11.37-.16.55 0-.02 0-.03.01-.05-.07.26-.13.51-.2.77s-.12.52-.18.78c-.06.27-.11.53-.17.8-.1.51-.2 1.02-.3 1.54-.14.73-.26 1.46-.38 2.19-.03.16-.04.33-.07.49l-.06.48c-.02.23-.04.45-.07.68-.02.18-.02.35-.03.53-.04.72-.05 1.43-.06 2.15v.28c-.14-.36-.27-.73-.4-1.09-.45-1.19-.9-2.37-1.35-3.56-.14-.37-.29-.74-.44-1.11-.19-.61-.38-1.22-.59-1.82-.02-.06-.04-.11-.06-.17-.09-.45-.16-.89-.23-1.34-.05-.34-.09-.69-.14-1.03-.12-.99-.28-1.97-.37-2.96-.04-.48-.07-.96-.1-1.44-.04-.48-.06-.96-.08-1.44-.02-.5-.03-.99-.08-1.49-.05-.48-.1-.96-.19-1.43-.18-.98-.4-1.95-.63-2.92-.23-1-.49-2-.77-2.99-.13-.47-.29-.94-.45-1.4-.17-.48-.37-.94-.57-1.4-.27-.61-.57-1.19-.86-1.79-.42-.86-.83-1.72-1.26-2.58-.24-.48-.48-.95-.73-1.43-.1-.2-.21-.41-.31-.61-.06-.13-.12-.25-.18-.38-.06-.12-.1-.24-.18-.35a.334.334 0 0 0-.35-.13c-.11.02-.22.11-.25.23-.02.09-.01.17 0 .25v.02c.03.19.04.38.04.57 0 .32-.01.64-.03.96-.05 1.02-.12 2.04-.23 3.06-.05.5-.1 1-.14 1.5-.04.52-.03 1.04-.02 1.56.01.76.05 1.51.08 2.26.03.81.04 1.62.08 2.42.02.47.07.95.12 1.42l.06.62c-.03-.07-.05-.14-.08-.22-.18-.52-.35-1.05-.54-1.57-.37-1-.73-2-1.16-2.98 0 0 0-.02-.01-.02-.01-.02-.02-.05-.03-.07-.02-.06-.05-.11-.07-.17-.01-.03-.03-.06-.04-.09v-.02c0-.01 0-.02-.01-.03 0-.01 0-.02-.01-.03-.01-.02-.02-.05-.03-.07-.17-.38-.35-.75-.54-1.12-.49-.99-1-1.96-1.53-2.93-.25-.45-.5-.9-.73-1.35-.25-.5-.49-1-.75-1.49-.12-.24-.24-.48-.37-.72-.14-.25-.26-.5-.41-.74-.15-.26-.31-.52-.46-.78-.16-.26-.34-.52-.51-.77-.15-.23-.33-.45-.5-.67-.16-.22-.35-.43-.53-.63-.35-.41-.73-.79-1.11-1.16-.8-.78-1.64-1.52-2.48-2.25-.44-.39-.89-.77-1.34-1.14-.22-.18-.43-.36-.65-.54-.19-.16-.38-.33-.57-.5L1.13.68C1.02.57.92.44.82.33A.437.437 0 0 0 .5.02C.23-.06 0 .14 0 .41c0 .28.04.57.06.85.02.27.03.53.05.8.03.56.07 1.12.1 1.68.02.25.04.51.07.76.03.25.05.5.09.75.03.19.06.37.1.56.02.09.03.19.05.28.07.3.14.6.2.9.06.28.14.55.22.83.15.55.31 1.1.53 1.63.28.7.64 1.37 1.11 1.96.18.23.36.46.55.68.38.45.77.9 1.16 1.34.16.17.31.34.48.5.2.2.4.42.61.61.25.22.5.45.75.67.2.18.4.34.61.5.39.32.8.64 1.19.96.45.37.9.74 1.33 1.12l1.26 1.14c.18.17.36.34.53.52.18.19.36.37.53.56.4.43.79.85 1.2 1.26.36.37.73.74 1.07 1.14.37.43.73.86 1.09 1.3l-.01-.01c.12.15.24.3.36.44.04.11.08.23.13.34.11.27.27.51.48.72.13.13.29.23.45.31 0 .04 0 .09.02.13.08.51.18 1.02.29 1.52.21.96.47 1.91.85 2.81.11.26.22.52.35.78.12.24.24.48.37.72.25.46.54.89.82 1.32.56.84 1.2 1.63 1.89 2.37.68.72 1.35 1.45 1.98 2.22.07.09.15.18.21.28.07.1.13.2.2.3.02.04.04.07.06.11.02.18.18.31.36.32.02.05.03.1.05.15.19.56.38 1.11.59 1.66.21.57.44 1.13.65 1.69.21.57.4 1.15.63 1.71.11.28.23.55.34.83l.18.45c-.17-.22-.35-.45-.53-.66-.48-.58-.96-1.16-1.49-1.71-.25-.26-.51-.52-.77-.77-.27-.25-.55-.51-.83-.76-.58-.5-1.17-1-1.79-1.45-.07-.06-.15-.11-.23-.17.01 0 .02.02.04.03-.07-.05-.14-.1-.21-.16 0 0 .01 0 .02.01 0 0-.02-.01-.03-.02l-.01-.01-.02-.02c-.33-.24-.66-.48-1-.7-.35-.23-.7-.46-1.05-.68-.16-.1-.32-.18-.48-.27-.36-.2-.74-.38-1.13-.51-.19-.06-.38-.12-.56-.17-.11-.03-.22-.05-.33-.08-.08-.02-.16-.04-.23-.06-.37-.07-.74-.14-1.11-.18a.88.88 0 0 1-.17-.02h.07c-.04 0-.07 0-.11-.01-.44-.05-.89-.09-1.34-.11-.34-.02-.7-.03-1.04-.03-.4 0-.79 0-1.19.03-.75.05-1.49.17-2.22.32-.73.15-1.44.35-2.16.55-.35.1-.7.19-1.04.29-.36.1-.71.21-1.06.31l-.31.09c-.18.05-.38.08-.5.24a.52.52 0 0 0-.06.56c.09.2.32.32.5.42.12.07.23.13.35.19l.54.3s.02 0 .03.01h-.01c.65.36 1.29.73 1.94 1.09.48.27.97.55 1.47.8.2.1.4.2.61.3.18.09.36.16.54.24.34.15.69.28 1.04.4a22.798 22.798 0 0 0 2.22.68c.37.1.75.19 1.13.27.35.08.71.16 1.07.23.71.15 1.42.32 2.13.49.42.11.84.23 1.25.35.72.21 1.44.42 2.17.6.72.18 1.45.34 2.17.51.25.07.51.14.76.22.25.08.51.15.76.23.26.08.52.15.78.23.26.08.51.17.76.27s.48.22.72.34c.13.07.25.15.37.23.16.12.3.25.45.37l.15.12v.02c.01.05.05.07.1.07.16.44.31.88.47 1.32.33.94.66 1.88.98 2.83-.12.34-.24.67-.35 1.01-.18.56-.35 1.13-.48 1.7-.13.55-.24 1.1-.33 1.66-.1.57-.19 1.14-.29 1.71 0 .05-.02.09-.02.13-.17-.17-.34-.34-.5-.52-.38-.43-.74-.86-1.13-1.28-.38-.42-.76-.83-1.13-1.24-.19-.21-.38-.43-.56-.64-.18-.21-.36-.43-.56-.63-.2-.2-.4-.4-.63-.58-.22-.17-.45-.33-.67-.49 0 0-.01 0-.02-.01-.46-.35-.91-.71-1.36-1.07-.45-.35-.93-.65-1.42-.92-.51-.28-1.02-.55-1.55-.79-.51-.23-1.04-.43-1.57-.62-.51-.18-1.02-.36-1.54-.5-.27-.07-.54-.13-.81-.18-.26-.05-.52-.1-.79-.12-.25-.02-.5 0-.74.04-.11.02-.22.04-.32.07-.2.05-.37.15-.5.3-.12.15-.2.37-.12.56.08.19.23.32.43.38.06.02.13.02.19.02.04.02.08.04.12.03v-.01h.03c.06 0 .11-.02.17-.03.02 0 .04 0 .06-.01.07-.02.14-.03.22-.04h.09c.03.05.05.1.08.15.15.25.34.5.58.68.22.17.43.34.65.51.27.21.54.41.82.61.23.17.47.33.7.5.11.08.23.16.34.25l.51.39.57.48c.34.3.67.6 1.01.89.33.29.67.56 1.02.83.17.13.34.26.5.4.17.14.34.29.5.44.1.1.2.19.29.3.09.11.19.22.28.32.24.3.47.6.69.92l.69.99c.27.38.53.76.8 1.14.29.4.59.79.9 1.18.28.36.56.71.82 1.08.26.36.49.73.73 1.1.16.27.31.54.46.82.16.28.31.57.46.85.17.32.33.63.5.95v.73c.01 1.16.04 2.31.13 3.47.09 1.14.23 2.29.48 3.41.24 1.08.54 2.15.85 3.21.02.08.05.15.07.23 0-.03-.02-.06-.02-.08 0 .04.02.07.03.1 0 .02.01.04.02.06v.02c.02.06.03.12.05.17v-.03c.29 1 .6 2 .99 2.97.42 1.07.87 2.13 1.31 3.19.2.49.42.98.62 1.47.11.27.22.53.32.81.09.26.17.51.25.77.2.77.37 1.55.54 2.33.08.37.15.73.23 1.1l.12.57c.02.11.05.22.07.33-.03.32-.07.63-.11.95-.08.75-.16 1.51-.25 2.26-.28 1.96-.64 3.91-1.08 5.84-.15.56-.33 1.12-.5 1.68-.37 1.17-.67 2.36-.99 3.54-.17.62-.34 1.25-.53 1.87-.18.61-.37 1.21-.56 1.82-.2.63-.39 1.27-.61 1.9-.19.52-.37 1.05-.56 1.58-.02.04-.04.08-.05.12a91.1 91.1 0 0 0-.92 2.29.597.597 0 0 0-.09-.15v-.47c0-.41-.03-.82-.04-1.23.07-.38.13-.76.2-1.13.1-.54.21-1.08.33-1.62.14-.58.28-1.16.4-1.75.24-1.18.37-2.38.51-3.58.08-.63.15-1.26.24-1.88.07-.54.16-1.09.23-1.63.08-.62.15-1.24.2-1.87.05-.61.07-1.22.07-1.84.01-1.2 0-2.39-.05-3.59-.02-.63-.04-1.26-.08-1.89-.03-.62-.08-1.24-.13-1.85-.04-.57-.1-1.15-.15-1.72l-.15-1.76c-.05-.57-.13-1.14-.21-1.71-.09-.62-.18-1.23-.3-1.85-.11-.56-.23-1.13-.35-1.69-.12-.59-.24-1.18-.38-1.76-.27-1.2-.64-2.36-.99-3.54-.16-.55-.32-1.09-.51-1.63-.2-.55-.41-1.1-.61-1.66-.4-1.11-.76-2.23-1.12-3.35-.18-.54-.34-1.09-.52-1.63-.17-.47-.34-.95-.58-1.39a.422.422 0 0 0-.4-.22c-.17.01-.31.13-.36.29-.04.12-.02.24 0 .36.01.08.03.16.04.24.03.22.07.45.08.67.02.31.04.62.07.93.02.23.01.46.02.69 0 .27.01.53.02.8v.19c0 .18-.01.36-.02.54l-.03.86c0 .07-.02.15-.02.22l-.06.54c-.03.26-.06.51-.08.77-.08.5-.16 1-.23 1.5-.08.53-.18 1.06-.25 1.6-.08.6-.16 1.2-.23 1.79-.08.66-.15 1.32-.23 1.99-.07.64-.13 1.28-.18 1.92-.02.23-.03.46-.04.69-.02.31-.04.62-.05.93-.01.61-.03 1.21-.03 1.82v.98c.01.35.02.7.04 1.04 0 .24.02.48.04.72.02.29.03.59.06.89l.12 1.09c.03.27.08.54.12.81.09.6.2 1.2.32 1.8.12.6.25 1.21.37 1.81.12.54.23 1.08.37 1.62.16.64.33 1.27.5 1.9.16.58.33 1.16.49 1.73.33 1.15.61 2.31.89 3.47.27 1.13.53 2.26.78 3.39.25 1.14.49 2.27.69 3.42.05.34.09.67.12 1.01.03.32.04.65.06.97 0 .17 0 .33.01.5-.05.34-.1.68-.16 1.02-.1.57-.21 1.12-.35 1.68-.16.63-.34 1.25-.52 1.87-.11.27-.22.54-.32.82-.04.09-.07.18-.1.27-.06.17-.13.34-.19.51l-.27.72c-.1.29-.21.59-.31.88-.14.39-.28.78-.37 1.18-.14.18-.28.35-.41.53l-.82 1.09c-.19.14-.39.28-.58.43-.26.2-.51.41-.74.65-.24.25-.47.51-.68.78-.22.28-.42.58-.61.87-.18.27-.36.55-.54.83-.17.25-.34.5-.52.74-1.06 1.06-2.12 2.12-3.21 3.15-.31.29-.62.57-.94.85.08-.27.17-.55.23-.83.07-.12.13-.24.2-.36v.01c.02-.03.03-.06.05-.09 0 .02-.02.03-.03.05.13-.24.24-.49.36-.73.09-.19.18-.37.26-.56.12-.27.24-.53.34-.8.11-.29.23-.57.33-.86.1-.3.21-.6.32-.89.09-.25.17-.51.25-.76.18-.55.34-1.11.51-1.66.07-.24.13-.49.2-.73.07-.28.15-.55.22-.83v.03c.11-.44.22-.88.34-1.32.01-.06.03-.11.04-.17 0-.03.01-.05.02-.08 0 .02-.01.05-.02.07l.78-3.01c.06-.23.11-.47.17-.71.07-.28.13-.56.2-.85.05-.22.08-.44.12-.66.05-.29.11-.58.16-.87.04-.22.07-.45.1-.68l.12-.81c.04-.25.06-.51.1-.76.03-.23.06-.45.08-.68.06-.49.12-.99.17-1.48v-.03c.11-1.12.23-2.25.27-3.38.01-.3.03-.61.03-.91v-1c0-.53-.02-1.05-.02-1.58v-1.57c0-.51 0-1.02-.02-1.52v.01c0-.8-.02-1.6-.05-2.39-.01-.37-.04-.73-.07-1.1-.01-.18-.02-.36-.04-.53l-.06-.47c-.04-.31-.09-.61-.13-.92-.04-.31-.11-.62-.16-.93-.09-.51-.19-1.03-.28-1.54-.2-1.11-.41-2.22-.61-3.33-.01-.09-.02-.19-.07-.28a.755.755 0 0 0-.11-.14c-.12-.14-.35-.13-.47.01-.11.12-.19.25-.25.4-.07.16-.13.32-.18.48-.04.12-.08.25-.12.37-.08.25-.16.49-.24.74-.18.6-.36 1.21-.53 1.81-.31 1.06-.62 2.13-.96 3.18-.16.51-.32 1.01-.46 1.52-.15.54-.32 1.08-.46 1.63-.31 1.17-.6 2.33-.86 3.51-.13.57-.24 1.15-.36 1.72-.11.57-.21 1.15-.3 1.72-.09.54-.16 1.08-.24 1.62-.04.31-.07.61-.11.92-.03.23-.05.46-.06.7-.02.27-.06.54-.06.81v1.06c0 .26.02.51.03.77.01.25.02.51.04.76.08 1.15.2 2.29.3 3.44.09 1.11.19 2.22.27 3.33.08 1.15.14 2.3.19 3.46 0 .25 0 .51.01.76 0 .79-.02 1.57-.04 2.36-.01.39-.02.77-.04 1.16-.02.4-.04.79-.08 1.18-.04.3-.08.6-.13.89-.03.15-.05.3-.09.45l-.12.5c-.07.23-.13.46-.2.69-.09.27-.18.55-.26.82-.1.34-.19.69-.26 1.03-.06.11-.11.21-.17.32v.01c-.19.1-.37.2-.54.31-.46.28-.89.62-1.26 1.01-.35.36-.67.75-1.01 1.12-.1.1-.21.2-.31.3-.04.03-.08.06-.11.08-.71.52-1.44 1.01-2.18 1.48-.47.28-.93.57-1.39.86-.44.29-.88.59-1.31.89-.63.43-1.31.83-1.87 1.37-.44.42-.67 1.03-.54 1.64.13.58.56 1.05 1.12 1.23.2.07.42.09.64.09.26 0 .52-.01.78-.07.09-.02.18-.05.27-.08.38-.14.73-.35 1.03-.63.18.01.36 0 .54-.03.17-.04.34-.1.49-.18.06-.03.12-.07.18-.11.24-.12.47-.26.69-.41.13-.08.25-.17.38-.26.32-.23.63-.46.93-.71.53-.44 1.05-.9 1.54-1.38.13-.13.26-.25.38-.38.09-.09.19-.19.27-.28.08-.08.16-.17.24-.26-.05.05-.1.11-.16.16.44-.47.89-.94 1.3-1.44.21-.26.43-.51.61-.8.19-.3.36-.61.49-.93.19-.44.33-.9.45-1.36l.02-.02c.49-.46.98-.92 1.46-1.39.9-.87 1.72-1.81 2.58-2.73.9-.97 1.81-1.93 2.71-2.91.45-.49.85-1.01 1.27-1.53.17-.22.33-.45.5-.67l.58-.79c.31-.43.63-.85.94-1.28.29-.4.61-.78.91-1.17.2-.26.4-.52.59-.78.06-.08.11-.17.16-.25.2-.09.39-.17.59-.26.2-.09.4-.19.6-.29.19-.1.38-.21.56-.32.38-.22.73-.49 1.06-.78.16-.14.31-.27.45-.42.11-.11.21-.22.32-.33.11-.06.22-.12.34-.18.37-.19.75-.38 1.11-.58.26-.14.53-.29.79-.43.17-.09.34-.17.5-.27-.02 0-.03.02-.04.03.44-.26.88-.53 1.33-.8.13-.08.25-.16.38-.24.26-.17.53-.34.79-.51.31-.2.62-.4.93-.61.34-.23.69-.45 1.03-.68l1.36-.94c.32-.22.63-.48.93-.72.3-.23.6-.46.88-.71.43-.38.86-.75 1.28-1.13.27-.23.51-.49.77-.73.22-.22.45-.43.67-.65.09-.09.19-.18.28-.27l1.08-1.11c.59-.6 1.17-1.22 1.75-1.84l.04-.04c.79-.82 1.57-1.63 2.36-2.44.28-.29.54-.59.81-.9.17-.2.35-.39.52-.59.08-.09.15-.18.22-.27.19-.24.38-.48.58-.73.11-.14.22-.27.33-.41.3-.4.6-.79.91-1.19.53-.7 1.06-1.39 1.6-2.08.59-.77 1.16-1.56 1.6-2.43.28-.54.51-1.11.69-1.69.16-.52.3-1.05.4-1.59.15-.88.28-1.76.43-2.65l.24-1.33c.03-.18.07-.36.1-.54.04-.23.08-.47.14-.7v-.04a.441.441 0 0 0-.28-.55zm-17.29 2.79c.12-.58.23-1.16.35-1.73l.02-.12c.12-.59.24-1.19.37-1.79l.1-.47c.08-.38.17-.78.25-1.18.16-.84.31-1.7.46-2.52.07-.4.14-.79.21-1.18.05-.3.11-.6.17-.9.03-.14.05-.28.08-.4.03-.13.05-.25.08-.37.05-.21.11-.43.16-.64.09-.38.19-.75.27-1.13.12-.53.24-1.07.35-1.59a72 72 0 0 1 .42-1.89l.04-.15c.03-.11.06-.23.1-.34l.09-.28.07-.21c.09-.28.2-.57.3-.84l.05-.13s.03-.05.04-.09c.07-.19.15-.37.22-.55.21-.52.43-1.06.63-1.6.15-.4.3-.8.44-1.21.12-.34.25-.69.38-1.03l.09-.23.05-.11.04-.1c.03-.07.05-.14.09-.21l.04-.08c.15-.32.3-.64.47-.95.09-.16.19-.32.3-.48.11-.16.22-.32.34-.5.22-.28.44-.56.67-.83.04-.05.09-.11.13-.17.2-.24.39-.48.58-.72A13.004 13.004 0 0 0 47.85 60l.13-.25.13-.25c.04-.08.08-.17.12-.25l.05-.11c.13-.28.24-.51.35-.75.11-.25.22-.51.33-.76l.42-.96.22-.49.09-.21v.07c0 .08-.01.15-.02.22l-.04.51c-.02.33-.05.65-.08.98-.04.44-.08.91-.15 1.53l-.02.18-.05.36c-.04.28-.07.56-.11.84-.03.24-.07.53-.09.82-.02.29-.05.63-.06.98-.01.28-.02.57-.02.85v.73c0 .36 0 .73-.02 1.1v.26l-.02.26v.13s-.01.09-.01.14v.14c-.01.17-.03.33-.04.5l-.03.38-.03.2-.03.2c0 .05-.01.1-.02.15-.01.09-.02.19-.04.28-.03.15-.05.29-.08.44 0 .04-.01.09-.02.13-.01.09-.03.17-.05.26l-.05.23c-.1.46-.21.91-.32 1.37l-.08.31c-.08.29-.15.59-.23.88-.12.45-.25.89-.38 1.34-.17.59-.37 1.17-.56 1.74-.12.36-.25.72-.41 1.15-.05.14-.11.29-.17.45l-.15.39c-.17.43-.34.87-.5 1.3-.21.56-.43 1.15-.66 1.74-.03.06-.05.13-.08.19-.05.13-.1.26-.16.38-.03.07-.06.13-.09.2-.06.14-.13.29-.19.43-.02.03-.03.07-.05.11-.02.04-.03.07-.05.11-.06.13-.13.27-.2.4l-.3.55-.09.15c-.08.14-.17.29-.25.43-.08.13-.16.25-.24.38-.03.04-.05.08-.07.12-.04.06-.08.13-.12.19-.08.13-.16.28-.25.42-.08.14-.17.28-.25.42-.28.49-.55 1.01-.8 1.53-.27.56-.55 1.12-.82 1.67-.09.19-.18.37-.27.56-.34.69-.68 1.41-1.06 2.1-.11.19-.22.38-.35.58-.13.2-.27.4-.42.61l-.14.19-.08.12c-.35.47-.69.97-1.04 1.49-.01.02-.02.03-.03.05.07-.18.14-.36.21-.55.2-.5.41-1.01.61-1.51v.02c.1-.24.21-.47.32-.7.12-.27.24-.53.36-.8.23-.51.47-1.01.7-1.51.2-.42.37-.86.55-1.29.07-.17.15-.34.22-.52.08-.22.16-.43.24-.64.15-.41.31-.81.46-1.22.18-.5.35-1.01.53-1.51.07-.18.12-.36.18-.55.1-.31.2-.62.31-.94.13-.41.26-.82.39-1.22s.26-.79.39-1.19c.14-.43.28-.87.43-1.3.36-.99.71-1.98 1.05-2.98.14-.38.26-.77.38-1.16.13-.4.26-.79.37-1.19.29-1.02.59-2.04.89-3.06.29-.98.59-1.96.9-2.93-.1.23-.19.46-.29.69-.37.88-.74 1.76-1.1 2.64-.37.89-.73 1.77-1.08 2.67 0-.01.01-.03.02-.04-.34.79-.66 1.58-1 2.37-.17.4-.35.79-.51 1.2-.2.49-.4.98-.59 1.47 0 .02-.01.04-.02.06 0 0 0-.02.01-.03 0 .02-.01.03-.02.05-.1.25-.18.51-.27.76-.11.31-.22.63-.32.94-.07.21-.13.43-.2.65-.1.33-.2.66-.31.99-.26.83-.52 1.67-.79 2.5-.14.41-.27.82-.41 1.22-.18.49-.36.98-.53 1.47-.17.42-.34.84-.51 1.25-.32.79-.69 1.56-1.04 2.34-.12.26-.24.53-.36.8.15-.56.27-1.12.38-1.66zm-2.43-30.13c.05-.16.1-.32.16-.48l.29-.74.3-.74c.12-.28.24-.55.36-.82.06-.13.12-.27.18-.4.14-.31.29-.62.43-.9l.15-.3c.11-.23.23-.47.36-.71l.13-.25c.16-.29.32-.58.47-.87.05-.09.1-.17.15-.26l.05-.09c.26-.44.51-.88.76-1.33l.09-.15c.07-.13.15-.26.22-.39l.42-.81c.17-.32.33-.64.49-.97l.16-.32c.13-.26.26-.51.4-.77.06-.12.12-.24.19-.36.05-.08.1-.17.14-.25.04-.07.08-.14.12-.22.09-.15.17-.31.27-.46l.21-.33.21-.33c.17-.27.35-.54.53-.81l.15-.23c.54-.81 1.06-1.6 1.52-2.41.04-.07.08-.15.13-.22.09-.15.18-.3.26-.45l.39-.74c.16-.31.32-.63.47-.94l.11-.23.15-.32c.14-.3.29-.6.44-.9l.34-.65c.11-.21.22-.41.33-.61l.25-.44c.14-.24.28-.49.42-.73.07-.11.13-.23.2-.34l.08-.14v.12l-.04.33c-.06.45-.11.92-.18 1.38-.01.09-.03.19-.04.28-.03.21-.06.43-.1.64l-.06.3-.06.3-.02.09c-.01.08-.03.16-.05.23v.03c-.01.06-.03.12-.04.18-.07.27-.13.54-.2.81-.15.5-.3 1-.46 1.51-.28.9-.55 1.82-.81 2.71l-.04.13c-.12.41-.25.84-.38 1.25l-.06.18-.15.45-.16.41-.12.31c-.04.09-.08.18-.12.28l-.08.17-.05.12c-.04.09-.08.17-.12.26l-.09.17c-.11.21-.22.43-.33.65l-.1.18c-.14.25-.29.52-.44.77-.26.43-.47.78-.67 1.1-.4.63-.82 1.27-1.22 1.89l-.32.5-.18.27c-.17.27-.35.54-.53.8l-.11.16c-.09.14-.19.28-.28.41l-.43.59-.3.37-.21.27c-.1.13-.22.26-.33.38l-.13.15c-.15.17-.3.33-.44.5-.15.16-.3.33-.44.5l-.17.19-.17.19s-.05.05-.07.08c-.04.05-.09.09-.12.14-.16.21-.33.41-.49.62-.11.13-.21.28-.31.42l-.12.16c-.11.15-.21.32-.31.47.08-.19.17-.39.25-.58.11-.24.22-.48.34-.72.06-.11.11-.23.18-.34.07-.13.15-.27.22-.4.21-.37.43-.73.66-1.08.25-.38.5-.77.74-1.15.32-.5.64-1.01.95-1.52.29-.48.57-.98.85-1.47 0 .01-.02.03-.02.04.03-.06.07-.12.1-.18.1-.19.21-.37.31-.56 0 .01-.02.03-.02.04.12-.22.24-.44.37-.65.14-.24.29-.49.43-.73.14-.23.28-.44.43-.66.06-.09.12-.17.18-.26l.21-.3c.12-.16.24-.33.36-.5 0 0-.01.02-.02.02.01-.01.02-.03.03-.04 0 0 0-.01.01-.02.29-.4.59-.79.87-1.2.32-.47.64-.95.96-1.43-.54.64-1.1 1.27-1.68 1.88l-.02.02c-.03.03-.06.06-.08.09-.06.06-.12.12-.17.18l.02-.02-.06.06-.01.01-.11.11.02-.02c-.01.02-.03.03-.04.05l.01-.01c-.37.39-.73.79-1.07 1.2-.09.12-.19.23-.28.35-.1.13-.19.27-.29.4-.14.19-.27.39-.4.59-.31.5-.62 1-.91 1.52-.29.52-.58 1.04-.87 1.55-.26.46-.53.91-.79 1.37-.3.51-.59 1.02-.87 1.54-.08.14-.15.29-.22.44-.06.12-.12.24-.17.36-.05.11-.11.23-.16.34-.06.14-.13.29-.18.43-.11.29-.21.57-.31.86-.09.25-.17.51-.26.77s-.18.51-.27.76c0 .02-.02.04-.03.06-.02-.43-.05-.86-.06-1.3 0-.21-.02-.42-.03-.63.02-.07.05-.15.07-.22zm-9.1 2.86c-.06-.15-.12-.3-.19-.45-.12-.27-.29-.51-.44-.76-.03-.05-.07-.1-.1-.14-.05-.07-.1-.15-.16-.22-.09-.12-.18-.23-.27-.34-.36-.46-.76-.89-1.15-1.32-.77-.87-1.54-1.74-2.28-2.64.12.2.24.39.36.59.07.12.15.24.22.35.19.32.39.63.6.93.22.32.44.64.67.96l.54.72.52.67c.19.25.37.49.55.74.16.21.3.44.44.66l.27.48c.05.1.09.21.13.31v.01c0 .02-.01.04-.01.06 0 .1.07.19.16.21h.07c-.03.31-.07.63-.08.94-.01.24-.01.49-.02.73-.09-.18-.19-.37-.3-.57-.11-.2-.24-.41-.36-.62s-.01-.01-.01-.01l-.04-.06-.02-.03v-.02s-.02-.01-.02-.02c-.02-.03-.03-.05-.05-.08s-.03-.05-.03-.05v-.02l-.02-.03-.05-.08c-.37-.61-.8-1.19-1.21-1.73-.27-.36-.57-.76-.85-1.15-.28-.39-.54-.78-.81-1.17l-.3-.45c-.4-.59-.81-1.21-1.27-1.76-.15-.18-.3-.36-.49-.55-.15-.16-.32-.31-.49-.46l-.03-.03c-.2-.18-.42-.35-.62-.51-.13-.1-.25-.2-.38-.3-.3-.25-.6-.51-.9-.76-.39-.34-.79-.69-1.21-1.01-.46-.36-.96-.7-1.44-1.02-.28-.19-.57-.38-.85-.58l-.21-.15-.31-.22-.13-.1c-.06-.04-.11-.08-.17-.12h.08c.12.02.24.05.36.08.7.19 1.44.43 2.32.76.3.12.59.25.87.38s.56.28.83.42l.03.02s.01 0 .02.01l.04.02.05.03h-.01l.05.03.09.05h.02l.03.02v.01c.09.05.18.1.26.15l.1.07c.26.16.52.32.78.51.18.14.37.29.55.44.28.23.57.46.87.68l.48.35c.18.14.35.28.51.43.26.28.5.57.73.85l.02.02v.02l.09.1.07.08c.35.42.71.84 1.08 1.27.12.14.24.27.36.41.12.14.24.27.36.41l.39.45.07.08c.35.4.7.81 1.08 1.2l.27.27c.05.05.1.11.15.16-.09.47-.16.94-.22 1.41zm1.47-25.58.02-.1.24-1.08c.03-.14.07-.29.1-.43.04-.14.07-.29.1-.43l.03-.13c.07-.24.13-.49.2-.73.04-.16.09-.31.14-.47.03-.08.05-.15.07-.23.05-.15.1-.3.16-.45 0-.02.02-.04.02-.06l.06-.18c.05-.15.11-.29.17-.43.03-.06.05-.12.08-.19l.03-.07.09-.22s.01-.03.02-.05c0-.02.01-.03.02-.05.03-.07.06-.14.09-.2.05-.09.1-.19.14-.28.05-.1.1-.2.15-.29l.16-.27s.03-.06.05-.09c.03-.06.07-.13.11-.19l.13-.19c.09-.13.18-.27.27-.4v.02s.04-.07.07-.11c.11-.15.22-.31.34-.46 0 0 .01-.02.02-.03.06-.07.12-.14.17-.21l.08-.09s.05-.07.08-.1c.05-.06.1-.13.15-.19l.16-.18c.12-.14.24-.27.35-.41.1-.1.19-.2.29-.29l.1-.1c.1-.1.2-.19.3-.29l.1-.09c.08-.08.16-.15.24-.22.13-.11.27-.22.4-.33l.22-.16.22-.16s.1-.07.15-.1l.04-.03.03-.02.03-.02.08-.05.08-.05c.27-.16.61-.35.94-.52.35-.17.69-.35 1.04-.52.64-.31 1.29-.63 1.93-.94.17-.08.34-.16.5-.25.45-.22.92-.45 1.39-.67.14-.06.27-.11.38-.16.12-.05.22-.09.33-.12-.01.01-.02.03-.03.04-.05.06-.09.11-.14.16-.27.31-.51.63-.72.89-.28.37-.56.74-.83 1.11-.15.21-.31.41-.46.62-.26.34-.48.64-.69.91-.21.27-.4.52-.59.76l-.42.54c-.32.41-.65.82-.97 1.23l-.38.49c-.31.4-.62.81-.94 1.21l-.08.11c-.19.25-.39.49-.59.73l-.25.3c-.15.18-.3.36-.44.54-.26.32-.51.63-.74.93-.24.3-.46.59-.68.89-.21.28-.41.56-.61.84l-.05.07c-.22.31-.4.58-.56.83-.2.32-.41.64-.6.97l-.09.15c-.05.08-.1.16-.14.24-.08.14-.17.28-.25.42-.02.03-.04.07-.06.1-.21.33-.42.67-.63 1-.08.13-.16.26-.24.4l-.06.1c-.06.1-.13.21-.19.32 0 0 0 .01-.01.01v.01c-.01.02-.02.04-.04.07l-.04.08-.04.07c.07-.35.14-.7.22-1.05.03-.13.06-.27.11-.4s.09-.27.13-.41c.05-.12.09-.24.14-.36.23-.56.5-1.1.78-1.64.09-.17.19-.33.29-.5.12-.2.25-.39.37-.59.23-.35.46-.69.7-1.03 0 .01-.02.02-.03.04.19-.25.37-.51.56-.77.21-.29.41-.58.6-.88.35-.54.67-1.1 1-1.66-.37.43-.77.84-1.16 1.26l.02-.02c-.18.18-.36.37-.54.55-.18.18-.37.36-.55.55-.11.11-.22.23-.33.35-.28.3-.53.61-.77.94-.23.31-.44.64-.65.97-.22.33-.4.68-.59 1.03-.1.18-.19.37-.28.56-.08.16-.16.31-.23.47-.08.19-.17.39-.24.58-.03.09-.07.19-.1.28-.03.11-.07.23-.1.34l-.06.22c.12-.61.25-1.25.4-1.9zM13.62 18.77zm-.63.93a.427.427 0 0 1-.21-.11c-.09-.08-.15-.19-.22-.28-.09-.11-.18-.22-.26-.34-.16-.2-.31-.4-.47-.61l-.05-.05-.43-.43-.11-.1c-.37-.35-.76-.72-1.15-1.06-.21-.18-.43-.37-.66-.57s-.47-.4-.73-.61c-.24-.2-.49-.4-.74-.59-.16-.13-.33-.26-.49-.39l-.09-.07c-.16-.13-.33-.26-.49-.4l-.32-.28c-.12-.11-.25-.22-.37-.33l-.25-.24-.49-.48c-.17-.16-.33-.34-.48-.5-.07-.07-.14-.15-.21-.22-.47-.5-.91-1.02-1.24-1.41-.22-.28-.39-.51-.53-.74-.15-.26-.3-.54-.43-.83-.21-.49-.4-1.01-.56-1.54l-.07-.23c-.06-.19-.11-.38-.17-.56l-.06-.22-.06-.23c-.01-.05-.03-.1-.04-.15-.03-.1-.06-.19-.08-.29-.03-.16-.07-.32-.1-.47-.03-.16-.07-.32-.1-.47l-.04-.24c-.04-.26-.08-.52-.11-.78l-.03-.31-.03-.31-.07-.61c-.04-.39-.09-.77-.14-1.16v-.08l.05.05.34.31.01.01c.21.18.42.36.63.53l.16.13c.36.29.74.6 1.09.91l.15.13c.4.35.8.7 1.2 1.06.29.26.57.52.85.78l.36.33.11.11c.29.28.58.58.86.88l.11.12c.11.12.22.24.32.36l.08.1c.13.16.26.32.39.47l.03.04.25.34.08.11c.06.08.12.16.17.24.16.25.33.5.49.76.08.13.16.27.23.4.08.13.15.27.23.4.11.19.22.39.32.58.04.08.08.16.13.24.21.39.4.79.59 1.18l.18.36c.05.11.11.23.17.35.12.25.26.52.4.8.07.14.15.28.22.42.27.5.53 1 .79 1.5.14.27.28.53.4.79.35.68.64 1.3.92 1.9-.2-.33-.4-.67-.61-1-.16-.26-.33-.52-.52-.76l-.61-.79c-.42-.54-.85-1.08-1.28-1.62-.42-.52-.83-1.05-1.22-1.58s-.77-1.07-1.17-1.6c-.12-.15-.23-.3-.35-.45-.1-.13-.21-.24-.32-.36-.1-.11-.19-.22-.29-.32-.13-.13-.27-.26-.4-.39-.13-.12-.27-.23-.41-.35-.12-.1-.25-.2-.38-.3-.28-.22-.55-.43-.82-.66l.12.15c.09.12.19.23.28.35l.57.69c.12.15.24.3.35.46.1.15.21.29.31.44.11.16.21.32.32.48l.58.85c.19.27.37.55.56.83.19.28.38.55.57.83.33.48.68.94 1.04 1.39l.09.12c.43.54.85 1.08 1.29 1.62.19.25.4.48.6.73.05.06.09.12.14.18.4.52.74 1.09 1.1 1.64.23.35.45.71.68 1.06.03.04.06.09.08.13-.05-.07-.11-.13-.16-.2-.03.02-.06.04-.09.05-.05.02-.11.02-.17.02h-.05zm9.67 15.83c-.16-.2-.33-.4-.49-.6-.2-.24-.4-.49-.6-.72-.17-.21-.35-.41-.52-.62l-.11-.14c-.21-.26-.42-.54-.61-.82-.24-.35-.47-.7-.7-1.06-.16-.26-.32-.54-.47-.83-.15-.27-.27-.55-.4-.83l-.08-.18c-.08-.19-.16-.39-.23-.59-.1-.29-.2-.58-.28-.83-.18-.62-.33-1.24-.44-1.72-.13-.57-.23-1.17-.32-1.7l-.24-1.84v-.07c-.08-.54-.15-1.11-.2-1.66-.06-.64-.1-1.3-.14-1.93-.02-.33-.04-.66-.07-.99-.02-.22-.03-.43-.05-.65v-.06c-.03-.27-.05-.54-.07-.81-.02-.26-.03-.51-.04-.75-.01-.24-.02-.48-.02-.71 0-.48.02-.88.05-1.24.02-.25.03-.51.05-.76.02-.25.04-.51.05-.76.03-.48.05-.97.06-1.43v-.13l.03-.95c0 .02.02.04.03.06l.03.06.02.03.08.15c.24.48.47.92.68 1.35.21.43.4.83.58 1.23.2.42.39.85.59 1.27.24.5.47 1 .7 1.5.03.07.06.13.08.2.03.07.06.13.08.2l.07.17c.05.13.1.26.15.4l.06.17c.11.29.2.59.29.89l.06.2s.03.11.05.17c.07.25.14.5.2.75.25.97.49 1.97.72 2.97l.02.1c.2.9.41 1.83.57 2.76.07.5.12 1.01.15 1.52.02.27.03.54.04.81 0 .21.02.42.03.63v.03c.02.36.05.71.07 1.07l.03.4c.02.28.04.54.06.79.02.25.04.49.07.72l.09.68c-.07-.22-.15-.44-.21-.67 0 .01 0 .03.01.04-.33-1.15-.69-2.29-1.03-3.43v.02c-.18-.63-.38-1.27-.57-1.9-.5-1.61-1.08-3.2-1.58-4.82.13 1.01.23 2.03.38 3.03.03.18.05.35.08.53.13.83.27 1.67.46 2.49.2.88.46 1.74.74 2.59.53 1.6 1.02 3.22 1.64 4.79.15.39.32.77.48 1.16.12.3.24.59.36.89.02.09.03.18.05.27-.22-.33-.4-.61-.61-.88zm1.43 9.57c-.12-.04-.24-.08-.37-.12-.22-.07-.44-.15-.66-.21-.59-.17-1.19-.31-1.78-.45l-.44-.1c-.7-.19-1.26-.35-1.77-.51l-.26-.08c-.54-.17-1.11-.35-1.67-.51-.44-.12-.88-.24-1.33-.34-.44-.11-.89-.21-1.33-.31-.44-.1-.9-.21-1.36-.32-.11-.03-.21-.05-.32-.07-.3-.08-.57-.15-.82-.22s-.49-.14-.72-.21c-.28-.08-.56-.17-.83-.26-.18-.06-.36-.12-.53-.19l-.16-.06-.17-.07c-.14-.06-.29-.11-.43-.18-.08-.04-.16-.07-.24-.11-.15-.07-.31-.14-.46-.21-.07-.04-.15-.08-.23-.11-.15-.08-.31-.15-.46-.23-.23-.13-.46-.25-.7-.38-.21-.12-.43-.24-.65-.36h-.02c-.15-.09-.3-.18-.45-.26l-.18-.1h.02l-.04-.01c-.04-.02-.07-.04-.11-.06-.15-.08-.31-.17-.46-.25h-.02.01s-.06-.03-.09-.05l-.13-.07c.03 0 .06-.02.09-.02.17-.05.34-.09.5-.13.39-.09.77-.19 1.16-.29.33-.08.66-.17.99-.25a24.46 24.46 0 0 1 2.16-.44h-.02.06c.22-.04.45-.07.67-.09.27-.02.54-.03.81-.04h.71c.24 0 .49.01.74.03l.84.06c.21.02.42.04.63.07h.02c.24.04.51.08.77.13l.27.06c.13.03.26.06.41.09l.08.02c.25.08.52.15.77.25.08.03.17.07.26.12.09.04.19.09.3.15l.14.08.27.15c.09.05.17.1.26.16l.07.04a37.837 37.837 0 0 1 1.58 1.05c.24.17.47.33.68.48.04.03.09.06.13.1.26.19.52.4.78.6.33.26.67.51 1 .78.17.14.32.27.48.4.43.36.83.71 1.19 1.04.29.29.58.57.87.86.09.09.17.18.25.26-.28-.16-.56-.32-.85-.48.02 0 .03.02.05.03-.24-.14-.49-.27-.73-.41-.2-.12-.41-.23-.61-.34 0 0-.02-.01-.03-.02-.41-.23-.82-.47-1.24-.69-.12-.06-.23-.13-.35-.18-.11-.05-.22-.09-.32-.14-.22-.09-.45-.17-.67-.25-.4-.14-.82-.25-1.24-.31-.12-.02-.24-.04-.37-.06-.12-.01-.24-.02-.36-.04-.23-.02-.47-.04-.7-.05.22.05.45.1.67.16.22.06.43.12.65.2.18.06.36.14.54.21.17.08.34.15.5.23.18.1.37.2.55.3-.01 0-.02-.01-.03-.02.19.12.39.22.57.35.2.14.41.28.61.43.37.26.75.52 1.13.77.59.39 1.19.75 1.8 1.1-.12-.04-.24-.07-.35-.11zm8.09 39.79c-.15-.44-.33-.88-.49-1.31l-.12-.29-.03-.08-.03-.08c-.18-.46-.36-.91-.53-1.37-.1-.26-.2-.53-.3-.8-.1-.27-.2-.55-.3-.82-.08-.24-.17-.48-.25-.74s-.17-.54-.27-.84c0-.02 0-.03-.01-.04 0-.02-.01-.04-.02-.05-.01-.05-.03-.1-.04-.15l-.04-.15c-.14-.5-.27-1.01-.39-1.51s-.24-1-.35-1.49l-.04-.18-.04-.18-.03-.11c-.11-.49-.23-.97-.33-1.46-.11-.52-.22-1.07-.32-1.66l-.02-.15-.02-.13c-.04-.29-.06-.57-.1-.86-.08-.73-.14-1.44-.18-2.13 0-.12-.02-.26-.02-.38-.03-.58-.05-1.19-.07-1.85-.01-.46-.03-.94-.04-1.47v-.41c0-.41 0-.82.01-1.24v-.01c0-.26.02-.53.04-.79s.05-.53.07-.8c.08-.58.16-1.1.25-1.59.11-.57.21-1.13.31-1.7.04-.26.09-.52.13-.78l.15-.89c.1-.56.22-1.11.33-1.57.07-.27.14-.51.2-.73.02-.07.04-.14.07-.21.04-.14.08-.28.13-.4.14-.43.3-.84.47-1.3 0-.02.01-.03.02-.05.2-.54.4-1.07.57-1.6.18-.53.34-1.06.49-1.58.31-1.08.61-2.16.93-3.35.16-.58.3-1.11.42-1.63.12-.51.22-1.01.3-1.51l.03.12c.06.21.12.42.18.62l.09.29c0 .03.02.06.03.09.11.38.2.74.29 1.09.09.34.17.67.24.98l.03.15c.07.29.14.6.2.9l.18.98v.09l.03.23c.01.08.02.17.04.26 0 .07.02.14.03.21.03.22.06.44.08.66.03.33.07.69.1 1.07l.03.38.04.58c.07.94.15 1.91.24 2.86.03.31.07.62.11.93l.09.73c.06.53.12 1.1.15 1.67.05.82.08 1.66.11 2.47.01.33.03.66.04.98v.04c.01.3.03.6.04.9 0 .13 0 .27.01.41.03.65.06 1.32.07 1.98s0 .08 0 .11c.01 1.09-.03 2.17-.07 3.37-.01.29-.03.58-.04.86 0 .1-.01.2-.02.3-.01.18-.02.37-.04.54 0 .11-.02.21-.03.32-.01.16-.03.33-.04.49-.01.14-.03.28-.04.42 0 .1-.02.21-.03.3v.06c-.01.12-.03.25-.05.37 0 .04-.01.08-.02.12-.06.51-.13 1.03-.22 1.55-.16.94-.34 1.89-.52 2.81l-.11.59c-.09.46-.17.94-.25 1.4l-.05.28-.03.18c-.03.2-.07.4-.1.6-.05.32-.08.65-.11.92-.06.55-.08 1.11-.1 1.64 0 .15 0 .3-.01.45 0 .15 0 .29-.01.44v.07c0 .17 0 .35-.02.52 0-.13-.01-.26-.02-.39a60.54 60.54 0 0 0-.62-5.7v.01c0-.05-.01-.09-.02-.14 0 .02 0 .05.01.07-.02-.11-.03-.22-.05-.33 0-.05-.01-.09-.02-.14v-.08c0 .02 0 .05.01.07l-.12-.77c0 .02 0 .05.01.07-.12-.84-.23-1.68-.32-2.52-.05-.46-.09-.93-.13-1.39-.04-.47-.08-.94-.11-1.42-.03-.5-.07-1.01-.1-1.51-.03-.45-.04-.89-.05-1.34 0-.96.02-1.91.06-2.86.04-.96.08-1.92.08-2.89 0-.96-.02-1.93.03-2.89.03-.49.07-.98.12-1.46.05-.47.1-.94.16-1.41.05-.49.1-.97.12-1.46.02-.51.03-1.02.03-1.53-.08.58-.19 1.15-.32 1.73v-.02c-.1.39-.2.77-.31 1.15-.09.33-.19.67-.28 1-.06.25-.14.49-.19.74-.05.23-.11.46-.15.69-.09.48-.17.95-.22 1.43-.1.97-.15 1.94-.19 2.91-.02.48-.03.95-.05 1.43-.02.48-.03.95-.04 1.43 0 .98 0 1.96.07 2.94.07 1 .14 1.99.22 2.99.04.46.08.92.13 1.38.05.45.09.91.16 1.36.14 1 .28 2 .46 3 .16.91.31 1.82.46 2.73v-.01c.04.32.09.64.13.97.05.37.09.75.13 1.12.07.65.13 1.31.2 1.96.1.97.21 1.94.37 2.91l.12.64c-.02.23-.03.44-.05.65l-.02.24v.06c-.01-.07-.03-.14-.04-.2l-.06-.26c-.03-.15-.06-.31-.1-.46-.16-.8-.33-1.62-.6-2.4zm-6.28 24.23c-.02-.12-.05-.23-.07-.35.03 0 .05.02.08.01.02 0 .05-.02.07-.03l-.08.38zm-1.11-5.1c-.11-.49-.23-1.07-.37-1.68s-.29-1.26-.45-1.91c-.11-.46-.24-.92-.36-1.37l-.09-.34c-.15-.57-.31-1.14-.46-1.71-.27-1-.51-2.09-.81-3.51-.12-.56-.23-1.15-.34-1.74-.11-.59-.2-1.16-.3-1.75-.01-.13-.03-.26-.05-.4l-.03-.28c0-.06-.02-.12-.02-.19-.02-.12-.03-.25-.04-.37l-.02-.26c-.01-.16-.03-.32-.04-.48 0-.07-.01-.13-.02-.2l-.03-.35c0-.16-.02-.31-.02-.47-.02-.28-.03-.57-.04-.85v-.23c-.01-.36-.02-.72-.04-1.08v-.37c0-.42 0-.86.02-1.29v-.39c.02-.24.03-.47.04-.71 0-.19.02-.38.04-.58 0-.09.01-.18.02-.27.08-1.2.2-2.43.3-3.51.04-.32.07-.64.11-.96.02-.19.04-.38.07-.58.04-.31.08-.61.13-.92.02-.15.04-.3.07-.45l.12-.83.06-.39c.08-.5.13-1.02.19-1.52l.04-.36c.02-.2.03-.4.04-.59v-.07l.02-.49.03-.62v-.1l.12.47c.03.1.05.19.08.29.12.42.23.83.35 1.22v.02c.1.34.2.64.28.91.09.27.17.52.26.76l.11.3c.16.45.33.92.48 1.39.08.26.16.52.25.79.25.81.51 1.66.78 2.59.15.55.26.98.36 1.39.11.5.23.99.34 1.49.23 1.02.4 1.95.54 2.83.13.91.21 1.61.27 2.27.05.54.1 1.07.14 1.61l.06.69c.1 1.12.19 2.32.24 3.53.05 1.27.08 2.51.1 3.68s0 0 0 .01v-.02.48c0 .49 0 .99-.01 1.5-.02.71-.08 1.42-.14 2.03l-.06.49-.03.25v-.03.09c-.02.18-.04.36-.07.54-.04.27-.07.53-.1.8l-.04.38v.07l-.02.06-.02.16c-.08.63-.15 1.26-.22 1.89-.04.34-.08.68-.11 1.01-.09.76-.21 1.49-.35 2.2 0-.2-.01-.4-.02-.6-.01-.39-.02-.78-.02-1.17v.04c0-.28 0-.57-.01-.85v-.69c0-.91-.01-1.83-.06-2.74-.05-.91-.09-1.82-.16-2.73a64.4 64.4 0 0 0-.27-2.76c-.11-.91-.23-1.81-.33-2.72-.1-.93-.19-1.87-.28-2.8-.08-.92-.15-1.84-.23-2.76-.17-1.9-.39-3.8-.58-5.7-.19-1.81-.31-3.63-.44-5.44-.01.38-.02.75-.04 1.13-.04.95-.1 1.9-.14 2.86 0 .2-.01.4-.02.6 0 .24-.02.47-.02.71v1.36c.03 1.89.1 3.78.24 5.66.14 1.82.3 3.63.57 5.43.05.36.11.72.16 1.09v-.07l.15.97c.04.29.09.58.13.87.08.55.16 1.1.23 1.65.07.5.13 1 .18 1.51.1.91.2 1.82.27 2.74.07.9.07 1.8.09 2.7v-.04c0 .4.01.79.02 1.19-.25-1.13-.5-2.27-.74-3.4zm-11.73 8.7c-.02-.27-.05-.55-.06-.83-.02-.29-.04-.58-.05-.88v-.97c0-.21.01-.43.02-.64v-.13l.02-.15c.01-.2.03-.42.05-.62l.1-.97c.02-.18.05-.37.08-.55l.02-.12c.04-.29.08-.57.13-.87.05-.3.1-.61.15-.94.08-.48.18-.97.27-1.45l.05-.26c.1-.53.22-1.06.35-1.59.12-.53.26-1.07.39-1.61.17-.64.34-1.3.52-1.94.21-.74.43-1.47.64-2.15.1-.33.2-.66.31-.99l.18-.56c.13-.43.25-.86.37-1.28l.05-.18.08-.28c.14-.48.27-.96.41-1.44l.06-.22c.05-.19.11-.38.17-.56l.08-.25c.04-.13.08-.26.13-.39.02.12.03.23.05.35l.05.37c.09.67.19 1.34.29 2.02l.15 1.01v.08l.08.54.08.54c.03.24.06.48.08.72l.02.18.02.18c.03.23.05.47.06.71v.34c.03.25.04.5.05.75v1.86c-.02.28-.02.56-.03.84v.42c-.02.83-.03 1.7-.04 2.54v1.93c0 .21 0 .42-.01.62l-.03.56-.02.42v.02c-.02.42-.06.85-.09 1.27l-.04.44c-.04.47-.09.95-.15 1.42v.08c-.07.49-.12.98-.18 1.47v-.01l-.04.3c-.06.5-.12 1.01-.19 1.51-.02.12-.03.23-.05.35-.03.24-.06.47-.1.71l-.12.71-.06.33c-.18 1.03-.43 2.06-.67 3.06l-.08.34c-.11.44-.21.87-.32 1.31l-.07.29c-.05.22-.11.45-.16.67-.07.3-.14.59-.22.89s0 .01 0 .01v.02l-.1.37c-.11.43-.22.87-.34 1.3-.09.33-.18.65-.27.95l-.03.12.06-.33c.05-.31.09-.61.14-.92.06-.39.12-.77.17-1.16l.18-1.39c.11-.8.19-1.61.27-2.42.03-.28.05-.55.07-.83l.12-1.5c.06-.77.12-1.54.17-2.32.02-.34.06-.67.09-1.01.04-.4.07-.81.11-1.21.08-.65.15-1.29.22-1.94.01-.09.03-.18.04-.27.04-.27.09-.55.13-.82.02-.15.04-.3.07-.45l.24-1.2c.17-.82.35-1.64.53-2.46-.24.8-.49 1.6-.73 2.4-.12.39-.22.79-.34 1.18-.04.13-.07.27-.1.41-.06.26-.13.52-.19.78-.03.12-.06.24-.09.37-.03.17-.07.35-.1.52-.09.46-.17.92-.26 1.39-.02.09-.03.19-.04.28-.04.26-.08.52-.11.78-.06.39-.12.79-.17 1.18-.09.7-.16 1.4-.23 2.1-.08.77-.15 1.55-.22 2.32l-.09.93c-.04.41-.08.82-.13 1.23v-.05c-.09.7-.16 1.39-.26 2.09-.07.49-.13.99-.2 1.48-.04.3-.09.59-.14.89-.02.13-.04.27-.07.4 0-.27-.01-.55-.02-.82-.02-.9-.09-1.8-.17-2.61-.03-.27-.05-.53-.08-.78l-.36-3.32c0-.06-.02-.13-.02-.19l-.21-1.77-.18-1.46c-.07-.6-.13-1.1-.17-1.61zm17.89 3.33-.62.37.02-.03.03-.03c.18-.19.35-.36.52-.54.03.04.06.06.1.08.03.02.07.02.11.03-.05.04-.11.07-.16.11zm23.5-27.7v.03l-.09.4c-.03.13-.05.26-.07.39-.02.13-.05.26-.07.39-.06.34-.13.69-.2 1.04-.07.35-.15.7-.24 1.05-.12.48-.27.94-.45 1.38-.09.21-.18.42-.27.62a8.04 8.04 0 0 1-.7 1.25c-.15.22-.3.45-.47.68-.32.44-.67.87-1 1.29l-.25.31c-.2.25-.39.5-.58.75-.1.13-.2.27-.3.4-.2.26-.41.53-.61.8l-.22.3c-.18.24-.37.47-.55.71l-.17.22-.21.27-.27.34c-.06.07-.12.15-.19.22l-.05.06-.29.32c-.23.26-.46.52-.68.78h-.02s-.02.03-.02.04-.05.06-.08.08l-.03.03-.02.02-.01.02-.02.02-.02.02-.44.46h-.01l.01-.01s-.02.01-.02.02c-.04.04-.08.09-.12.13l-.02.03-.02.02-.02.02-.02.03-.02.02-.02.02-.09.09-.02.02-.03.03v.02l-.05.04-.04.04-.07.07-.02.02v.01s0 .01-.01.02l-.02.02-.02.02-.03.04-.11.12-.03.03-.02.02-.15.15-.08.08-.08.08.01-.01c-.08.08-.16.16-.23.25l-.27.28-.02.01-.17.18c-.17.17-.32.34-.48.51-.08.08-.16.17-.24.25l-.5.54-.13.14-.03.03-.02.02c-.06.06-.13.13-.19.2l-.19.2-.39.4-.22.23c-.09.09-.18.18-.27.28l-.27.27-.77.75-.47.46c-.17.17-.35.33-.54.51-.06.06-.12.11-.18.17l-.36.33c-.23.22-.47.43-.71.64-.53.43-.97.79-1.42 1.16l-.45.33-.21.16-.19.14-.62.46-.72.51c-.12.09-.24.17-.37.26-.3.21-.6.43-.9.64l-.29.21s-.08.05-.11.08c.17-.15.35-.3.51-.46.24-.24.49-.48.73-.71.16-.15.32-.31.47-.47l.03-.03.02-.02.01-.01c.03-.03.06-.06.09-.1.04-.04.08-.09.12-.13.03-.03.06-.06.08-.09 0 .01-.02.02-.03.03.17-.18.34-.36.52-.54 0 .01-.02.02-.03.03.06-.06.12-.13.18-.19 0 .01-.02.02-.03.03.01-.02.03-.03.04-.05s0 0-.01.01l.02-.02.03-.03-.02.02v-.01l-.02.02.01-.01c.05-.05.1-.1.15-.16l1.53-1.68c.19-.21.38-.42.57-.62.25-.27.49-.54.74-.8 0 0 .01-.02.02-.02l.02-.02-.02.02.64-.67c0 .01-.02.02-.03.03.05-.06.11-.12.17-.17l-.03.03c.04-.04.07-.08.11-.12l-.03.03.02-.02.02-.02c.12-.11.23-.23.34-.35.16-.16.31-.32.47-.48.24-.24.48-.49.72-.74.21-.21.41-.43.62-.65.16-.17.32-.35.48-.52.06-.06.11-.12.17-.19.27-.33.53-.65.79-.98.07-.09.13-.18.2-.27.14-.2.28-.4.43-.59.36-.5.7-1.01 1.04-1.51.2-.3.4-.59.61-.89.21-.29.42-.59.63-.88v-.01c.18-.24.36-.49.54-.74.01-.02.03-.04.04-.06l.07-.1c.21-.28.42-.57.63-.85-.5.53-.99 1.07-1.49 1.61l.01-.01c-.09.09-.17.19-.26.29l-.42.48c-.22.25-.43.52-.65.78-.2.24-.39.47-.58.71l-.57.72-.45.57c-.09.11-.18.22-.26.33-.15.17-.3.35-.45.53l-.31.37-.14.17c-.31.33-.61.67-.92 1.01-.5.51-.99 1.02-1.48 1.53-.43.45-.86.9-1.28 1.36-.96 1.04-1.91 2.08-2.86 3.12-.22.22-.43.44-.65.67.17-.19.35-.38.52-.57l.09-.1.34-.39.54-.6c.14-.15.27-.31.4-.47l.1-.12c.1-.12.2-.24.29-.36.29-.38.56-.75.82-1.11v.01l.09-.12c.14-.19.28-.39.42-.58v-.02h.01c.05-.06.09-.13.14-.19l.14-.19.24-.33.12-.15c.22-.3.45-.59.68-.88.05-.06.1-.13.15-.19.25-.31.5-.63.75-.94.27-.33.53-.66.79-.99.08-.11.17-.21.25-.32l.12-.16c.04-.06.09-.11.13-.17.08-.11.17-.21.25-.32s.01-.02.01-.02v.01s.04-.06.06-.08c.09-.13.19-.26.29-.39.12-.17.25-.33.37-.5.17-.23.34-.47.5-.7l.2-.29.28-.4c.11-.16.22-.33.34-.49.11-.16.23-.32.34-.48.11-.15.22-.3.32-.45.09-.12.18-.24.28-.36l.1-.13.16-.21.1-.13.03-.04s.04-.06.07-.08l.38-.44c.15-.18.31-.35.46-.53l.44-.44.14-.14.11-.12c.1-.11.21-.21.31-.31l.21-.2c.32-.3.64-.6.96-.91l.31-.3.31-.3c.08-.08.16-.17.24-.26l.08-.09.59-.64c.08-.08.15-.17.22-.25l.06-.07.21-.24.63-.75.22-.26c.2-.24.41-.5.62-.74.09-.1.17-.2.26-.29.2-.23.41-.47.62-.7l.24-.26c.23-.24.45-.48.67-.73l.27-.29.27-.29c.11-.12.21-.24.31-.36l.07-.08v.04zm-35.17 21.92v-.01z" class="cls-1"/><path d="M34.93 95.5v-.04c0 .01 0 .03-.01.04zM12.72 50.02s0-.01-.01-.02c0 0 .01.02.02.03zm5.71 1.65zm-4-15.13h.07-.07zm-.27-.03h.06-.07zm6.61 3.01.01.01c.01.01.03.02.04.03-.02-.01-.04-.03-.05-.04zm-5.04-23.07v-.01.02zm8.59 78.38v-.01.01zm-8.71 19.05v-.04.05zm21.83-57.39s.01-.02.02-.03c0 .01-.01.02-.02.03z" class="cls-1"/></g></svg>