<svg xmlns="http://www.w3.org/2000/svg" data-name="Layer 2" viewBox="0 0 143.21 124.57"><path fill="#e9e1d9" d="M54.67.3c-.88.96-1.77 1.91-2.63 2.89-9.12 10.44-16.45 21.95-20.63 35.26-1.81 5.78-2.59 11.71-1.78 17.78.03.19.08.37.14.68 2.76 0 5.51-.2 8.23.03C50.51 58 62.27 67.51 66.11 79.52c5.53 17.33-2.34 34.76-18.97 42.02-17.07 7.45-38.2-1.67-44.4-19.24-3.2-9.08-3.39-18.38-1.62-27.8C3.1 64 7.1 54.26 12.24 44.96c6.22-11.24 13.42-21.78 22.62-30.84C40.26 8.81 46.49 4.58 52.94.68c.45-.27.96-.46 1.44-.69.09.1.18.2.28.3zm75.24.44c-.77.85-1.55 1.69-2.31 2.55-9.37 10.58-16.78 22.32-21.03 35.88-1.72 5.49-2.31 11.17-1.78 16.93.04.38.13.76.23 1.38 3.11 0 6.25-.39 9.27.07 12.46 1.91 21.43 8.74 26.25 20.35 7.36 17.75-1.03 37.12-18.83 44.33-17.36 7.03-38.04-2.47-43.95-20.25-2.79-8.39-3.05-16.98-1.59-25.67 2.5-14.9 9.04-28.11 17.14-40.62 5.49-8.48 11.51-16.57 19.16-23.31 4.86-4.28 10.18-7.89 15.71-11.24.47-.29 1.01-.48 1.52-.71.07.1.15.2.22.3z"/></svg>