<svg xmlns="http://www.w3.org/2000/svg" id="Layer_2" data-name="Layer 2" viewBox="0 0 200 200"><defs><style>.cls-1{fill:#bba085}</style></defs><g id="OBJECTS"><path d="M141.87 153.56c-1.61-3.27-4.1-6.83-6.18-10.46-.59-2.9-1.3-5.75-2.25-8.5-.09-.27-.37-.37-.61-.31-.34-.24-.82-.25-1.09.03-.11.04-.2.12-.18.25 0 .04.01.07.02.11 0 .06-.03.1-.03.17.37 12.79-2.01 25.39-.17 38.14 1.49 10.36 9.84 21.23 18.67 26.85.79.5 1.53-.3 1.44-1.05-.63-5.42-1.41-10.04-1.07-15.56.3-4.97-.83-10.06-2.13-14.82-1.41-5.19-4.04-10.04-6.4-14.85zm-5.05-3.98c2.44 4.67 5.23 9.23 7.3 13.65.38.82.74 1.66 1.07 2.52l-1.03-1.06c-2.87-2.97-5.06-6.16-6.56-9.9-.26-1.74-.51-3.48-.78-5.21zm-3.48-3.03c.38 2.82.89 5.63 1.45 8.43-.12 2.18-.23 4.35-.41 6.52-.15 1.87-.59 3.67-1 5.46-.59-6.78-.22-13.59-.04-20.41zm.49 24.01c.74-2.51 1.48-5.07 1.85-7.6.13-.86.21-1.71.27-2.56.29 1.26.6 2.51.91 3.76.06 3.55-.27 7.09-.81 10.61-.15.94-.29 1.9-.4 2.86-.81-2.31-1.42-4.68-1.82-7.06zm6.59 16.44c-1.11-1.63-2.13-3.32-2.98-5.08.19-2.85.03-5.79.47-8.65.19-1.25.7-2.58.41-3.71l.11.43c.21.8.82 1.5 1.03 2.3.46 3.66 1.1 7.28.96 10.98-.04 1.21.01 2.46 0 3.73zm2.07 2.82c-.29-3.07-.2-6.04-.21-9.18.57 1.83 1.12 3.66 1.75 5.47 1.07 3.03 1.94 6.3 3.61 9.11-1.87-1.63-3.58-3.46-5.15-5.4zm6.6 5c-2.02-4.43-3.68-8.91-5.16-13.45 1.2 2.17 2.94 4.23 4.43 6.19.15 2.46.43 4.84.73 7.27zm-.81-11.64c-.02.51 0 1 0 1.5-.76-1.08-1.71-2.09-2.44-3.15-2.01-2.94-2.73-6.56-4.65-9.57-.15-.71-.3-1.43-.46-2.14.38.63.79 1.25 1.27 1.86 1.05 1.32 2.19 2.56 3.36 3.79 1.2 1.26 1.8 2.76 2.85 4.02.08 1.25.11 2.49.07 3.7zm-.39-6.99c-.66-.98-1.41-1.9-2.22-2.75-2.93-3.09-4.83-6.35-6.61-10.04-.25-1.27-.48-2.55-.69-3.84.59 1.07 1.23 2.13 1.99 3.17 1.76 2.42 4.02 5.11 6.27 7.3.56 2.02.98 4.09 1.26 6.16zm15.15-145.36c-2.1 2.99-4.02 6.88-6.2 10.45-2.27 1.93-4.45 3.95-6.41 6.13-.2.22-.14.5.02.67-.04.4.18.82.56.92.09.07.2.11.31.03.03-.02.06-.05.09-.07.06-.02.11-.03.16-.06 11.15-6.65 23.49-10.87 33.88-18.76 8.44-6.41 13.93-18.9 14.53-29.21.05-.92-1.02-1.16-1.65-.71-4.49 3.22-8.2 6.18-13.25 8.63-4.55 2.21-8.5 5.69-12.07 9.16-3.89 3.77-6.89 8.42-9.98 12.81zm-1.02 6.27c2.93-4.39 5.58-9.03 8.47-12.98.53-.73 1.11-1.45 1.7-2.16-.14.47-.28.94-.43 1.4-1.21 3.92-2.94 7.36-5.51 10.49-1.41 1.08-2.83 2.16-4.23 3.25zm-.96 4.47c2.31-1.72 4.54-3.55 6.75-5.41 1.99-.98 3.97-1.96 5.98-2.89 1.74-.8 3.54-1.31 5.34-1.86-5.71 3.87-11.93 6.92-18.06 10.15zm21.03-12.32c-2.59.62-5.22 1.26-7.65 2.19-.82.32-1.62.67-2.4 1.04.97-.88 1.93-1.76 2.88-2.64 3.11-1.81 6.41-3.29 9.8-4.57.91-.34 1.83-.69 2.73-1.08a44.084 44.084 0 0 1-5.36 5.05zm11.3-13.76c-.9 1.75-1.88 3.46-3.03 5.05-2.61 1.25-5.14 2.85-7.89 3.89-1.21.46-2.63.68-3.49 1.49l.33-.3c.61-.57.92-1.44 1.52-2.02 3.02-2.21 5.91-4.54 9.25-6.26 1.09-.56 2.17-1.23 3.31-1.85zm1.47-3.15c-2.57 1.77-5.25 3.17-8.03 4.73 1.34-1.39 2.69-2.76 3.98-4.21 2.16-2.42 4.62-4.77 6.29-7.59-.52 2.4-1.29 4.77-2.23 7.06zm1.16-8.1c-2.93 3.92-6.07 7.55-9.36 11.06 1.33-2.1 2.3-4.6 3.28-6.84 2.11-1.35 4.07-2.77 6.08-4.23zm-9.91 6.46c.46-.24.88-.5 1.33-.74-.58 1.19-1 2.49-1.59 3.63-1.6 3.17-4.46 5.57-6.17 8.7-.56.48-1.12.96-1.67 1.45.37-.64.72-1.29 1.01-2 .65-1.55 1.19-3.13 1.69-4.74.52-1.65 1.56-2.9 2.15-4.42 1.07-.68 2.15-1.33 3.24-1.89zm-5.99 3.8c-.54 1.04-.98 2.14-1.34 3.26-1.28 4.03-3.23 7.26-5.62 10.6-1 .84-2.03 1.67-3.06 2.49.66-1.03 1.28-2.1 1.82-3.26 1.27-2.7 2.53-5.95 3.36-8.96 1.51-1.48 3.14-2.86 4.83-4.13zM31.5 41.92c3.05 2.06 7.02 3.93 10.67 6.06 1.98 2.23 4.04 4.35 6.26 6.27.22.19.51.14.69-.02.41.04.84-.18.93-.55.07-.09.11-.2.03-.31-.02-.03-.05-.06-.07-.09-.02-.05-.03-.11-.06-.16-6.8-10.92-11.13-23.01-19.19-33.18C24.22 11.68 11.46 6.31.95 5.74 0 5.69-.23 6.74.23 7.35c3.29 4.4 6.31 8.02 8.82 12.98 2.26 4.46 5.82 8.32 9.36 11.82 3.86 3.81 8.6 6.74 13.09 9.76zm6.4.99c-4.49-2.86-9.22-5.45-13.26-8.28-.75-.52-1.48-1.08-2.21-1.67.48.14.96.28 1.43.42 4 1.18 7.51 2.88 10.71 5.39 1.11 1.38 2.21 2.77 3.32 4.14zm4.56.93c-1.76-2.26-3.62-4.45-5.53-6.61-1-1.95-2.01-3.89-2.95-5.86-.81-1.7-1.34-3.47-1.9-5.23 3.95 5.59 7.08 11.69 10.38 17.69zm-12.6-20.59c.63 2.54 1.29 5.12 2.25 7.5.33.8.69 1.58 1.06 2.36-.89-.95-1.79-1.89-2.69-2.82-1.86-3.05-3.36-6.28-4.67-9.6-.35-.89-.71-1.79-1.1-2.68 1.87 1.61 3.61 3.36 5.16 5.24zM15.8 12.19c1.79.88 3.53 1.84 5.16 2.96 1.28 2.56 2.91 5.03 3.98 7.73.47 1.18.7 2.58 1.52 3.42l-.31-.32c-.59-.6-1.47-.9-2.06-1.49-2.26-2.95-4.64-5.79-6.4-9.06-.58-1.07-1.26-2.13-1.89-3.24zm-3.22-1.44c1.81 2.52 3.24 5.14 4.84 7.86-1.42-1.31-2.82-2.63-4.3-3.89-2.47-2.11-4.88-4.52-7.75-6.15 2.45.51 4.86 1.26 7.21 2.18zM4.32 9.63c4 2.86 7.71 5.93 11.3 9.16-2.14-1.3-4.69-2.24-6.98-3.21-1.38-2.07-2.83-3.99-4.32-5.95zm6.61 9.7c-.24-.45-.51-.87-.76-1.3 1.21.57 2.54.98 3.71 1.55 3.24 1.57 5.69 4.36 8.89 6.04l1.48 1.63c-.65-.36-1.32-.7-2.04-.99-1.59-.63-3.2-1.16-4.83-1.65-1.68-.5-2.96-1.52-4.51-2.1-.7-1.05-1.36-2.1-1.93-3.18zm3.88 5.87c1.07.53 2.19.96 3.32 1.31 4.11 1.25 7.41 3.16 10.83 5.49.86.98 1.71 1.98 2.55 3-1.05-.64-2.15-1.25-3.33-1.78-2.76-1.24-6.08-2.47-9.15-3.28a48.487 48.487 0 0 1-4.22-4.73z" class="cls-1"/><path d="M182.74 61.04c-.06-.49-.22-1-.55-1.55-3.92-6.57-16.45-6.07-22.95-5.89-3.48.1-6.93.42-10.35.93 4.04-1.37 8.06-3.23 11.83-4.6 1.93-.7 9.65-3.36 9.2-6.22-.54-3.42-6.99-.89-8.73-.14-3.08 1.32-6.05 2.82-8.88 4.54 2.54-3.27 4.62-6.84 6.06-9.67 2.52-4.92 4.72-14.93-2.62-17.25-6.8-2.14-15.3.64-21.42 3.52-6.04 2.85-10.51 6.98-13.81 12.1.72-2.17 1.96-3.94 3.38-5.76 2.06-2.64 3.99-5.42 5.71-8.29.92-1.54 4.37-7.7 2.53-9.5-2.23-2.18-5.8 3.3-6.69 4.64-2.63 3.98-4.26 8.29-5.48 12.76.32-3.69.34-7.39-.12-11.13-.78-6.32-4.67-11.93-10.88-14.06-.71-.24-1.46-.39-2.23-.47-2.94-1.88-8.3-.17-11.42.34-3.95.64-7.54 2.14-10.74 4.33-.69.15-1.37.47-2.01.91-4.82 3.34-5.68 11.51-5.7 16.82-.56-2.37-1.17-4.74-1.7-7.05-.54-2.35-1.31-6.37-4.03-7.22-3.64-1.15-3.07 5.35-2.87 6.84.7 5.22 4.01 9.89 7.31 14.14-3.33-2.65-7.48-4.36-11.85-5.27-5.04-1.06-13.35-2.21-16.92 2.59-4.08 5.49-1.98 13.59.22 19.43.64 1.7 1.43 3.28 2.33 4.75-2.28-2.31-4.55-4.63-6.87-6.89-2.56-2.5-7.34-6.61-9.74-1.61-2.25 4.67 3.19 9.35 6.51 11.55 3.36 2.22 7.19 3.75 10.87 5.36 1.34.59 2.65 1.23 3.98 1.84-6.48-.82-13-1.17-19.6-.61-4.46.37-8.6 2.02-12.37 4.3-2.04 1.23-5.5 3.89-5.55 6.6-1.33 3.31-.84 8.08-.35 11.01.99 5.83 2.6 10.44 6.58 14.7 4.91 7.43 16.05 8.4 24.28 8.5 3.67.05 7.48-.15 11.29-.58-6.49 2.47-12.67 5.39-18.41 9.51-2.76 1.98-5.6 4.58-7.53 7.36-.78 1.12-3.34 4.65-2.25 6.2 3.18 4.54 10.76-3.43 13.03-5.52 4.67-4.3 9.57-8.74 14.77-12.69-2.43 3.13-4.37 6.69-5.88 9.72-2.78 5.59-5.21 14.43 1.21 18.43 6.52 4.07 16.35.33 22.24-2.99 3.64-2.05 7.16-4.27 10.03-7.29.11-.11.23-.24.34-.35-2.32 3.84-4.52 7.77-6.43 11.74-.73 1.51-2.86 7.15-.23 8.31 3.34 1.47 5.48-.91 6.71-3.87 1.3-3.13 1.83-6.8 2.77-10.05.27-.91.52-1.83.74-2.76-.02 3.45.15 6.93.59 10.46.74 5.92 2.48 13.75 8.67 16.39.84.36 1.57.44 2.24.36 7.06 3.24 17.64 2.41 23.71-2.29 5.5-2.7 7.73-9.61 8.38-15.46.23-2.03.15-4.06-.13-6.06 2.85 5.02 6.5 8.84 11.04 7.62 3.71-1 .48-4.98-.75-6.47-4.45-5.34-9.08-11.76-15.01-15.65-.14-.29-.28-.59-.42-.88 1.6 1.57 3.3 2.96 5.57 4.19 3.43 1.86 7.08 3.31 10.92 4.07 6.41 1.27 13.55-.96 17.24-6.45 6.22-9.25 1.13-19.35-6.99-25.82 4.75 2.39 9.66 4.51 14.95 5.06 2.52.27 10.35-.88 9.73-4.84-.5-3.19-6.49-3.64-8.9-4.02-1.83-.29-3.71-.64-5.63-.98 2.58-.29 5.16-.68 7.71-1.22 7.09-1.51 14.41-5.37 14.81-13.22 2.5-5.51-.69-13.93-4.49-19.29zm-.78 2.44c1.42 3.32 2.45 6.66 3.12 10.14-.48-.73-1-1.43-1.54-2.07-2.25-2.69-5.2-3.55-8.27-4.36 2.45-.78 5.31-2 6.68-3.71zm-60.3-26.51c2.15-3.66 6.02-6.55 9.51-8.87 5.65-3.74 12.61-5.8 19.41-6.02 11.32-.36 8.5 11.53 4.85 18.05-3.95 7.06-9.35 11.62-15.86 16.26v.01c-3.45.87-6.85 1.92-10.19 3.14-4.28 1.57-8.23 3.8-12.09 6.17-.25.16-.49.33-.74.49 3.77-4.18 7.58-8.32 11.24-12.59.94-1.09 6.74-8.55 1.84-8.75-4.36-.18-8.94 5.74-11.52 8.48-1.43 1.52-2.63 3.15-3.68 4.84 1.12-3.8 1.89-7.71 2.78-11.54.16-.7.32-1.41.48-2.12 1.42-2.48 2.53-5.1 3.99-7.57zM94.13 7.74c1.29-.33 2.69-.45 4.12-.52-1.97 1.27-3.56 3-4.31 5.04-.41 1.11-.79 2.7-2.1 1.3-1.23-1.31-2.82-2.35-4.34-3.3 2.13-1 4.29-1.92 6.63-2.51zM80.9 15.62c.61-1.31 1.36-2.54 2.3-3.32.57-.26 1.13-.53 1.7-.8.82-.12 1.74.07 2.81.72 2.08 1.26 3.34 3.49 5.58 4.39.25.1.6-.02.78-.2 1.7-1.76 1.62-4.48 3.42-6.46 1.29-1.42 2.93-2.38 4.7-2.92 1.18-.09 2.33-.24 3.41-.53 1.79-.02 3.59.35 5.22 1.09 8.5 3.85 8.13 14.96 7.74 22.59-.43 8.29-2.77 16.59-4.73 24.63-.93 3.84-2.28 7.51-3.64 11.22-.83 2.26-2.09 4.72-2.4 7.18-.06.15-.12.29-.17.44-.03.07-.03.13-.03.2-.29-.1-.59-.18-.91-.22-.39-12.92 3.33-25.54 4.74-38.27.04-.4-.58-.54-.76-.2-2.86 5.47-3.43 11.97-4.13 18-.38 3.23-.91 6.57-1.24 9.92-.18-2.95-.41-5.9-.54-8.79-.35-7.39.49-15.05-.3-22.36-.08-.76-1.1-.75-1.2 0-1.68 13.01-.02 26.33.79 39.36-1.54-6.16-3.59-12.16-5.65-18.17-2.25-6.56-2.93-13.81-5.64-20.16-.17-.4-.89-.41-.85.11.55 6.89 2.81 13.91 4.97 20.45 2.2 6.66 3.84 13.91 6.71 20.31-.77.19-1.52.46-2.23.82-4.66-4.63-7.71-11.48-11.29-16.91-4.17-6.3-7.89-12.9-10.02-20.14-2.09-7.11-2.34-15.17.86-21.99zm24.14 71.07c-.07-.19-.24-.35-.53-.35-1.32-.02-2.54-.7-3.5-1.69a.748.748 0 0 0-.27-.29 7.688 7.688 0 0 1-1.66-3.15c.01-.12 0-.24-.07-.35-.03-.14-.07-.29-.09-.43-.29-2.68 3.34-4.48 5.48-5 6.9-1.66 6.84 11.1.65 11.26zM46.72 35.24c1.75-7.65 12.57-5.55 18.02-4.55 5.22.95 10.41 4.21 13.98 8.28 1.55 4.93 3.91 9.65 6.48 14.08 2.48 4.28 5.39 8.31 8 12.51.33.53.65 1.08.98 1.62-7.39-8.01-18.88-19.07-21.96-13.91-2.25 3.77 4.36 8.95 6.7 10.79 4.77 3.73 9.62 6.66 14.73 9.52-10.12-1.78-20.21-4.38-30.36-6.26-9.82-7.24-19.54-19.06-16.57-32.08zM21.51 96.06c-1.09-1.77-2.09-3.61-2.65-5.81-.85-3.34-1.13-6.76-.86-10.14 2.78 3.12 9.09 2.84 13.15 4.31-1.03.73-2.25 1.32-3.18 2.09-1.81 1.49-3.32 3.05-4.64 4.97-.91 1.32-1.57 2.93-1.82 4.59zm33.95 12.18c-8.81.93-18.41.7-26.53-3.15-2.1-1-3.54-2.34-4.4-3.87-.1-.21-.21-.43-.32-.64-1.38-3.13-.5-6.91 2.15-10.17 1.95-2.4 5.03-3.43 7.06-5.6.38-.4.34-1.09-.18-1.38-2.03-1.09-4.74-1.14-6.96-1.68-1.47-.36-2.96-.83-4.39-1.32-2.88-.78-3.5-3.02-1.87-6.71.92-.97 1.95-1.81 3.09-2.53 7.79-5.43 17.99-4.45 26.96-3.72 8.85.72 17.8 2.02 26.47 3.89 6.82 1.47 13.7 3.37 20.67 4.18.57.31 1.15.63 1.73.94-.43.47-.82.97-1.12 1.53a.783.783 0 0 0-.5-.23c-12.68-1.31-25.17-1.45-37.78.74-.41.07-.26.62.09.66 6.25.7 12.68-.35 18.94-.63 6.28-.28 12.5 1.14 18.75.7h.02c-.04.15-.1.3-.13.46-.04.24-.06.48-.07.72-5.98-.48-11.18-.05-17.21 1.3-6.22 1.4-13.03 2.49-18.88 5.04-.44.19-.22.93.25.89 5.92-.44 11.71-2.15 17.44-3.6 6.28-1.59 12.26-1.74 18.58-2.24.1.4.26.79.43 1.18-5.52.4-10.72 2.08-16.03 3.56-5.65 1.58-11.67 2.78-16.86 5.54-.59.31-.17 1.12.43 1.01 11.18-2.19 21.79-7.01 32.97-9.19.29.46.63.9 1.01 1.3-.58 1.11-1.26 2.19-2.02 3.23-1.53 1.74-3.08 3.47-4.65 5.18-3.21 2.99-6.89 5.55-10.35 7.62-7.91 4.73-17.74 6.03-26.79 6.98zm3.57 34.66c-17.69-.7-3.62-25.07 5.8-32.97.82-.52 1.65-1.03 2.49-1.51.05-.03.08-.06.11-.1 4.09-.9 8.08-2.09 11.77-3.65a47.59 47.59 0 0 0 6.35-3.29c-1.09 1.21-2.18 2.43-3.25 3.67-2.32 2.71-7.61 7.79-6.6 11.73 1.31 5.1 9.97-3.64 10.85-4.63 3.74-4.23 7.01-8.8 9.43-13.78-2.41 8.41-4.54 16.83-5.66 25.4-6.96 9.91-18.26 19.63-31.29 19.12zm43.53 19.26c2.61-1.82 3.73-7.02 4.9-9.92 1.91 4.07 5.04 7.87 9.4 9.04-4.72 1.41-9.52 2.26-14.3.88zm26.4-9.07c-4.87 10.99-17.16 6.61-20.77-2.72-.17-.44-.83-.76-1.21-.31-.97 1.16-1.15 2.43-1.66 3.84-.56 1.55-1.29 3.02-2.07 4.47-2.99 5.59-6.93.23-8.32-2.06-4.04-6.62-3.77-16.11-3.46-23.52.34-8.18 1.12-16.12 3.04-24.11 1.76-7.3 4.11-14.47 5.79-21.79l.07-.1c.1-.14.12-.29.08-.43a.3.3 0 0 1 .04-.08c.64.45 1.33.8 2.04 1 .19.25.4.46.61.64-1.79 6.65-2.24 13.57-2.76 20.41-.53 7-.74 14.01.67 20.93.07.32.57.24.57-.08.05-13.62.7-27.18 2.39-40.71.06.03.13.04.19.06 1.03 7.52.32 15.32 1.14 22.9.75 6.89 1.75 14.12 4.53 20.54.13.3.65.15.62-.17-.64-7.4-2.54-14.7-3.41-22.09-.77-6.64.38-14.62-1.79-21.01.38-.02.76-.11 1.14-.25 3.27 11.27 2.1 24.38 8.11 34.77.24.42 1.01.26.97-.26-.49-6.2-3.13-12.54-4.27-18.72-.98-5.35-1.72-11.18-3.87-16.24.46-.27.92-.59 1.34-.98l.15.39c.1.34.23.66.39.98 2.47 6.17 5.66 12.1 8.17 18.26 2.84 6.96 6.4 13.65 9.58 20.47 3.9 8.36 5.8 17.22 1.94 25.94zm31.42-29.9c-7.57 13.84-26 4.5-34.56-3.2-.47-.96-.93-1.91-1.37-2.85-2.7-5.78-5.32-11.55-7.77-17.44-.12-.29-.27-.58-.39-.87 1.45 2.08 3.11 4.07 5.19 5.92 2.01 1.79 8.6 5.68 10.92 2.16 2.19-3.32-1.32-7.17-4.03-9.04-2.82-1.95-5.79-3.4-8.86-4.95-2.34-1.18-4.21-2.66-6.07-4.21 7.68 3.77 16.76 4.96 25.16 5.83 1.64.17 3.29.31 4.94.44 10.63 4.84 23.37 16.27 16.84 28.21zm22.18-36.82c-5.1 5.76-15.9 6.26-22.97 6.72-2.56.16-5.13.21-7.7.18h-.51c-5.4-.09-10.81-.53-16.14-1.1-8.39-.89-17.73-2.42-25.06-6.75.56-.8.99-1.64 1.19-2.4.07-.27.13-.55.16-.83 6.2.99 12.41 1.9 18.6 2.94 5.58.94 11.4 2 17.07 1.5.44-.04.6-.7.11-.8-11.69-2.31-23.79-3.41-35.63-4.75h-.08c0-.48-.03-.98-.1-1.47 5.96.17 11.96 0 17.93.16 7.14.19 14.66 1.25 21.76.38.49-.06.71-.83.13-.93-7.11-1.17-14.69-.88-21.89-1.06-3.57-.09-7.15-.07-10.73-.1-1.9-.02-4.04-.17-5.98.22 5.08-2.57 11.49-3.69 16.88-5.19 6.86-1.91 14.19-2.83 20.86-5.29.4-.15.38-.83-.11-.79-7.67.71-15.47 3.13-22.87 5.19-5.22 1.45-12.02 2.35-16.37 5.76-.42-1.27-1.11-2.42-2.07-3.22l.75-.87c1.09-.93 2.12-1.97 3.18-2.9 2.87-2.54 6.03-4.49 9.37-6.37 6.3-3.57 13.39-5.7 20.45-7.32 6.95-1.59 14.25-2.13 21.38-2.01 3.68.07 7.31.56 10.84 1.57 3.88 1.11 6.03 6.23 1.5 7.86-1.67.6-3.28 1.18-5.01 1.6-.95.23-.87 1.54 0 1.81 4.13 1.28 7.39 1.62 10.72 4.75 3.96 3.72 3.73 9.7.33 13.53z" class="cls-1"/><path d="M96.98 76.03c-.2 0-.4-.2-.6-.2h-.01s0 .29-.01.29c-.04.02-.09.18-.13.19-1.07.35-1.58 1.36-1.69 2.37-.16.92-.05 1.95.27 2.7.53 1.21 1.86 1.95 3.18 1.6 1.59-.42 2.12-2.46 2.04-3.88-.08-1.67-1.38-3.17-3.05-3.08z" class="cls-1"/></g></svg>