<svg xmlns="http://www.w3.org/2000/svg" id="Layer_1" data-name="Layer 1" viewBox="0 0 1053.77 344.91"><defs><style>.cls-2{stroke:#000;stroke-miterlimit:10;stroke-width:.1px}</style></defs><path stroke="#000" stroke-miterlimit="10" d="M326.38 253.39c1.21 1.3 1.81 3.15 1.81 5.55 0 2.84-.73 5.06-2.2 6.66-1.47 1.6-3.53 2.4-6.2 2.4h-3.03v1.6l.07 8.07h-1.92l.11-7.95-.11-18.23 6.29-.04c2.24 0 3.97.65 5.18 1.95zm-1.52 10.59c.91-1.23 1.37-2.85 1.37-4.88 0-3.77-1.75-5.72-5.25-5.86l-4.11.08-.07 12.78 4.11.08c1.73-.25 3.04-.98 3.96-2.21zm48.38 13.68h-1.92l.11-7.95-.04-4.38-7.17-.04-6.62.04-.04 4.26.07 8.07h-1.92l.11-7.95-.11-18.23h1.96l-.07 11.96 6.81.04 6.99-.04-.07-11.96h1.96l-.07 18.11.04 8.07zm45.2-23.08c1.7 2.23 2.55 5.4 2.55 9.52 0 4.42-.9 7.83-2.7 10.22-1.8 2.39-4.35 3.58-7.66 3.58s-5.58-1.14-7.29-3.42c-1.7-2.28-2.55-5.54-2.55-9.77s.89-7.64 2.68-9.98c1.79-2.33 4.33-3.5 7.64-3.5s5.62 1.11 7.32 3.34zm-13.63 1.41c-1.39 1.94-2.09 4.78-2.09 8.52s.68 6.68 2.03 8.64 3.35 2.95 5.99 2.95 4.74-1 6.16-2.99c1.42-1.99 2.13-4.9 2.13-8.73s-.68-6.53-2.05-8.44c-1.37-1.91-3.37-2.87-6.01-2.87s-4.77.97-6.16 2.91zm55.06-2.62-3.96-.12h-2.89l-.11 16.35.07 8.07h-1.92l.11-7.95-.11-16.47h-2.88l-4.03.12-.15-.25.18-1.64h15.68l.19.25-.19 1.64zm40.83 1.21c1.7 2.23 2.55 5.4 2.55 9.52 0 4.42-.9 7.83-2.7 10.22-1.8 2.39-4.35 3.58-7.66 3.58s-5.58-1.14-7.29-3.42c-1.7-2.28-2.55-5.54-2.55-9.77s.89-7.64 2.68-9.98c1.79-2.33 4.33-3.5 7.64-3.5s5.62 1.11 7.32 3.34zm-13.63 1.41c-1.39 1.94-2.09 4.78-2.09 8.52s.68 6.68 2.03 8.64 3.35 2.95 5.99 2.95 4.74-1 6.16-2.99c1.42-1.99 2.13-4.9 2.13-8.73s-.68-6.53-2.05-8.44c-1.37-1.91-3.37-2.87-6.01-2.87s-4.77.97-6.16 2.91zm59.57-2.66-.44 1.97-.3.04c-2.22-1.47-4.32-2.21-6.29-2.21-2.96 0-5.21.99-6.75 2.97-1.54 1.98-2.31 4.91-2.31 8.79 0 7.43 2.74 11.14 8.21 11.14 1.63 0 3.58-.35 5.84-1.06l.04-3.81-.04-3.48 1.85-.16-.04 3.4.07 5.53c-3.01.96-5.6 1.45-7.77 1.47-3.33 0-5.85-1.12-7.56-3.36-1.71-2.24-2.57-5.43-2.57-9.59 0-4.4.97-7.78 2.92-10.14 1.95-2.36 4.72-3.54 8.32-3.54 2.32 0 4.59.68 6.81 2.05zm43.09 23.84v.29c-.39.22-.95.4-1.66.53l-.3-.16c-2.39-3.8-4.41-7.26-6.07-10.41h-4.66v2.17l.07 8.07h-1.92l.11-7.95-.11-18.23 6.29-.04c2.24 0 3.97.63 5.18 1.88 1.21 1.26 1.81 3.07 1.81 5.45 0 1.91-.44 3.57-1.33 4.98-.89 1.41-2.16 2.47-3.81 3.17 1.85 3.3 3.98 6.72 6.4 10.24zm-7.84-11.55c3.08-.93 4.62-3.17 4.62-6.72s-1.75-5.52-5.25-5.65l-4.11.08-.07 12.21 4.81.08zm49.71 12.04-.52-2.21-1.78-5.65-5.62-.08-5.07.08-1.92 5.57-.55 2.29h-2l9.03-26.18h2.18l8.25 26.18h-2zm-7.29-23.72h-.22l-4.81 13.97 4.62.04 4.81-.04-4.4-13.97zm47.6-.55c1.21 1.3 1.81 3.15 1.81 5.55 0 2.84-.73 5.06-2.2 6.66-1.47 1.6-3.53 2.4-6.2 2.4h-3.03v1.6l.07 8.07h-1.92l.11-7.95-.11-18.23 6.29-.04c2.24 0 3.97.65 5.18 1.95zm-1.52 10.59c.91-1.23 1.37-2.85 1.37-4.88 0-3.77-1.75-5.72-5.25-5.86l-4.11.08-.07 12.78 4.11.08c1.73-.25 3.04-.98 3.96-2.21zm48.39 13.68h-1.92l.11-7.95-.04-4.38-7.17-.04-6.62.04-.04 4.26.07 8.07h-1.92l.11-7.95-.11-18.23h1.96l-.07 11.96 6.81.04 6.99-.04-.07-11.96h1.96l-.07 18.11.04 8.07zm36.06 0h-1.92l.11-7.82-.04-1.84-7.51-16.51h2.14l.44 1.27 5.77 12.7h.22l6.29-12.66.48-1.31h2.11l-8.14 16.55-.04 1.8.07 7.82z"/><path d="m113.02 201.59.24-.84c10.59-28.77 36.96-63.44 37.92-95.7 0-17.57-17.21-21.19-30.58-22.15-4.09-.24-13.72-.24-15.65-.48-1.44-.24-2.05-1.32-2.05-2.41 0-1.2.6-2.17 2.05-2.53 27.45-5.78 66.33-8.31 98.59-8.31 22.15 0 41.29 1.2 51.64 3.25 1.32.36 1.93 1.32 1.93 2.41 0 1.32-.84 2.53-2.29 2.53l-.6-.12c-9.99-2.05-28.41-3.13-49.84-3.13-24.44 0-51.28 1.32-76.56 4.57 13.84 1.93 28.41 7.82 28.41 26.24-.24 6.98-1.32 12.4-4.33 21.79 12.88-22.87 24.32-42.13 26.24-44.06.48-.6 1.08-.84 1.69-.84 1.32 0 2.53 1.2 2.53 2.53 0 .6-.24 1.2-.72 1.69-2.17 2.29-19.74 32.38-36.23 62.48-8.79 15.89-21.43 37.56-27.57 53.93-.36 1.08-1.32 1.56-2.17 1.56-1.56-.24-2.65-.84-2.65-2.41z" class="cls-2"/><path d="M161.53 156.32c0-6.86 5.9-15.29 11.56-19.98 4.21-3.49 8.19-4.94 11.44-4.94 4.21 0 6.98 2.41 6.98 5.66 0 2.89-2.17 6.5-7.46 9.51-3.61 2.05-7.94 3.37-11.32 3.37-1.56 0-2.89-.24-3.97-.84-1.44 2.41-2.41 4.94-2.41 6.98 0 2.77 1.81 3.85 7.22 3.97 16.13 0 41.65-11.44 57.18-19.26.36-.24.72-.24 1.08-.24 1.32 0 2.53 1.32 2.53 2.65 0 .72-.48 1.56-1.44 2.05-16.25 8.19-42.37 19.74-59.59 19.74-8.55-.12-11.8-3.37-11.8-8.67zm19.98-13.96c3.49-1.93 4.94-3.85 4.94-4.94 0-.84-.72-1.32-1.93-1.32-2.89 0-8.55 3.25-13 8.91l1.08.12c2.53 0 6.86-1.56 8.91-2.77z" class="cls-2"/><path d="M222.07 166.8c0-6.14 11.44-10.59 26-14.81l.72-.24c-6.74-2.53-17.58-2.89-18.78-7.58l-.24-1.08c.48-4.69 6.74-7.22 15.77-9.75 4.69-1.32 9.51-2.17 12.64-2.17 2.65.24 3.73.24 5.18 1.69.84.84 1.44 1.81 1.44 2.89-.36 3.61-2.89 6.62-6.98 8.79-.36.24-.84.24-1.2.24-1.32 0-2.41-.96-2.41-2.29 0-.96.48-1.81 1.32-2.29 2.17-1.2 3.25-2.41 4.21-3.97l-1.44-.24c-4.57 0-14.45 2.53-20.34 5.18-1.56.72-2.65 1.44-3.01 1.81 1.81 1.2 16.61 2.53 20.1 7.22 21.79-5.66 47.07-9.63 47.67-9.63 1.44 0 2.53 1.08 2.53 2.41 0 1.44-1.08 2.53-2.53 2.53-.6 0-24.92 3.97-46.22 9.39-1.08 7.82-17.45 17.45-27.45 17.45-4.82 0-6.62-2.29-6.98-5.54zm28.41-10.35c-7.46 2.53-13.24 3.97-18.3 6.38-3.25 1.69-5.18 3.01-5.18 3.85q0 .36.24.36c.48.24 1.08.36 1.81.36 5.66 0 17.57-5.54 21.43-10.95z" class="cls-2"/><path d="M292.97 166.8c0-6.14 11.44-10.59 26-14.81l.72-.24c-6.74-2.53-17.58-2.89-18.78-7.58l-.24-1.08c.48-4.69 6.74-7.22 15.77-9.75 4.69-1.32 9.51-2.17 12.64-2.17 2.65.24 3.73.24 5.18 1.69.84.84 1.44 1.81 1.44 2.89-.36 3.61-2.89 6.62-6.98 8.79-.36.24-.84.24-1.2.24-1.32 0-2.41-.96-2.41-2.29 0-.96.48-1.81 1.32-2.29 2.17-1.2 3.25-2.41 4.21-3.97l-1.44-.24c-4.57 0-14.45 2.53-20.34 5.18-1.56.72-2.65 1.44-3.01 1.81 1.81 1.2 16.61 2.53 20.1 7.22 21.79-5.66 47.07-9.63 47.67-9.63 1.45 0 2.53 1.08 2.53 2.41 0 1.44-1.08 2.53-2.53 2.53-.6 0-24.92 3.97-46.22 9.39-1.08 7.82-17.45 17.45-27.45 17.45-4.82 0-6.62-2.29-6.98-5.54zm28.41-10.35c-7.46 2.53-13.24 3.97-18.3 6.38-3.25 1.69-5.18 3.01-5.18 3.85q0 .36.24.36c.48.24 1.08.36 1.81.36 5.66 0 17.57-5.54 21.43-10.95z" class="cls-2"/><path d="M388.07 156.69c0-1.56.24-3.13.6-4.69-4.21 3.85-12.88 11.32-19.5 11.32-3.85 0-6.38-2.41-6.38-6.14 0-8.43 11.56-22.03 23.11-22.03 3.13 0 7.1 1.32 9.15 3.37.48-.24.96-.48 1.44-.48 1.32 0 2.53 1.08 2.53 2.53 0 .48-.12.96-.48 1.44-1.2 1.81-5.66 10.23-5.66 14.93 0 2.05.72 3.01 2.53 3.01 7.22 0 32.26-14.69 39.72-19.02.48-.24.84-.36 1.32-.36 1.44 0 2.41 1.32 2.41 2.65 0 .72-.36 1.44-1.2 1.93-9.03 5.18-33.46 19.74-42.25 19.74-5.54-.12-7.34-3.61-7.34-8.19zm3.61-14.57c-1.2-1.2-3.73-1.93-5.9-1.93-9.75.48-17.82 11.8-17.82 16.85 0 1.32.6 1.93 1.56 1.93 4.94 0 20.1-14.69 22.15-16.85zm233.89 50.32c0-19.62 24.68-74.15 58.98-115.44-33.71 24.32-76.56 65.73-98.35 96.42-.6.84-1.32 1.2-2.05 1.2-1.32 0-2.41-1.2-2.41-2.53 0-.36 0-.72.24-1.08 16.85-32.26 29.37-56.7 52.24-92.09-31.3 31.3-87.63 113.52-130.01 113.52-13.84 0-20.83-7.82-20.83-19.02 0-4.69 1.2-9.87 3.01-14.69 8.55-22.15 32.98-46.59 57.42-46.59 3.73 0 7.58.6 11.32 1.93 1.2.36 1.69 1.32 1.69 2.17-.24 1.56-.96 2.65-2.41 2.65l-.84-.12c-3.25-1.2-6.5-1.69-9.87-1.69-22.63 0-45.74 24.32-53.09 44.42-1.32 3.85-2.41 7.94-2.41 11.8 0 8.43 5.54 14.08 16.25 14.08 45.98 0 111.59-107.26 139.4-122.66.36-.24.72-.36 1.2-.36 1.32 0 2.41 1.2 2.41 2.53 0 .48-.12.84-.36 1.32-17.82 27.08-33.34 52.97-48.39 81.62 26.24-30.58 66.45-67.53 99.07-87.75.36-.24.84-.36 1.2-.36 1.44 0 2.65 1.08 2.65 2.41 0 .6-.24 1.2-.84 1.81-42.37 44.9-70.54 107.86-70.54 125.67 0 2.41.36 2.89.72 4.45 0 1.32-1.08 2.41-2.41 2.41-2.29 0-3.01-2.53-3.01-6.02zm32.86-34.07c.24-6.02 5.06-13.84 9.63-17.94.72-3.73 4.33-5.66 7.95-5.66 4.09 0 8.31 2.53 8.31 7.94 0 1.32-.24 2.77-.72 4.33 2.05.24 4.21.48 6.62.48 9.63 0 21.79-2.41 35.39-6.86l.84-.12c1.56 0 2.17 1.08 2.41 2.53 0 .96-.6 1.93-1.69 2.29-13.84 4.45-26.72 7.1-37.08 7.1-3.13 0-5.9-.24-8.55-.72-3.25 5.78-10.35 13.24-16.25 13.24-4.45-.24-6.86-2.65-6.86-6.62zm18.18-7.94c-2.89-.96-5.42-2.53-7.1-4.57-2.29 2.65-6.14 8.31-6.26 12.4 0 1.08.48 1.81 1.81 1.81h.24c3.61-.12 8.79-5.66 11.32-9.63zm2.77-7.58c0-2.41-1.56-3.25-3.13-3.25-1.69 0-3.25.84-3.37 2.05 0 1.81 3.61 3.61 5.9 4.33.48-1.2.6-2.29.6-3.13z" class="cls-2"/><path d="M713.92 162.7c0-.36 0-.72.24-1.08 2.77-5.78 10.23-20.1 13.84-26 .6-.84 1.32-1.2 2.05-1.2 1.32 0 2.53 1.2 2.53 2.41 0 .48-.12.84-.36 1.32-1.32 2.29-3.13 5.42-4.93 8.91 6.38-5.9 14.08-11.44 21.07-15.29.36-.24.84-.24 1.2-.24 1.44 0 2.41 1.2 2.41 2.53 0 .36-.12.84-.36 1.32-1.32 2.05-2.41 4.57-2.41 6.62 0 3.85 4.81 5.3 8.43 5.66l3.49.12c11.32 0 24.68-3.01 33.46-6.98.36-.12.72-.24 1.08-.24 1.32 0 2.41 1.32 2.41 2.53 0 .84-.36 1.69-1.44 2.17-9.27 4.33-23.35 7.46-35.27 7.46l-4.09-.12c-6.62-.48-13-3.85-13-10.35 0-.72 0-1.44.24-2.29-9.15 5.9-20.46 15.65-26 24.08-.6.72-1.2 1.08-1.93 1.08-1.32 0-2.65-1.08-2.65-2.41z" class="cls-2"/><path d="m757.5 218.8.24-2.17c2.05-9.51 15.05-24.68 17.82-27.81 9.39-10.35 19.5-18.42 29.97-24.92l6.02-11.56c-5.78 5.3-14.57 12.4-20.83 12.4-4.21 0-6.38-2.29-6.38-5.78 0-8.55 14.08-24.68 20.7-27.08 1.45-.48 2.77-.72 4.09-.72 4.82 0 7.83 3.37 9.87 6.26 1.32-1.69 1.44-2.65 3.13-2.65 1.2 0 2.53 1.08 2.53 2.41 0 .48-.12.84-.36 1.32-1.81 3.25-7.7 14.81-10.83 20.71 15.17-8.19 31.18-13.72 47.07-18.54l.84-.12c1.56 0 2.17 1.08 2.41 2.41 0 1.08-.6 2.05-1.81 2.41-18.42 5.54-36.35 11.92-52.72 22.03-15.17 28.41-33.22 58.98-45.02 58.98-3.97 0-6.74-3.13-6.74-7.58zm9.15 2.29c8.31-2.89 22.39-26.36 34.07-48.03-7.46 5.3-14.69 11.56-21.55 19.02-2.05 2.29-16.73 20.1-16.73 26.72 0 1.69.84 2.65 2.41 2.65.48 0 1.08-.12 1.81-.36zm48.99-79.81c-1.32-2.05-3.49-5.06-6.74-5.06-.72 0-1.44.12-2.17.36-4.94 1.81-16.61 14.44-17.58 22.27 0 .84.36.96 1.57.96h.12c6.62 0 19.98-13.36 24.8-18.54z" class="cls-2"/><path d="M875.7 156.69c0-1.56.24-3.13.6-4.69-4.21 3.85-12.88 11.32-19.5 11.32-3.85 0-6.38-2.41-6.38-6.14 0-8.43 11.56-22.03 23.11-22.03 3.13 0 7.1 1.32 9.15 3.37.48-.24.96-.48 1.44-.48 1.32 0 2.53 1.08 2.53 2.53 0 .48-.12.96-.48 1.44-1.2 1.81-5.66 10.23-5.66 14.93 0 2.05.72 3.01 2.53 3.01 7.22 0 32.26-14.69 39.72-19.02.48-.24.84-.36 1.32-.36 1.44 0 2.41 1.32 2.41 2.65 0 .72-.36 1.44-1.2 1.93-9.03 5.18-33.46 19.74-42.25 19.74-5.54-.12-7.34-3.61-7.34-8.19zm3.61-14.57c-1.2-1.2-3.73-1.93-5.9-1.93-9.75.48-17.82 11.8-17.82 16.85 0 1.32.6 1.93 1.56 1.93 4.94 0 20.1-14.69 22.15-16.85z" class="cls-2"/><path d="M945.4 159.69c0-5.78 6.02-14.69 7.22-18.66-9.27 1.93-28.17 23.96-36.59 23.96-2.65-.24-3.73-1.32-3.73-3.73l.24-1.81c1.32-5.54 8.91-16.73 11.08-20.1.48-.84 1.2-1.2 1.93-1.2 1.44 0 2.65 1.08 2.65 2.41 0 .48-.12.84-.36 1.32-2.05 3.25-8.55 12.4-10.23 17.94 6.98-3.13 25.88-22.63 34.91-23.71l1.2-.12c2.41 0 3.85 1.44 3.97 3.85 0 4.21-7.22 15.65-7.22 19.14 0 1.08.48 1.08 1.32 1.08 8.31 0 40.93-16.25 46.95-19.14.48-.24.84-.36 1.2-.36 1.32 0 2.41 1.2 2.41 2.65 0 .72-.48 1.56-1.44 2.05-9.15 4.69-39.48 19.74-49.35 19.74-4.45-.24-6.14-2.05-6.14-5.3z" class="cls-2"/></svg>