<svg xmlns="http://www.w3.org/2000/svg" id="Layer_2" data-name="Layer 2" viewBox="0 0 224.67 31.51"><defs><style>.cls-1{fill:#bba085}</style></defs><g id="OBJECTS"><path d="M112.06 8.99c-1.29-.69-3.15-.54-3.91.88-.89 1.66.06 3.91 1.2 5.18 1.45 1.6 3.64 2.26 5.72 2.52s4.39.19 6.55-.1c9.06-1.23 17.07-6.15 25.97-8.04 4.94-1.05 9.98-.86 14.87.36 2.49.62 4.91 1.47 7.26 2.51s4.51 2.25 6.8 3.3 4.53 1.78 6.98 2.1c2.61.34 5.27.24 7.89 0 2.85-.27 5.67-.86 8.44-1.56 3.46-.87 6.88-1.97 10.16-3.38 2.8-1.2 5.9-2.67 7.96-4.99.42-.47.76-.98 1.12-1.49.25-.35-.33-.68-.57-.34-.71 1.01-1.85 1.85-2.84 2.56-1.23.89-2.55 1.64-3.9 2.31-3.04 1.52-6.27 2.66-9.53 3.6-2.91.84-5.86 1.55-8.85 2.01-4.05.63-8.4.85-12.39-.21-2.35-.62-4.54-1.7-6.7-2.78s-4.15-2.05-6.31-2.89c-4.44-1.71-9.19-2.79-13.96-2.77-8.87.04-16.83 4.31-25.08 7-4.04 1.32-8.25 2.26-12.53 2-2.15-.13-4.54-.55-6.16-2.08-.74-.7-1.27-1.6-1.48-2.59-.16-.76-.19-1.72.42-2.28.74-.69 1.72-.78 2.62-.37.31.14.58-.3.27-.46z" class="cls-1"/><path d="M152.36 8.71c3.17-1.36 6.29-2.87 9.62-3.82s6.84-1.21 10.36-.67c.4.06.58-.51.17-.62-3.39-.92-7.15-.38-10.48.58s-6.71 2.52-9.87 4.19c-.23.12-.03.44.2.35z" class="cls-1"/><path d="M172.63 4.13c.27-.36.62-.66.99-.91.19-.13.39-.25.6-.34s.43-.22.64-.33c.18-.09.09-.36-.1-.37-.27 0-.53.03-.78.14s-.5.22-.72.37c-.45.3-.84.7-1.15 1.14-.09.13-.02.33.11.41.15.09.31.02.41-.11z" class="cls-1"/><path d="M172.17 3.91c-.14.5-.14 1.02-.01 1.52s.41 1.06.91 1.25c.19.07.39-.15.33-.33-.07-.21-.19-.39-.29-.59-.03-.05-.05-.1-.08-.15a.488.488 0 0 1-.03-.07c-.03-.06.02.05 0-.01a2.817 2.817 0 0 1-.18-.62v-.08c0-.06 0-.11-.01-.17v-.39c.01-.06.02-.12.04-.18.05-.18-.06-.38-.25-.43s-.38.06-.43.25z" class="cls-1"/><path d="M172.52 4.2c.31.23.64.41 1 .55.17.07.33.11.51.14.11.02.22.04.33.04.09 0 .19-.01.28-.02.11-.01.21-.08.23-.2a.228.228 0 0 0-.17-.25c-.17-.05-.34-.11-.5-.16s-.33-.1-.49-.16c-.04-.01-.07-.03-.11-.04-.04-.01-.04-.02-.01 0-.02 0-.04-.02-.06-.03l-.24-.12c-.16-.08-.3-.18-.45-.29-.14-.1-.36-.03-.44.11-.09.17-.03.33.11.44z" class="cls-1"/><path d="M172.93 4.15c.35-.15.72-.25 1.1-.32.18-.03.34-.05.54-.07.22-.02.4-.07.62-.13.25-.06.23-.41 0-.49-.22-.07-.43-.11-.66-.1s-.46.05-.68.1c-.43.09-.84.24-1.24.43-.16.08-.2.3-.12.44.1.17.28.19.44.12z" class="cls-1"/><path d="M172.49 4.27a4.815 4.815 0 0 0 .91 1.54c.13.15.28.27.43.39.12.1.3.13.42 0 .11-.12.12-.3 0-.42-.13-.13-.25-.26-.37-.4l-.18-.21c-.01-.02-.03-.03 0 0-.02-.02-.03-.04-.05-.06l-.08-.11c-.1-.14-.19-.29-.27-.45l-.12-.24c-.01-.02-.02-.05-.03-.07 0-.02-.02-.04 0 0-.02-.05-.04-.09-.05-.14-.06-.15-.22-.28-.39-.22-.15.05-.28.22-.22.39zm1.66-1.42c.79-.02 1.57.17 2.26.55s1.21.95 1.71 1.55c.12.14.3-.04.24-.18-.34-.76-1.06-1.34-1.78-1.7s-1.58-.56-2.42-.51c-.19.01-.19.3 0 .3z" class="cls-1"/><path d="M173.12 6.3c.92.51 2.01.61 3.02.37.52-.12 1-.34 1.43-.65.16-.11.41-.27.45-.48.03-.15-.1-.34-.23-.41l-.1.17c.4.19.74-.21.54-.59-.08-.16-.32-.02-.24.14s-.07.3-.22.26c-.13-.03-.18.16-.05.19.17.04-.13.29-.15.3-.08.06-.17.11-.26.17-.18.11-.38.21-.57.29-.36.15-.71.28-1.1.35-.82.16-1.67.07-2.42-.3-.11-.06-.21.11-.1.17zm-22.94 2.36c.86 2.17 2.35 4.08 3.87 5.82.83.94 1.71 1.84 2.66 2.66.79.68 1.64 1.34 2.62 1.74.35.14.54-.4.25-.58-3.76-2.35-6.9-5.91-9.03-9.78-.11-.19-.45-.06-.37.15z" class="cls-1"/><path d="M159.12 18.49c-.03.52.02 1.06.18 1.55s.41.99.84 1.33c.18.14.4-.03.31-.24-.18-.43-.4-.84-.53-1.28s-.21-.89-.19-1.36c0-.16-.14-.3-.3-.3-.17 0-.29.14-.3.3z" class="cls-1"/><path d="M159.85 18.73c.05-.1.1-.19.15-.28.03-.05.06-.09.09-.13.02-.03.04-.05 0 0 .02-.02.04-.05.06-.07.07-.08.14-.15.21-.22.04-.04.08-.07.12-.11.05-.05-.03.02 0 0 .02-.02.05-.03.07-.05.08-.06.17-.11.26-.16.05-.03.09-.05.14-.08.02-.01.04-.02.07-.03.01 0 .1-.04.02 0 .07-.03.13-.05.2-.08.03-.01.08-.03.02-.01.03-.01.05-.02.08-.03.12-.04.23-.09.33-.15.2-.12.16-.42-.06-.49-.24-.08-.54-.03-.78.06s-.46.2-.67.36c-.4.31-.74.7-.94 1.16-.07.17-.06.39.13.48.16.08.4.05.48-.13z" class="cls-1"/><path d="M159.63 19.04c.18 0 .31.02.46.05a4.68 4.68 0 0 1 .99.31c.02 0 .02 0 0 0 .02 0 .04.02.06.03.05.02.11.05.16.07.08.03.17.06.25.09.09.04.21-.03.26-.11.05-.09.04-.21-.04-.28-.29-.29-.62-.48-1.01-.61s-.76-.18-1.15-.19c-.17 0-.33.15-.32.32 0 .18.14.31.32.32z" class="cls-1"/><path d="M159.38 18.98c.19.4.43.76.7 1.11.13.16.27.31.41.45.09.08.2.17.3.23s.22.1.33.14c.2.08.41-.2.28-.37s-.25-.35-.41-.5c-.14-.14-.28-.28-.41-.43l-.19-.22c.04.05 0 0-.01-.02-.02-.02-.03-.04-.05-.06-.03-.04-.06-.08-.09-.13-.12-.17-.22-.34-.32-.52-.08-.15-.3-.21-.44-.12-.16.1-.19.28-.12.44z" class="cls-1"/><path d="M160.05 18.86c.59-.35 1.28-.54 1.95-.61.16-.02.3-.12.3-.3 0-.16-.14-.29-.3-.3-.8 0-1.59.24-2.27.66-.15.09-.2.28-.11.43s.28.2.43.11zm-.14 1.84c.63.57 1.4.96 2.23 1.13s1.72.16 2.47-.22c.16-.08.04-.31-.12-.28-.76.15-1.51.27-2.29.13s-1.49-.47-2.08-.97c-.14-.12-.35.08-.21.21z" class="cls-1"/><path d="M161.42 17.33c.8.18 1.51.63 2.05 1.25.27.31.47.65.67 1 .1.18.19.37.26.57.03.09.06.17.09.26 0 .03.1.45-.05.38l-.1.17c.17.08.18.29 0 .36-.17.07-.02.31.14.24.38-.16.35-.7-.06-.79-.13-.03-.18.16-.05.19.15.04.39-.04.45-.19.1-.22-.02-.54-.09-.75-.16-.49-.39-.94-.72-1.34-.63-.79-1.52-1.38-2.53-1.55-.12-.02-.18.16-.05.19zm-29.29-3.2c-2.07 2.55-4.36 4.94-6.82 7.11s-5.26 4.09-7.97 6.05c-.2.15-.03.46.2.34 2.94-1.51 5.59-3.6 8.06-5.79s4.82-4.69 6.89-7.34c.2-.26-.15-.63-.37-.37z" class="cls-1"/><path d="M130.12 16.3c-3.65 1.1-6.95 3.05-9.83 5.54a30.426 30.426 0 0 0-3.99 4.19c-1.12 1.43-2.34 3.02-2.89 4.77-.07.23.24.32.37.15 1.11-1.48 1.98-3.12 3.15-4.57s2.42-2.75 3.79-3.96c2.77-2.44 6.02-4.44 9.53-5.61.31-.11.18-.6-.14-.5z" class="cls-1"/><path d="M130.47 16.43c-.32.31-.46.76-.65 1.15s-.38.77-.58 1.15c-.42.82-.89 1.63-1.4 2.39-1.14 1.69-2.56 3.05-4.22 4.22-1.57 1.1-3.18 2.18-4.84 3.14-.83.48-1.67.92-2.55 1.3-.48.21-.96.4-1.46.56-.43.14-.92.22-1.3.47-.19.13-.1.38.11.4.88.1 2-.47 2.79-.8.91-.38 1.79-.82 2.65-1.3 1.8-1.01 3.55-2.16 5.23-3.37s2.96-2.48 4.05-4.12a23.7 23.7 0 0 0 1.48-2.59c.35-.71.97-1.68.99-2.49 0-.15-.19-.23-.3-.12zM125.14 3.9c1.72 2.11 3.81 3.83 6.17 5.19 1.14.66 2.34 1.21 3.57 1.67.62.23 1.25.43 1.89.6s1.35.4 2.03.4c.33 0 .37-.45.08-.56-.62-.22-1.3-.27-1.94-.43s-1.22-.32-1.81-.53c-1.27-.43-2.49-.97-3.66-1.62-2.3-1.27-4.35-2.99-6.09-4.96-.14-.16-.37.07-.24.24z" class="cls-1"/><path d="M137.7 11.44c-3.53-.09-7.41-1.21-10.32-3.22-1.45-1-2.59-2.39-3.73-3.72l-1.82-2.12c-.55-.64-1.13-1.53-1.87-1.95-.11-.06-.27.04-.22.17.31.82 1.11 1.54 1.67 2.2.63.74 1.26 1.48 1.88 2.22 1.19 1.41 2.4 2.83 3.96 3.85s3.29 1.73 5.03 2.27c.87.27 1.76.5 2.67.62.97.13 1.83.08 2.79-.06.16-.02.11-.26-.04-.27z" class="cls-1"/><path d="M119.86.65c3.92.98 7.88 1.93 11.42 3.95 1.6.92 3.09 2.04 4.34 3.4 1.1 1.19 2.11 2.8 3.73 3.33.17.06.33-.2.18-.31-1.44-1.15-2.48-2.59-3.77-3.89s-2.75-2.34-4.33-3.21c-3.53-1.94-7.55-2.9-11.5-3.56-.19-.03-.27.24-.08.29zm29.88 7.65c-3.42 1.16-6.45 3.48-8.68 6.31s-3.57 6.23-6.32 8.66c-.13.11.03.3.17.23 3.06-1.68 4.33-5.32 6.32-8 2.24-3.02 5.29-5.2 8.68-6.78.23-.11.07-.49-.17-.41z" class="cls-1"/><path d="M146.41 9.85c-3.77.98-6.96 3.4-9.47 6.32-1.41 1.64-2.64 3.42-3.79 5.24s-2.08 3.75-3.56 5.26c-.18.18.05.48.27.35 1.6-.95 2.43-2.97 3.38-4.5 1.17-1.88 2.39-3.73 3.81-5.44 2.51-3.03 5.66-5.65 9.5-6.72.33-.09.19-.59-.14-.51z" class="cls-1"/><path d="M129.81 27.16c6.99-.79 13.17-5.35 16.26-11.63.88-1.79 1.72-3.84 1.61-5.87-.02-.39-.62-.39-.61 0 .07 2.23-1.06 4.59-2.13 6.5a21.133 21.133 0 0 1-3.77 4.86c-3.15 3.02-7.15 4.9-11.42 5.68-.26.05-.21.5.06.47zM161.2 9.2c1.03.43 1.65 1.39 2.19 2.32s1.03 1.89 1.5 2.86c.92 1.88 1.8 3.8 2.94 5.56 2.03 3.13 5.24 5.97 9.2 5.69.42-.03.43-.67 0-.66-4.29.1-7.38-3.2-9.38-6.63-1.06-1.82-1.92-3.75-2.93-5.6-.82-1.5-1.71-3.33-3.4-3.99-.29-.11-.4.34-.13.46z" class="cls-1"/><path d="M162.71 9.61c3.06 1.9 6.2 3.73 8.79 6.27 1.31 1.29 2.48 2.71 3.37 4.32.48.86.88 1.76 1.19 2.7s.42 1.84.72 2.73c.11.32.61.28.61-.08 0-.94-.35-1.95-.65-2.84s-.7-1.82-1.16-2.68c-.88-1.64-2.04-3.13-3.39-4.42-2.71-2.6-6-4.56-9.28-6.36-.24-.13-.45.22-.21.37z" class="cls-1"/><path d="M163.09 9.89c1.88 1.93 3.62 4.02 5.31 6.11.87 1.07 1.71 2.16 2.53 3.27s1.5 2.16 2.36 3.16c.17.19.44-.05.34-.26-.61-1.22-1.45-2.32-2.26-3.42s-1.6-2.1-2.45-3.11c-1.75-2.11-3.67-4.04-5.64-5.94-.13-.12-.31.07-.19.19zm3.75.65c4.03.97 8.08-.2 12.02-1.04 2.06-.44 4.14-.76 6.26-.72 1.07.02 2.13.13 3.18.3.96.16 1.97.57 2.95.55.22 0 .27-.28.11-.4-.76-.53-1.85-.68-2.75-.84-.96-.17-1.93-.27-2.9-.31-2.05-.08-4.08.17-6.08.58-4.18.85-8.37 2.24-12.68 1.51-.23-.04-.33.3-.1.35z" class="cls-1"/><path d="M168.31 10.88c3.47 1.98 7.43 3.18 11.45 3.06 2.04-.06 4.03-.5 5.94-1.23.95-.37 1.88-.79 2.79-1.25s1.93-.94 2.8-1.53c.29-.2.12-.78-.26-.62-1.81.76-3.48 1.83-5.32 2.57s-3.82 1.23-5.83 1.33c-3.95.19-7.84-.97-11.39-2.63-.19-.09-.36.18-.17.29z" class="cls-1"/><path d="M167.93 11.07c3.35 1.27 7.06 1.51 10.61 1.21s7.2-1.03 10.42-2.48c.25-.11.07-.49-.18-.42-1.69.43-3.36.97-5.06 1.37s-3.51.72-5.3.89c-3.52.33-6.98 0-10.39-.97-.26-.07-.35.3-.11.39zm27.57 5.65c4.92.31 10.03 0 14.66-1.83 3.87-1.53 7.39-3.94 10.22-6.99 1.59-1.71 3.09-3.65 4.03-5.81.13-.3-.27-.55-.45-.26-1.1 1.75-2.18 3.48-3.55 5.03s-2.88 2.95-4.54 4.15a27.432 27.432 0 0 1-11.51 4.83c-2.93.49-5.9.51-8.86.5-.24 0-.23.35 0 .37z" class="cls-1"/><path d="M196.96 16.31c3.65-1.54 6.85-3.86 10.17-5.98s7.14-4.06 10.92-5.66c1.08-.46 2.17-.89 3.27-1.32s2.18-.74 3.18-1.26c.32-.17.09-.64-.24-.56-1 .23-1.97.67-2.92 1.04s-1.93.76-2.89 1.16c-1.87.78-3.72 1.61-5.53 2.52-3.62 1.81-6.94 4.05-10.29 6.31-1.87 1.26-3.79 2.45-5.83 3.42-.18.09-.05.41.14.33zm-84.08-6.86c.92-.41 1.93-.31 2.67.41.57.56.53 1.52.38 2.24-.47 2.21-2.36 3.57-4.42 4.17-4.08 1.18-8.71.46-12.73-.6-8.3-2.2-15.96-6.61-24.57-7.67-4.7-.58-9.48.01-14.01 1.35-2.32.69-4.57 1.57-6.76 2.59s-4.14 2.11-6.27 3.04c-2.32 1.02-4.74 1.67-7.27 1.86-2.29.17-4.61.06-6.89-.19-2.76-.29-5.5-.9-8.18-1.59-3.3-.85-6.56-1.88-9.69-3.23-2.76-1.19-5.41-2.63-7.69-4.62-.44-.38-.91-.8-1.25-1.28-.24-.35-.82-.02-.57.34.79 1.13 1.6 2.08 2.7 2.92 1.28.98 2.66 1.79 4.1 2.5 3.16 1.59 6.53 2.77 9.92 3.75 3.04.88 6.14 1.6 9.28 2.03 4.35.61 8.97.76 13.21-.58 2.36-.74 4.57-1.88 6.77-2.99 2.31-1.16 4.66-2.24 7.11-3.08 4.81-1.65 9.92-2.49 15-1.95 9.15.97 17.23 5.94 26.11 7.99 2.15.5 4.35.82 6.56.86s4.44-.11 6.44-.96c1.86-.79 3.49-2.31 3.91-4.35.32-1.52-.04-3.14-1.63-3.71-.85-.3-1.71-.14-2.49.27-.31.17-.04.6.27.46z" class="cls-1"/><path d="M72.51 8.36c-3.16-1.67-6.43-3.2-9.87-4.19s-7.09-1.5-10.48-.58c-.41.11-.23.68.17.62 3.52-.54 6.93-.31 10.36.67s6.44 2.46 9.62 3.82c.23.1.44-.22.2-.35z" class="cls-1"/><path d="M52.55 3.82c-.31-.44-.7-.84-1.15-1.14-.22-.15-.46-.26-.71-.36s-.52-.15-.79-.14c-.19 0-.27.27-.1.37.21.11.41.22.62.32s.42.22.62.35c.37.25.71.55.99.91.1.13.26.2.41.11.13-.08.2-.28.11-.41z" class="cls-1"/><path d="M51.82 4.1c.01.05.03.11.04.16 0 0 .01.07 0 .04s0 .04 0 .04c.01.1.01.21.01.31v.25c-.02.11-.04.22-.07.32-.03.1-.07.2-.1.3 0 .02-.02.05 0 .01 0 .02-.02.04-.03.07-.02.05-.05.1-.08.15-.11.19-.23.39-.3.6-.06.18.14.4.33.33.5-.2.78-.76.91-1.25s.13-1.03-.01-1.52c-.05-.18-.25-.3-.43-.25s-.29.25-.25.43z" class="cls-1"/><path d="M51.82 3.64c-.14.11-.29.2-.45.29l-.24.12c-.02 0-.04.02-.06.03.03-.01.02 0-.01 0-.04.01-.07.03-.11.04-.16.06-.32.11-.49.16s-.34.11-.5.16c-.11.03-.18.14-.17.25.02.12.11.19.23.2a2.331 2.331 0 0 0 1.12-.15c.36-.14.7-.32 1-.55.13-.1.22-.28.11-.44-.09-.13-.29-.22-.44-.11z" class="cls-1"/><path d="M52.07 3.59c-.4-.19-.81-.34-1.24-.43-.22-.05-.45-.09-.68-.1s-.44.03-.66.1c-.23.07-.25.42 0 .49.22.06.4.1.62.13.2.02.36.03.54.07.37.07.75.17 1.1.32.16.07.35.05.44-.12.08-.14.04-.37-.12-.44z" class="cls-1"/><path d="m51.56 4.1-.05.13c-.02.05.03-.07 0 .02 0 .02-.02.04-.02.05l-.12.24c-.08.16-.18.31-.28.46l-.07.1c-.01.02-.03.04-.05.06-.03.04.03-.03 0 0-.06.07-.11.14-.17.21-.12.14-.24.28-.38.41-.11.11-.12.31 0 .42.13.12.29.1.42 0 .15-.12.3-.24.42-.38.14-.16.26-.32.38-.49.22-.33.4-.69.54-1.06.06-.16-.06-.35-.22-.39a.322.322 0 0 0-.39.22zm-1.05-1.55c-.84-.05-1.67.13-2.42.51s-1.45.94-1.78 1.7c-.06.14.12.33.24.18.5-.6 1.01-1.17 1.71-1.55s1.47-.58 2.26-.55c.19 0 .19-.28 0-.3z" class="cls-1"/><path d="M51.45 6.13c-.75.36-1.6.45-2.42.3-.38-.07-.74-.2-1.1-.35-.2-.08-.39-.18-.57-.29-.09-.05-.17-.11-.26-.17-.02-.01-.32-.27-.15-.3.13-.03.07-.22-.05-.19-.16.03-.3-.11-.22-.26s-.16-.3-.24-.14c-.2.38.14.78.54.59l-.1-.17c-.13.07-.26.26-.23.41.03.2.27.35.41.45.44.32.93.55 1.47.68 1.02.24 2.1.14 3.02-.37.11-.06.01-.23-.1-.17zm22.67 2.38c-2.13 3.88-5.27 7.44-9.03 9.78-.29.18-.1.73.25.58.96-.38 1.79-1.03 2.57-1.69.97-.83 1.87-1.75 2.71-2.7 1.52-1.74 3.01-3.65 3.87-5.82.08-.21-.26-.35-.37-.15z" class="cls-1"/><path d="M64.94 18.49c.02.47-.06.92-.19 1.36s-.35.86-.53 1.28c-.09.21.13.38.31.24.42-.34.67-.82.83-1.33s.22-1.04.18-1.55a.3.3 0 0 0-.3-.3c-.16 0-.31.14-.3.3z" class="cls-1"/><path d="M65.42 18.37a2.8 2.8 0 0 0-.94-1.16c-.2-.15-.42-.26-.65-.35s-.55-.14-.79-.06c-.22.07-.26.37-.06.49.1.07.22.11.33.15.03.01.06.02.08.03-.05-.02-.02-.01 0 0l.21.09c-.05-.02-.03-.01 0 0 .02.01.04.02.07.03.05.02.1.05.14.08.09.05.19.11.27.17.02.01.04.03.06.04.08.06-.06-.05.02.01.04.03.08.06.11.1.08.07.15.15.22.23.02.02.03.04.05.06.03.03-.03-.05 0 0s.07.1.1.15c.06.09.11.19.15.28.08.17.33.22.48.13.18-.11.2-.3.13-.48z" class="cls-1"/><path d="M65.04 18.4c-.39.01-.78.07-1.15.19-.39.12-.73.32-1.01.61-.07.07-.09.19-.04.28.05.08.17.15.26.11.08-.03.16-.06.25-.09.06-.02.11-.04.16-.07 0 0 .09-.04.05-.02.16-.07.33-.13.5-.18s.33-.1.5-.13c.04 0 .08-.01.12-.02h.09c.09 0 .18-.02.27-.02.17 0 .33-.14.32-.32s-.14-.33-.32-.32z" class="cls-1"/><path d="M64.72 18.65c-.1.18-.2.36-.32.52-.03.04-.05.08-.08.11-.02.02-.03.04-.05.06 0 0-.05.07-.03.04s-.03.03-.03.04c-.02.02-.03.04-.05.06-.03.04-.07.08-.1.12-.13.15-.27.29-.41.43-.16.15-.28.33-.41.5s.09.45.28.37c.1-.04.21-.08.31-.13.11-.06.22-.15.3-.23.15-.14.29-.3.43-.46.28-.34.51-.71.7-1.11.07-.15.05-.36-.12-.44-.15-.08-.36-.04-.44.12z" class="cls-1"/><path d="M64.94 18.32c-.68-.41-1.47-.66-2.27-.66a.3.3 0 0 0-.3.3c0 .17.14.28.3.3.67.07 1.36.26 1.95.61.15.09.35.03.43-.11s.03-.34-.11-.43zm-.39 2.17c-.59.51-1.32.84-2.08.97s-1.53.02-2.29-.13c-.16-.03-.28.19-.12.28.75.39 1.66.39 2.47.22s1.6-.56 2.23-1.13c.14-.13-.07-.33-.21-.21z" class="cls-1"/><path d="M63.19 17.14c-1.01.17-1.9.76-2.53 1.55-.32.4-.55.83-.71 1.31-.07.22-.21.55-.1.78.07.15.3.23.45.19.13-.03.07-.22-.05-.19-.41.09-.44.62-.06.79.16.07.31-.17.14-.24-.18-.08-.17-.28 0-.36l-.1-.17c-.14.07-.06-.34-.06-.35.03-.1.06-.19.1-.29.07-.2.16-.38.26-.57.19-.36.4-.7.67-1 .54-.62 1.25-1.07 2.05-1.25.13-.03.07-.21-.05-.19zm28.98-2.64c2.07 2.66 4.37 5.11 6.89 7.34s5.12 4.28 8.06 5.79c.23.12.4-.19.2-.34-2.71-1.96-5.46-3.83-7.97-6.05s-4.75-4.56-6.82-7.11c-.21-.26-.57.11-.37.37z" class="cls-1"/><path d="M94.41 16.8c3.51 1.17 6.76 3.17 9.53 5.61 1.37 1.21 2.65 2.53 3.79 3.96s2.03 3.09 3.15 4.57c.13.17.44.08.37-.15-.55-1.75-1.77-3.34-2.89-4.77a30.397 30.397 0 0 0-3.99-4.19c-2.87-2.49-6.17-4.44-9.83-5.54-.32-.1-.45.4-.14.5z" class="cls-1"/><path d="M93.9 16.56c.02.82.63 1.77.99 2.49.44.89.93 1.76 1.48 2.59 1.09 1.64 2.46 2.97 4.05 4.12 1.68 1.21 3.42 2.36 5.23 3.37.86.48 1.74.92 2.65 1.3.79.33 1.92.9 2.79.8.21-.02.3-.28.11-.4-.38-.26-.86-.33-1.3-.47-.46-.15-.91-.33-1.36-.52-.88-.38-1.73-.82-2.55-1.29-1.7-.97-3.34-2.07-4.94-3.2s-3.03-2.48-4.16-4.13c-.52-.76-.99-1.57-1.41-2.39-.21-.41-.42-.83-.63-1.24-.19-.39-.34-.84-.65-1.15-.11-.1-.3-.03-.3.12zm5.39-12.9c-1.73 1.97-3.79 3.69-6.09 4.96-1.14.63-2.33 1.16-3.56 1.59-.63.21-1.26.4-1.91.56s-1.32.21-1.94.43c-.29.1-.26.56.08.56.64 0 1.31-.21 1.93-.37a22.978 22.978 0 0 0 5.56-2.3c2.36-1.36 4.45-3.08 6.17-5.19.13-.16-.09-.4-.24-.24z" class="cls-1"/><path d="M86.94 11.71c.95.14 1.82.19 2.79.06.87-.11 1.72-.32 2.56-.58 1.78-.55 3.59-1.28 5.14-2.31s2.71-2.38 3.88-3.76c.65-.77 1.31-1.54 1.96-2.32.56-.66 1.36-1.39 1.67-2.2.05-.13-.12-.23-.22-.17-.74.43-1.32 1.31-1.87 1.95-.58.67-1.16 1.35-1.74 2.02-1.17 1.36-2.32 2.78-3.81 3.81-2.91 2.02-6.8 3.13-10.32 3.22-.15 0-.19.24-.04.27z" class="cls-1"/><path d="M104.73.35c-3.95.65-7.96 1.61-11.5 3.56-1.57.87-3.06 1.93-4.33 3.21s-2.33 2.74-3.77 3.89c-.15.12.01.37.18.31 1.58-.52 2.59-2.08 3.66-3.26 1.27-1.4 2.78-2.54 4.41-3.47 3.54-2.02 7.5-2.97 11.42-3.95.19-.05.11-.32-.08-.29zM74.76 8.71c3.38 1.58 6.43 3.76 8.68 6.78 1.99 2.68 3.25 6.32 6.32 8 .14.08.3-.11.17-.23-2.74-2.43-4.09-5.83-6.32-8.66s-5.25-5.15-8.68-6.31c-.24-.08-.4.3-.17.41z" class="cls-1"/><path d="M78.12 10.36c3.85 1.07 7 3.69 9.5 6.72 1.39 1.68 2.6 3.5 3.75 5.34.55.88 1.07 1.78 1.63 2.65.49.77 1.02 1.47 1.81 1.94.22.13.45-.17.27-.35-1.49-1.5-2.44-3.48-3.56-5.26s-2.38-3.6-3.79-5.24c-2.51-2.92-5.7-5.34-9.47-6.32-.33-.09-.47.42-.14.51z" class="cls-1"/><path d="M94.92 26.69c-4.27-.77-8.28-2.66-11.42-5.68a20.922 20.922 0 0 1-3.77-4.86c-1.07-1.9-2.2-4.27-2.13-6.5.01-.39-.59-.39-.61 0-.1 1.81.57 3.61 1.31 5.23s1.6 3.04 2.65 4.39c2.16 2.77 5 4.97 8.21 6.36 1.81.79 3.73 1.3 5.69 1.52.27.03.33-.42.06-.47zM63.34 8.74c-1.65.65-2.54 2.42-3.34 3.89-1.03 1.88-1.9 3.85-2.98 5.7-2 3.43-5.1 6.73-9.38 6.63-.43 0-.42.63 0 .66 3.97.28 7.18-2.56 9.2-5.69 1.14-1.76 2.02-3.68 2.94-5.56.47-.97.96-1.93 1.5-2.86s1.16-1.88 2.19-2.32c.27-.12.16-.57-.13-.46z" class="cls-1"/><path d="M61.74 9.25c-3.27 1.81-6.57 3.76-9.28 6.36a18.25 18.25 0 0 0-3.39 4.42c-.46.86-.85 1.75-1.16 2.68s-.64 1.9-.65 2.84c0 .36.5.41.61.08.3-.89.42-1.84.72-2.73s.72-1.84 1.19-2.7c.89-1.61 2.06-3.04 3.37-4.32 2.59-2.54 5.73-4.37 8.79-6.27.23-.14.03-.5-.21-.37z" class="cls-1"/><path d="M61.39 9.7c-1.97 1.9-3.89 3.84-5.64 5.94-.82.99-1.61 1.99-2.38 3.02-.83 1.12-1.7 2.25-2.33 3.51-.1.21.17.46.34.26.83-.97 1.53-2.04 2.29-3.07.84-1.14 1.7-2.26 2.59-3.36 1.7-2.09 3.43-4.18 5.31-6.11.12-.13-.07-.31-.19-.19zm-3.66.48c-4.31.73-8.51-.66-12.68-1.51-1.97-.4-3.96-.65-5.97-.58-.97.03-1.94.13-2.9.3s-2.08.31-2.86.86c-.17.12-.12.39.11.4.94.01 1.91-.38 2.83-.54 1.05-.18 2.11-.29 3.17-.32 2.15-.06 4.27.27 6.37.72 3.94.84 7.99 2.02 12.02 1.04.23-.06.13-.39-.1-.35z" class="cls-1"/><path d="M56.19 10.59c-3.54 1.65-7.44 2.81-11.39 2.63-1.98-.09-3.89-.56-5.73-1.29s-3.57-1.84-5.42-2.61c-.37-.16-.56.42-.26.62.87.59 1.86 1.05 2.8 1.53s1.84.88 2.79 1.25c1.9.73 3.9 1.17 5.94 1.23 4.02.11 7.98-1.09 11.45-3.06.19-.11.02-.38-.17-.29z" class="cls-1"/><path d="M56.62 10.68c-3.41.96-6.86 1.3-10.39.97-1.78-.17-3.56-.48-5.3-.89s-3.36-.95-5.06-1.37c-.24-.06-.43.31-.18.42 3.22 1.45 6.91 2.19 10.42 2.48s7.26.06 10.61-1.21c.24-.09.15-.47-.11-.39zm-27.45 5.67c-4.89.01-9.71-.21-14.32-2.01-3.83-1.49-7.31-3.89-10.1-6.91C3.17 5.71 1.94 3.79.7 1.83c-.18-.29-.58-.04-.45.26.83 1.9 2.1 3.62 3.46 5.17s2.92 2.98 4.6 4.21c3.5 2.56 7.56 4.26 11.85 4.92 2.98.46 6.01.51 9.01.32.23-.01.24-.37 0-.37z" class="cls-1"/><path d="M27.84 15.99c-3.62-1.72-6.82-4.16-10.17-6.34S10.58 5.59 6.82 4c-1.02-.43-2.04-.85-3.07-1.25C2.66 2.32 1.54 1.8.4 1.54c-.33-.07-.56.39-.24.56.87.45 1.84.75 2.75 1.1.97.37 1.93.75 2.89 1.14 1.96.8 3.89 1.67 5.78 2.62 3.62 1.81 6.91 4.08 10.33 6.24 1.86 1.17 3.77 2.27 5.8 3.12.19.08.32-.24.14-.33z" class="cls-1"/></g></svg>